<?xml version="1.0" encoding="utf-8"?>
<!-- Generator: Adobe Illustrator 15.1.0, SVG Export Plug-In . SVG Version: 6.00 Build 0)  -->
<!DOCTYPE svg PUBLIC "-//W3C//DTD SVG 1.1//EN" "http://www.w3.org/Graphics/SVG/1.1/DTD/svg11.dtd">
<svg version="1.1"
	 id="svg2" sodipodi:docname="New document 1" inkscape:version="0.47 r22583" xmlns:sodipodi="http://sodipodi.sourceforge.net/DTD/sodipodi-0.dtd" xmlns:inkscape="http://www.inkscape.org/namespaces/inkscape" xmlns:svg="http://www.w3.org/2000/svg" xmlns:rdf="http://www.w3.org/1999/02/22-rdf-syntax-ns#" xmlns:cc="http://creativecommons.org/ns#" xmlns:dc="http://purl.org/dc/elements/1.1/"
	 xmlns="http://www.w3.org/2000/svg" xmlns:xlink="http://www.w3.org/1999/xlink" x="0px" y="0px" width="760px" height="868px"
	 viewBox="-11.453 176.681 760 868" enable-background="new -11.453 176.681 760 868" xml:space="preserve">
<defs>
	
	
		<inkscape:perspective  inkscape:persp3d-origin="372.04724 : 350.78739 : 1" inkscape:vp_x="0 : 526.18109 : 1" inkscape:vp_y="0 : 1000 : 0" id="perspective10" sodipodi:type="inkscape:persp3d" inkscape:vp_z="744.09448 : 526.18109 : 1">
		</inkscape:perspective>
	
		<inkscape:perspective  inkscape:persp3d-origin="0.5 : 0.33333333 : 1" inkscape:vp_x="0 : 0.5 : 1" inkscape:vp_y="0 : 1000 : 0" id="perspective2824" sodipodi:type="inkscape:persp3d" inkscape:vp_z="1 : 0.5 : 1">
		</inkscape:perspective>
	
		<inkscape:perspective  inkscape:persp3d-origin="0.5 : 0.33333333 : 1" inkscape:vp_x="0 : 0.5 : 1" inkscape:vp_y="0 : 1000 : 0" id="perspective2838" sodipodi:type="inkscape:persp3d" inkscape:vp_z="1 : 0.5 : 1">
		</inkscape:perspective>
</defs>
<sodipodi:namedview  borderopacity="1.0" inkscape:zoom="0.38359375" pagecolor="#ffffff" id="base" inkscape:snap-bbox="true" showgrid="false" bordercolor="#666666" inkscape:pageopacity="0.0" inkscape:pageshadow="2" inkscape:document-units="px" inkscape:current-layer="layer1" inkscape:window-width="1280" inkscape:window-height="738" inkscape:window-x="-8" inkscape:window-y="-8" inkscape:window-maximized="1" inkscape:cy="441.38579" inkscape:cx="183.16196">
	</sodipodi:namedview>
<g id="layer1" inkscape:label="Layer 1" inkscape:groupmode="layer">
	
		<linearGradient id="path3638_1_" gradientUnits="userSpaceOnUse" x1="586.8413" y1="-83.1816" x2="763.0873" y2="836.1318" gradientTransform="matrix(1 0 0 -1 -254.8281 855.3623)">
		<stop  offset="0" style="stop-color:#000000"/>
		<stop  offset="1" style="stop-color:#000000;stop-opacity:0"/>
	</linearGradient>
	<path id="path3638" sodipodi:nodetypes="ccssssssssccsssscsccssssccssccssssc" fill="url(#path3638_1_)" d="M227.886,1034.878
		c-63.972-19.623-153.353-152.727-185.878-276.805c-63.003-240.346,96.43-442.973,286.919-364.651
		c52.173,21.452,56.298,21.503,117.946,1.498c110.549-35.877,212.377-12.881,248,56.006c10.846,20.973,9.355,24.969-20.859,55.944
		c-78.189,80.155-70.301,204.557,16.893,266.393c37.031,26.262,38.289,40.529,9.139,103.621
		c-64.877,140.422-130.785,180.908-238.232,146.346c-54.881-17.652-76.602-16.832-140.107,5.297
		C275.763,1044.537,262.337,1045.447,227.886,1034.878L227.886,1034.878z M131.808,590.587
		C227.154,495.786-40,607.63,222.633,498.136c65.288-27.219,28.306-37.396-2.579-47.919
		c-39.079-13.315,292.709-59.624,226.477-38.03C380.772,433.625,316.5,542.8,264.94,580.884
		C107.06,697.501,15.589,497.324,52.393,703.841c18.833,105.674-36.096-57.193,3.021-112.936
		C78.368,558.197,93.613,628.564,131.808,590.587L131.808,590.587z M152.796,677.417c18.558-9.18-9.53-90.959,7.681-105.262
		c30.678-25.494,79.466,3.865,143.928-87.859c9.304-13.238,62.184-29.003,155.166,30.142
		c70.879,45.084-143.779,56.59-213.28,137.895C168.11,743.794,71.267,717.751,152.796,677.417L152.796,677.417z M371.727,380.847
		c-26.7-40.749,38.711-150.513,109.905-184.429c70.371-33.524,89.482-16.678,66.285,58.425
		C521.315,340.971,401.665,426.539,371.727,380.847z M477.739,220.592c22.012-14.37,11.578-7.457,20.525-12.48
		c87.139-48.921,32.756,7.424,15.398-8.354c-13.893-12.63,10.256,3.889,6.293,7.748c-19.473,18.965,18.129-45.686-5.91,5.944
		C491.221,262.474,423.155,256.223,477.739,220.592L477.739,220.592z"/>
</g>
</svg>
