<?xml version="1.0" standalone="no"?> <!DOCTYPE svg PUBLIC "-//W3C//DTD SVG 1.0//EN" "http://www.w3.org/TR/2001/REC-SVG-20010904/DTD/svg10.dtd" > <svg xmlns="http://www.w3.org/2000/svg" width="100%" height="100%">
<defs >
<font id="officinaserif" horiz-adv-x="400" ><font-face
    font-family="Officina Serif OS ITC TT"
    units-per-em="1000"
    panose-1="0 0 4 0 0 0 0 0 0 0"
    ascent="915"
    descent="-234"
    alphabetic="0" />
<missing-glyph horiz-adv-x="500" d="M63 0V766H438V0H63ZM125 63H375V704H125V63Z" />
<glyph unicode=" " glyph-name="space" horiz-adv-x="206" />
<glyph unicode="!" glyph-name="exclam" horiz-adv-x="333" d="M216 672L194 278Q193 265 180 265H151Q138 265 137 278L114 676Q114 686 128 686H202Q216 686 216 675V672ZM237 57Q237 28 217 7T167 -14Q137 -14 117 6T96 57Q96 86 117 106T168 127Q196 127 216
106T237 57Z" />
<glyph unicode="&quot;" glyph-name="quotedbl" horiz-adv-x="500" d="M365 672L350 435Q349 422 336 422H314Q301 422 300 435L283 677Q283 686 297 686H352Q366 686 365 672ZM217 672L202 435Q201 422 188 422H166Q153 422 152 435L135 676Q135 686 149 686H204Q218
686 217 672Z" />
<glyph unicode="#" glyph-name="numbersign" horiz-adv-x="500" d="M465 391Q465 377 451 377H389L369 178H424Q438 178 438 164V128Q438 114 424 114H362L343 -67Q342 -80 329 -80H293Q280 -80 280 -69V-65L299 114H172L153 -67Q152 -80 139 -80H104Q90 -80 90
-71V-65L109 114H50Q36 114 36 128V164Q36 178 50 178H117L136 377H77Q63 377 63 391V429Q63 443 77 443H144L165 645Q166 658 179 658H215Q228 658 228 646V644L207 443H334L355 645Q356 658 369 658H404Q418 658 418 649V644L397 443H451Q465 443 465 429V391ZM326
377H199L180 178H307L326 377Z" />
<glyph unicode="$" glyph-name="dollar" horiz-adv-x="500" d="M438 168Q438 98 396 49T284 -11V-76Q284 -90 270 -90H244Q230 -90 230 -76V-15Q179 -13 120 5T60 39L61 46L79 93Q82 98 86 98Q90 98 94 95Q182 50 230 52V303Q150 349 130 367Q76 416 76 488Q76
553 119 599T230 653V710Q230 724 244 724H270Q284 724 284 710V655Q330 652 375 636T421 606Q421 604 419 599L402 556Q400 551 395 551Q391 551 379 557Q325 585 284 589V361Q366 314 392 287Q438 238 438 168ZM230 382V586Q157 576 157 496Q157 458 172 434T230
382ZM359 160Q359 198 343 224T284 281V55Q359 73 359 160Z" />
<glyph unicode="%" glyph-name="percent" horiz-adv-x="741" d="M711 168Q711 84 675 37T575 -10Q513 -10 480 32T446 153Q446 238 482 284T584 331Q644 331 677 288T711 168ZM542 652Q542 649 540 644L267 -9Q263 -19 249 -19H211Q198 -19 198 -12Q198 -8 200
-3L472 650Q476 660 487 660H529Q542 660 542 652ZM294 490Q294 406 258 359T158 312Q96 312 63 354T29 476Q29 560 65 606T167 653Q227 653 260 610T294 490ZM645 163Q645 276 581 276Q512 276 512 158Q512 45 575 45Q645 45 645 163ZM228 485Q228 598 164 598Q95
598 95 479Q95 367 159 367Q228 367 228 485Z" />
<glyph unicode="&amp;" glyph-name="ampersand" horiz-adv-x="611" d="M577 33Q577 29 571 24L531 -9Q525 -13 521 -13Q515 -13 510 -7L450 62Q362 -10 263 -10Q170 -10 114 39T57 171Q57 263 135 322Q155 337 189 361Q102 462 102 534Q102 605 152 650T279 696Q347
696 388 656T430 549Q430 446 294 357L460 170Q490 221 490 287V299Q490 311 502 311H551Q563 311 563 294Q563 196 505 118L574 39Q577 36 577 33ZM356 542Q356 582 332 607T269 632Q230 632 204 607T177 543Q177 487 255 401Q356 472 356 542ZM408 111L228 318Q176
277 158 247T139 176Q139 120 174 87T270 54Q344 54 408 111Z" />
<glyph unicode="&apos;" glyph-name="quotesingle" horiz-adv-x="333" d="M207 672L192 435Q191 422 178 422H156Q143 422 142 435L125 676Q125 686 139 686H194Q208 686 207 672Z" />
<glyph unicode="(" glyph-name="parenleft" horiz-adv-x="370" d="M317 -201Q317 -207 300 -218T274 -229Q259 -229 205 -148Q82 36 82 249Q82 481 227 678Q264 728 274 728Q281 728 286 724L310 710Q317 706 317 700Q317 694 308 682Q164 490 164 249Q164 10
308 -183Q317 -195 317 -201Z" />
<glyph unicode=")" glyph-name="parenright" horiz-adv-x="370" d="M288 249Q288 19 143 -179Q106 -229 96 -229Q89 -229 84 -226L60 -211Q53 -207 53 -202Q53 -195 62 -183Q206 10 206 249Q206 489 62 682Q53 694 53 700Q53 706 76 720Q89 728 96 728Q110 728
165 647Q288 465 288 249Z" />
<glyph unicode="*" glyph-name="asterisk" horiz-adv-x="500" d="M415 543Q415 537 404 534L290 508L367 420Q372 414 372 411Q372 406 364 400L329 375Q322 370 320 370Q315 370 310 378L250 478L190 378Q185 370 180 370Q177 370 170 375L135 401Q127 407 127
410Q127 413 133 420L209 508L96 534Q84 537 84 543Q84 545 86 551L100 593Q104 604 109 604Q109 604 117 601L225 555L214 677Q214 686 228 686H272Q285 686 285 678V672L275 555L386 602Q390 604 391 604Q397 604 400 593L413 551Q415 545 415 543Z" />
<glyph unicode="+" glyph-name="plus" horiz-adv-x="500" d="M478 230Q478 216 464 216H287V40Q287 26 273 26H226Q212 26 212 40V216H36Q22 216 22 230V277Q22 291 36 291H212V468Q212 481 226 481H273Q287 481 287 468V291H464Q478 291 478 277V230Z" />
<glyph unicode="," glyph-name="comma" horiz-adv-x="296" d="M233 107Q233 104 229 97L114 -115Q109 -124 104 -124Q103 -124 99 -123L96 -122L74 -114Q63 -110 63 -105Q63 -104 65 -97L123 103Q126 114 138 114H219Q233 114 233 107Z" />
<glyph unicode="-" glyph-name="hyphen" horiz-adv-x="352" d="M315 232Q315 218 301 218H51Q37 218 37 232V279Q37 293 51 293H301Q315 293 315 279V232Z" />
<glyph unicode="." glyph-name="period" horiz-adv-x="296" d="M219 57Q219 28 199 7T149 -14Q119 -14 99 6T78 57Q78 86 99 106T150 127Q178 127 198 106T219 57Z" />
<glyph unicode="/" glyph-name="slash" horiz-adv-x="500" d="M437 721Q437 718 434 711L47 -219Q43 -229 30 -229H-8Q-22 -229 -22 -221Q-22 -219 -19 -212L368 718Q372 728 384 728H424Q437 728 437 721Z" />
<glyph unicode="0" glyph-name="zero" horiz-adv-x="500" d="M456 292Q456 -14 249 -14Q163 -14 114 45Q45 129 45 280Q45 425 101 505T259 586Q354 586 405 510T456 292ZM375 290Q375 515 253 515Q193 515 160 455T126 286Q126 171 162 108Q191 57 250 57Q317
57 345 115Q375 178 375 290Z" />
<glyph unicode="1" glyph-name="one" horiz-adv-x="500" d="M425 14Q425 0 411 0H147Q133 0 133 14V52Q133 66 147 66H248V492L124 420Q117 416 114 416Q110 416 105 425L93 448Q90 454 90 458Q90 461 98 467L260 581H310Q324 581 324 567V66H411Q425 66 425 52V14Z" />
<glyph unicode="2" glyph-name="two" horiz-adv-x="500" d="M430 14Q430 0 416 0H81Q69 0 69 14Q69 112 109 178T241 296Q310 335 327 357Q349 385 349 425Q349 467 324 491T253 515Q210 515 184 493T139 418Q135 408 129 408Q126 408 119 410L78 422Q70 425 70
432Q70 443 83 471T110 517Q163 586 257 586Q337 586 383 544T430 431Q430 357 385 310Q357 281 288 244Q159 175 147 73H416Q430 73 430 59V14Z" />
<glyph unicode="3" glyph-name="three" horiz-adv-x="500" d="M432 110Q432 24 374 -29T219 -82Q168 -82 112 -67T55 -38Q55 -36 58 -29L78 16Q81 22 85 22Q89 22 108 13Q159 -11 218 -11Q351 -11 351 113Q351 236 205 236H171Q157 236 157 250V290Q157 304 171
304H204Q263 304 298 336T333 424Q333 468 307 494T236 520Q181 520 135 469Q123 456 116 456Q113 456 108 460L75 488Q70 491 70 496Q70 511 118 547Q170 586 239 586Q315 586 362 542T410 426Q410 320 307 279Q348 266 371 248Q432 199 432 110Z" />
<glyph unicode="4" glyph-name="four" horiz-adv-x="500" d="M469 87Q469 73 455 73H376V-68Q376 -82 362 -82H315Q301 -82 301 -68V73H43Q31 73 31 87V143L290 573Q295 581 307 581L357 573Q369 571 369 564Q369 560 365 555L110 138H301L312 300Q313 313 326
313H362Q376 313 376 299V138H455Q469 138 469 124V87Z" />
<glyph unicode="5" glyph-name="five" horiz-adv-x="500" d="M433 151Q433 43 370 -19T198 -82Q144 -82 106 -72T68 -47V-40L78 0Q80 8 88 8Q91 8 99 6Q144 -11 203 -11Q352 -11 352 148Q352 208 325 241T248 275Q186 275 132 220Q126 214 123 214L114 215L79
227Q68 231 68 236V243L100 563Q101 576 114 576H374Q388 576 388 562V520Q388 506 374 506H165L143 303Q201 346 263 346Q339 346 386 292T433 151Z" />
<glyph unicode="6" glyph-name="six" horiz-adv-x="500" d="M442 224Q442 119 388 53T249 -14Q147 -14 97 78Q59 147 59 260Q59 440 134 546T336 653Q370 653 395 647T420 631Q420 627 419 625L408 583Q406 576 401 576L394 577Q364 588 333 588Q252 588 201 518Q159
461 147 373Q204 438 274 438Q350 438 396 380T442 224ZM361 223Q361 369 249 369Q197 369 169 332T140 225Q140 57 250 57Q361 57 361 223Z" />
<glyph unicode="7" glyph-name="seven" horiz-adv-x="500" d="M426 539L195 -67Q191 -77 185 -77Q184 -77 181 -76H179L125 -68Q113 -66 113 -60Q113 -57 116 -51L332 504H74Q60 504 60 518V562Q60 576 74 576H412Q426 576 426 562V539Z" />
<glyph unicode="8" glyph-name="eight" horiz-adv-x="500" d="M460 167Q460 101 417 51Q361 -14 251 -14Q155 -14 98 34T40 165Q40 245 97 296Q126 322 186 345Q68 391 68 494Q68 558 114 603Q165 653 252 653Q331 653 381 611T431 503Q431 401 318 347Q460 290
460 167ZM358 495Q358 538 329 563T252 589Q206 589 178 564T150 497Q150 427 256 378Q358 420 358 495ZM381 162Q381 258 251 307Q126 255 126 162Q126 113 162 83T256 52Q312 52 346 82T381 162Z" />
<glyph unicode="9" glyph-name="nine" horiz-adv-x="500" d="M433 313Q433 127 366 23T177 -82Q125 -82 96 -69Q86 -64 86 -56V-50L91 -9Q91 -1 99 -1Q100 -1 107 -3Q144 -14 177 -14Q318 -14 352 210Q305 134 222 134Q146 134 100 195T53 355Q53 458 107 522T248
586Q433 586 433 313ZM352 363Q352 515 245 515Q194 515 164 473T134 359Q134 285 162 244T242 202Q352 202 352 363Z" />
<glyph unicode=":" glyph-name="colon" horiz-adv-x="296" d="M219 403Q219 374 199 354T149 333Q119 333 99 353T78 404Q78 433 99 453T150 474Q178 474 198 453T219 403ZM219 57Q219 28 199 7T149 -14Q119 -14 99 6T78 57Q78 86 99 106T150 127Q178 127 198
106T219 57Z" />
<glyph unicode=";" glyph-name="semicolon" horiz-adv-x="296" d="M234 403Q234 374 213 354T163 333Q134 333 114 353T93 404Q93 433 114 453T165 474Q193 474 213 453T234 403ZM233 107Q233 104 229 97L114 -115Q109 -124 104 -124Q103 -124 99 -123L96 -122L74
-114Q63 -110 63 -105Q63 -104 65 -97L123 103Q126 114 138 114H219Q233 114 233 107Z" />
<glyph unicode="&lt;" glyph-name="less" horiz-adv-x="514" d="M501 97L55 308V378L501 589V508L142 343L501 178V97Z" />
<glyph unicode="=" glyph-name="equal" horiz-adv-x="500" d="M478 299Q478 285 464 285H36Q22 285 22 299V346Q22 360 36 360H464Q478 360 478 346V299ZM478 161Q478 147 464 147H36Q22 147 22 161V208Q22 222 36 222H464Q478 222 478 208V161Z" />
<glyph unicode="&gt;" glyph-name="greater" horiz-adv-x="514" d="M500 308L55 97V178L413 343L55 508V589L500 378V308Z" />
<glyph unicode="?" glyph-name="question" horiz-adv-x="426" d="M376 539Q376 410 223 369V279Q223 265 209 265H169Q155 265 155 279V402Q155 417 172 422Q231 439 255 454Q297 480 297 537Q297 626 193 626Q141 626 84 601Q78 599 75 599Q69 599 66 607L52
645Q50 650 50 652Q50 666 101 680T201 695Q283 695 329 654T376 539ZM262 57Q262 28 241 7T191 -14Q162 -14 142 7T121 57Q121 86 142 106T193 127Q221 127 241 106T262 57Z" />
<glyph unicode="@" glyph-name="at" horiz-adv-x="944" d="M876 365Q876 274 838 199T732 81Q682 49 629 49Q547 49 544 139Q483 50 406 50Q366 50 343 80T320 163Q320 271 377 357Q425 430 499 430Q545 430 580 390L590 414Q593 420 600 420H645Q651 420 651
416V413L650 410L601 180Q599 171 599 152Q599 104 639 104Q708 104 759 181T811 363Q811 464 754 523Q679 601 542 601Q371 601 254 481T137 184Q137 43 215 -37T448 -118Q612 -118 745 -46Q756 -40 761 -40Q768 -40 771 -48L783 -77Q785 -82 785 -85Q785 -95
768 -103Q622 -176 439 -176Q261 -176 165 -79T68 180Q68 274 106 367T209 525Q343 659 541 659Q706 659 801 567Q876 495 876 365ZM566 338Q530 371 495 371Q451 371 422 302T392 167Q392 112 427 112Q466 112 500 153T548 256L566 338Z" />
<glyph unicode="A" glyph-name="A" horiz-adv-x="574" d="M580 12Q580 0 568 0H365Q353 0 353 12V53Q353 65 365 65H427L387 206H184L144 65H209Q221 65 221 53V12Q221 0 209 0H8Q-4 0 -4 12V53Q-4 65 8 65H56L243 675Q246 686 258 686H317Q329 686 332 675L519
65H568Q580 65 580 53V12ZM368 275L308 495Q295 542 285 591Q277 552 262 496L203 275H368Z" />
<glyph unicode="B" glyph-name="B" horiz-adv-x="574" d="M506 190Q506 120 469 69T364 6Q334 0 265 0H51Q39 0 39 12V53Q39 65 51 65H114V621H51Q39 621 39 633V674Q39 686 51 686H282Q378 686 418 660Q482 619 482 522Q482 407 382 359Q430 346 453 324Q506
274 506 190ZM393 513Q393 571 368 595T280 619H196V383H260Q318 383 344 401Q393 435 393 513ZM417 192Q417 316 281 316H196V67H286Q345 67 375 91Q417 124 417 192Z" />
<glyph unicode="C" glyph-name="C" horiz-adv-x="482" d="M441 56Q441 43 432 36Q368 -14 281 -14Q51 -14 51 350Q51 700 273 700Q365 700 428 649Q436 642 436 631V520Q436 508 424 508H379Q367 508 367 520V605Q318 633 275 633Q203 633 172 569T140 360Q140
53 282 53Q324 53 372 81V167Q372 179 384 179H429Q441 179 441 167V56Z" />
<glyph unicode="D" glyph-name="D" horiz-adv-x="574" d="M521 349Q521 165 455 83T241 0H51Q39 0 39 12V53Q39 65 51 65H114V621H51Q39 621 39 633V674Q39 686 51 686H253Q368 686 420 648Q521 574 521 349ZM433 353Q433 549 354 595Q319 615 251 615H196V71H258Q350
71 393 137Q433 198 433 353Z" />
<glyph unicode="E" glyph-name="E" horiz-adv-x="482" d="M449 14Q449 0 435 0H51Q39 0 39 12V53Q39 65 51 65H114V621H51Q39 621 39 633V674Q39 686 51 686H428Q442 686 442 671V536Q442 524 430 524H385Q373 524 373 536V615H196V390H392Q406 390 406 376V337Q406
323 392 323H196V71H380V159Q380 171 392 171H437Q449 171 449 159V14Z" />
<glyph unicode="F" glyph-name="F" horiz-adv-x="463" d="M443 536Q443 524 431 524H386Q374 524 374 536V615H196V383H392Q406 383 406 369V330Q406 316 392 316H196V65H271Q283 65 283 53V12Q283 0 271 0H51Q39 0 39 12V53Q39 65 51 65H114V621H51Q39 621 39
633V674Q39 686 51 686H429Q443 686 443 671V536Z" />
<glyph unicode="G" glyph-name="G" horiz-adv-x="537" d="M536 294Q536 282 524 282H468V41Q468 32 459 26Q395 -14 293 -14Q175 -14 114 76T52 340Q52 513 114 606T291 700Q328 700 373 686Q422 671 446 649Q453 643 453 632V518Q453 506 441 506H396Q384 506
384 518V606Q337 633 292 633Q230 633 194 588Q141 522 141 352Q141 194 180 124T308 53Q342 53 386 72V282H308Q294 282 294 296V333Q294 347 308 347H524Q536 347 536 335V294Z" />
<glyph unicode="H" glyph-name="H" horiz-adv-x="648" d="M609 12Q609 0 597 0H388Q376 0 376 12V53Q376 65 388 65H452V322H196V65H260Q272 65 272 53V12Q272 0 260 0H51Q39 0 39 12V53Q39 65 51 65H114V621H51Q39 621 39 633V674Q39 686 51 686H260Q272 686
272 674V633Q272 621 260 621H196V391H452V621H388Q376 621 376 633V674Q376 686 388 686H597Q609 686 609 674V633Q609 621 597 621H534V65H597Q609 65 609 53V12Z" />
<glyph unicode="I" glyph-name="I" horiz-adv-x="352" d="M320 14Q320 0 306 0H47Q33 0 33 14V51Q33 65 47 65H135V621H47Q33 621 33 635V672Q33 686 47 686H306Q320 686 320 672V635Q320 621 306 621H217V65H306Q320 65 320 51V14Z" />
<glyph unicode="J" glyph-name="J" horiz-adv-x="444" d="M366 212Q366 137 361 111T338 57Q289 -14 183 -14Q97 -14 51 35T5 177Q5 197 14 197H73Q81 197 81 187V175Q81 53 183 53Q252 53 275 107Q284 128 284 207V617H111Q97 617 97 631V672Q97 686 111 686H352Q366
686 366 672V212Z" />
<glyph unicode="K" glyph-name="K" horiz-adv-x="556" d="M561 12Q561 0 548 0H357Q345 0 345 12V53Q345 65 357 65H405L196 330V65H257Q269 65 269 53V12Q269 0 257 0H51Q39 0 39 12V53Q39 65 51 65H114V621H51Q39 621 39 633V674Q39 686 51 686H257Q269 686
269 674V633Q269 621 257 621H196V342L408 621H359Q347 621 347 633V674Q347 686 359 686H542Q554 686 554 674V633Q554 621 542 621H497L279 341L499 65H548Q561 65 561 53V12Z" />
<glyph unicode="L" glyph-name="L" horiz-adv-x="463" d="M482 148Q482 145 481 143L433 11Q429 0 418 0H51Q39 0 39 12V53Q39 65 51 65H114V621H51Q39 621 39 633V674Q39 686 51 686H260Q272 686 272 674V633Q272 621 260 621H196V71H377L412 168Q415 176 421
176Q425 176 427 175L474 158Q482 155 482 148Z" />
<glyph unicode="M" glyph-name="M" horiz-adv-x="704" d="M681 12Q681 0 669 0H463Q451 0 451 12V53Q451 65 463 65H532L518 544Q518 547 519 591Q515 549 505 520L385 171Q381 160 369 160H340Q329 160 325 171L209 520Q200 548 195 591Q196 566 196 544V521L182
65H252Q264 65 264 53V12Q264 0 252 0H47Q35 0 35 12V53Q35 65 47 65H102L134 621H64Q52 621 52 633V674Q52 686 64 686H210Q221 686 225 675L343 330Q352 303 357 268Q363 311 370 330L490 675Q494 686 505 686H652Q664 686 664 674V633Q664 621 652 621H584L616
65H669Q681 65 681 53V12Z" />
<glyph unicode="N" glyph-name="N" horiz-adv-x="574" d="M568 633Q568 621 556 621H493V14Q493 0 479 0H425Q415 0 410 10L179 505Q162 542 150 592Q160 541 160 501V65H224Q236 65 236 53V12Q236 0 224 0H24Q12 0 12 12V53Q12 65 24 65H87V621H24Q12 621 12
633V674Q12 686 24 686H164Q175 686 180 676L401 210Q415 180 427 133Q420 175 420 213V621H357Q345 621 345 633V674Q345 686 357 686H556Q568 686 568 674V633Z" />
<glyph unicode="O" glyph-name="O" horiz-adv-x="556" d="M503 344Q503 -14 272 -14Q52 -14 52 339Q52 700 286 700Q503 700 503 344ZM414 337Q414 501 376 575Q346 633 278 633Q205 633 175 570Q141 498 141 345Q141 190 180 111Q209 53 277 53Q351 53 380 116Q414
189 414 337Z" />
<glyph unicode="P" glyph-name="P" horiz-adv-x="500" d="M486 502Q486 364 385 312Q342 290 269 290H196V65H271Q283 65 283 53V12Q283 0 271 0H51Q39 0 39 12V53Q39 65 51 65H114V621H51Q39 621 39 633V674Q39 686 51 686H283Q374 686 411 664Q486 620 486 502ZM402
501Q402 588 345 609Q323 617 275 617H196V362H263Q330 362 358 385Q402 421 402 501Z" />
<glyph unicode="Q" glyph-name="Q" horiz-adv-x="556" d="M547 -23Q547 -28 543 -31L490 -67Q487 -70 481 -70Q453 -70 377 12Q328 -14 272 -14Q52 -14 52 341Q52 700 283 700Q503 700 503 343Q503 161 435 64Q462 35 542 -15Q547 -18 547 -23ZM414 337Q414 501
376 575Q346 633 278 633Q205 633 175 570Q141 498 141 345Q141 190 179 111Q207 53 276 53Q351 53 380 116Q414 189 414 337Z" />
<glyph unicode="R" glyph-name="R" horiz-adv-x="556" d="M556 12Q556 0 544 0H446Q434 0 428 11L269 311H196V65H260Q272 65 272 53V12Q272 0 260 0H51Q39 0 39 12V53Q39 65 51 65H114V621H51Q39 621 39 633V674Q39 686 51 686H282Q367 686 408 665Q484 626 484
515Q484 364 353 318L495 65H544Q556 65 556 53V12ZM400 509Q400 585 351 610Q329 621 276 621H196V374H274Q327 374 356 397Q400 432 400 509Z" />
<glyph unicode="S" glyph-name="S" horiz-adv-x="482" d="M440 181Q440 94 382 40T228 -14Q184 -14 126 1T49 33Q42 39 42 53V169Q42 181 54 181H99Q111 181 111 169V87Q180 60 232 60Q286 60 318 90T351 171Q351 218 327 246T226 318Q129 372 99 407Q58 454 58
520Q58 599 113 649T257 700Q348 700 412 659Q421 653 421 640V525Q421 513 409 513H364Q352 513 352 525V607Q303 627 254 627Q146 627 146 529Q146 490 166 466T243 409Q364 341 392 309Q440 254 440 181Z" />
<glyph unicode="T" glyph-name="T" horiz-adv-x="445" d="M439 503Q439 491 427 491H382Q370 491 370 503V619H265V65H336Q348 65 348 53V12Q348 0 336 0H113Q101 0 101 12V53Q101 65 113 65H183V619H78V503Q78 491 66 491H21Q9 491 9 503V672Q9 686 23 686H425Q439
686 439 671V503Z" />
<glyph unicode="U" glyph-name="U" horiz-adv-x="611" d="M594 633Q594 621 582 621H518V184Q518 92 468 43Q409 -14 300 -14Q94 -14 94 184V621H31Q19 621 19 633V674Q19 686 31 686H240Q252 686 252 674V633Q252 621 240 621H176V187Q176 114 205 84T304 53Q439
53 439 187V621H376Q364 621 364 633V674Q364 686 376 686H582Q594 686 594 674V633Z" />
<glyph unicode="V" glyph-name="V" horiz-adv-x="500" d="M513 633Q513 621 501 621H464L299 11Q296 0 284 0H214Q202 0 199 11L36 621H-5Q-17 621 -17 633V674Q-17 686 -5 686H182Q194 686 194 674V633Q194 621 182 621H122L234 154Q236 142 241 118L245 98L249
75Q256 118 264 152L380 621H326Q314 621 314 633V674Q314 686 326 686H501Q513 686 513 674V633Z" />
<glyph unicode="W" glyph-name="W" horiz-adv-x="704" d="M717 633Q717 621 705 621H663L533 12Q530 0 519 0H453Q440 0 438 12L353 558L249 12Q247 0 235 0H173Q160 0 158 12L42 621H-1Q-13 621 -13 633V674Q-13 686 -1 686H187Q199 686 199 674V633Q199 621
187 621H123L199 187Q204 159 208 69Q210 110 219 184L316 674Q318 686 331 686H384Q397 686 399 674L481 180Q487 146 492 65Q493 101 501 180L582 621H519Q507 621 507 633V674Q507 686 519 686H705Q717 686 717 674V633Z" />
<glyph unicode="X" glyph-name="X" horiz-adv-x="519" d="M524 12Q524 0 512 0H320Q308 0 308 12V53Q308 65 320 65H374L279 244Q267 267 258 292L253 280Q249 271 237 245L143 65H196Q208 65 208 53V12Q208 0 196 0H5Q-6 0 -6 12V53Q-6 65 5 65H53L211 358L67
621H21Q9 621 9 633V674Q9 686 21 686H213Q225 686 225 674V633Q225 621 213 621H157L235 477Q245 458 259 425Q270 453 286 482L360 621H313Q301 621 301 633V674Q301 686 313 686H495Q507 686 507 674V633Q507 621 495 621H449L303 360L466 65H512Q524 65 524
53V12Z" />
<glyph unicode="Y" glyph-name="Y" horiz-adv-x="481" d="M509 633Q509 621 497 621H455L285 291V65H355Q367 65 367 53V12Q367 0 355 0H132Q120 0 120 12V53Q120 65 132 65H203V289L27 621H-11Q-23 621 -23 633V674Q-23 686 -11 686H181Q193 686 193 674V633Q193
621 181 621H123L219 424Q234 393 246 362Q256 389 273 425L365 621H305Q293 621 293 633V674Q293 686 305 686H497Q509 686 509 674V633Z" />
<glyph unicode="Z" glyph-name="Z" horiz-adv-x="482" d="M475 132Q475 131 474 127L432 12Q428 0 415 0H56Q42 0 42 14V66L336 616H136V541Q136 529 124 529H79Q67 529 67 541V671Q67 686 82 686H418Q432 686 432 672V624L137 71H376L405 152Q408 160 414 160Q418
160 420 159L467 142Q475 139 475 132Z" />
<glyph unicode="[" glyph-name="bracketleft" horiz-adv-x="370" d="M316 -191Q316 -205 302 -205H130Q116 -205 116 -191V701Q116 715 130 715H302Q316 715 316 701V667Q316 653 302 653H193V-143H302Q316 -143 316 -157V-191Z" />
<glyph unicode="\" glyph-name="backslash" horiz-adv-x="500" d="M522 -222Q522 -229 508 -229H470Q457 -229 453 -219L66 711Q63 718 63 721Q63 728 76 728H116Q128 728 132 718L519 -212Q522 -219 522 -222Z" />
<glyph unicode="]" glyph-name="bracketright" horiz-adv-x="370" d="M254 -191Q254 -205 240 -205H68Q54 -205 54 -191V-157Q54 -143 68 -143H177V653H67Q54 653 54 667V701Q54 715 67 715H240Q254 715 254 701V-191Z" />
<glyph unicode="^" glyph-name="asciicircum" horiz-adv-x="514" d="M503 385H426L277 632L130 385H53L232 688H325L503 385Z" />
<glyph unicode="_" glyph-name="underscore" horiz-adv-x="514" d="M514 -127H0V-73H514V-127Z" />
<glyph unicode="`" glyph-name="grave" horiz-adv-x="500" d="M305 580Q305 578 300 571L288 554Q286 549 281 549Q277 549 271 552L108 637Q99 642 99 647Q99 650 103 656L132 698Q138 706 142 706Q145 706 152 701L297 590Q305 584 305 580Z" />
<glyph unicode="a" glyph-name="a" horiz-adv-x="463" d="M449 12Q449 0 437 0H352Q329 0 314 53Q250 -10 170 -10Q110 -10 75 27T40 127Q40 297 303 301V334Q303 382 283 402T213 423Q162 423 98 394Q92 392 91 392Q86 392 84 397L69 437L68 445Q68 459 122 475T225
491Q378 491 378 351V162Q378 98 390 62H437Q449 62 449 50V12ZM303 110V239Q117 238 117 133Q117 98 137 76T188 53Q237 53 303 110Z" />
<glyph unicode="b" glyph-name="b" horiz-adv-x="500" d="M449 272Q449 -14 265 -14Q194 -14 138 35Q119 -10 105 -10Q101 -9 97 -7L55 20Q52 22 52 25Q52 28 55 32Q83 70 83 137V655H23Q11 655 11 667V705Q11 717 23 717H150Q159 717 159 708V445Q230 494 290
494Q449 494 449 272ZM368 261Q368 349 346 388T275 428Q232 428 158 378V93Q206 54 260 54Q368 54 368 261Z" />
<glyph unicode="c" glyph-name="c" horiz-adv-x="426" d="M396 38Q396 33 378 24Q305 -14 238 -14Q150 -14 100 50T50 230Q50 352 104 423T253 494Q323 494 382 456Q393 449 393 437V351Q393 339 381 339H339Q327 339 327 351V408Q284 428 254 428Q199 428 169
389Q134 344 134 241Q134 54 248 54Q298 54 364 92Q370 94 371 94Q375 94 377 88L394 46Q396 41 396 38Z" />
<glyph unicode="d" glyph-name="d" horiz-adv-x="518" d="M497 12Q497 0 486 0H397Q376 0 367 51Q277 -14 211 -14Q136 -14 94 55T51 245Q51 361 99 427T232 494Q286 494 347 462V655H279Q267 655 267 667V705Q267 717 279 717H411Q422 716 422 706V158Q422 95
435 62H486Q497 62 497 50V12ZM347 112V395Q288 427 241 427Q183 427 158 385T132 249Q132 145 154 100T228 54Q283 54 347 112Z" />
<glyph unicode="e" glyph-name="e" horiz-adv-x="463" d="M431 241Q431 223 420 223H133Q141 54 265 54Q318 54 381 90Q386 93 391 93Q395 93 398 88L416 49Q418 45 418 42Q418 31 382 14Q322 -14 259 -14Q164 -14 108 54T51 239Q51 355 105 424T249 494Q375 494
416 374Q431 330 431 241ZM350 285Q347 433 244 433Q142 433 133 285H350Z" />
<glyph unicode="f" glyph-name="f" horiz-adv-x="296" d="M351 689L350 683L333 642Q331 636 325 636Q322 636 316 639Q273 660 238 660Q201 660 187 631Q178 613 178 557V480H323Q334 480 334 473Q334 471 332 467L319 427Q316 418 307 418H178V62H249Q261 62
261 50V12Q261 0 249 0H47Q35 0 35 12V50Q35 62 47 62H103V418H37Q25 418 25 429V468Q25 480 37 480H103V558Q103 639 129 674Q167 724 241 724Q276 724 313 712T351 689Z" />
<glyph unicode="g" glyph-name="g" horiz-adv-x="500" d="M444 462Q444 459 438 449Q413 409 413 348V194Q413 115 418 23Q420 -14 420 -35Q420 -211 244 -211Q163 -211 94 -174Q76 -164 76 -157Q76 -154 78 -150L96 -110Q99 -104 103 -104Q107 -104 111 -107Q180
-144 241 -144Q305 -144 330 -108Q345 -86 345 -35Q345 -12 344 15T343 68Q278 13 205 13Q134 13 93 73T51 236Q51 360 100 427T239 494Q298 494 359 452Q375 498 387 498Q391 498 395 496L440 468Q444 466 444 462ZM338 130V400Q283 428 244 428Q129 428 129 254Q129
81 219 81Q270 81 338 130Z" />
<glyph unicode="h" glyph-name="h" horiz-adv-x="537" d="M517 12Q517 0 506 0H385Q373 0 373 12V345Q373 393 359 411T305 429Q248 429 172 366V62H229Q241 62 241 50V12Q241 0 229 0H40Q28 0 28 12V50Q28 62 40 62H97V655H36Q24 655 24 667V705Q24 717 36 717H162Q172
717 172 706V428Q245 494 326 494Q408 494 436 436Q449 409 449 343V62H506Q517 62 517 50V12Z" />
<glyph unicode="i" glyph-name="i" horiz-adv-x="278" d="M205 655Q205 630 188 613T145 595Q120 595 102 613T84 656Q84 681 102 698T146 716Q170 716 187 698T205 655ZM272 12Q272 0 260 0H40Q28 0 28 12V50Q28 62 40 62H112V418H32Q21 418 21 429V468Q21 480
32 480H176Q187 480 187 468V62H260Q272 62 272 50V12Z" />
<glyph unicode="j" glyph-name="j" horiz-adv-x="259" d="M197 655Q197 630 180 613T137 595Q112 595 94 613T76 656Q76 681 94 698T138 716Q162 716 179 698T197 655ZM181 -53Q181 -132 148 -168Q108 -212 37 -212Q1 -212 -42 -198T-86 -173Q-86 -169 -84 -165L-65
-125Q-63 -119 -57 -119Q-56 -119 -50 -121Q-2 -146 40 -146Q86 -146 98 -113Q106 -91 106 -35V418H26Q15 418 15 429V468Q15 480 26 480H170Q181 480 181 468V-53Z" />
<glyph unicode="k" glyph-name="k" horiz-adv-x="500" d="M496 12Q496 0 484 0H391Q381 0 374 8L172 246V62H229Q241 62 241 50V12Q241 0 229 0H41Q29 0 29 12V50Q29 62 41 62H97V655H36Q24 655 24 667V705Q24 717 36 717H161Q172 716 172 706V260L331 422H282Q270
422 270 434V468Q270 480 282 480H471Q483 480 483 468V430Q483 418 471 418H420L258 260L432 62H484Q496 62 496 50V12Z" />
<glyph unicode="l" glyph-name="l" horiz-adv-x="259" d="M265 15Q265 7 237 -1T180 -10Q94 -10 78 60Q73 82 73 183V655H12Q0 655 0 667V705Q0 717 12 717H138Q148 717 148 706V181Q148 112 151 90Q156 52 191 52Q212 52 236 64Q242 66 244 66Q249 66 251 59L263
22Q265 16 265 15Z" />
<glyph unicode="m" glyph-name="m" horiz-adv-x="741" d="M721 12Q721 0 709 0H590Q579 0 579 12V356Q579 429 515 429Q472 429 414 389V62H470Q482 62 482 50V12Q482 0 470 0H350Q339 0 339 12V355Q339 429 275 429Q232 429 174 386V62H232Q244 62 244 50V12Q244
0 232 0H44Q32 0 32 12V50Q32 62 44 62H100V371Q100 397 92 418H37Q25 418 25 430V468Q25 480 37 480H134Q149 480 163 434Q237 494 304 494Q376 494 400 435Q482 494 546 494Q611 494 636 450Q653 420 653 353V62H709Q721 62 721 50V12Z" />
<glyph unicode="n" glyph-name="n" horiz-adv-x="537" d="M517 12Q517 0 505 0H385Q374 0 374 12V346Q374 429 307 429Q246 429 176 366V62H232Q244 62 244 50V12Q244 0 232 0H44Q32 0 32 12V50Q32 62 44 62H100V355Q100 393 94 418H37Q25 418 25 430V468Q25 480
37 480H138Q157 480 169 426Q253 494 330 494Q405 494 432 446Q449 416 449 345V62H505Q517 62 517 50V12Z" />
<glyph unicode="o" glyph-name="o" horiz-adv-x="500" d="M449 243Q449 122 395 54T244 -14Q153 -14 102 52T51 238Q51 359 105 426T256 494Q347 494 398 428T449 243ZM368 244Q368 431 249 431Q132 431 132 248Q132 145 163 93Q189 49 251 49Q310 49 336 91Q368
143 368 244Z" />
<glyph unicode="p" glyph-name="p" horiz-adv-x="500" d="M449 250Q449 127 405 57T283 -14Q227 -14 165 30V-140H228Q240 -140 240 -152V-190Q240 -202 228 -202H32Q20 -202 20 -190V-152Q20 -140 32 -140H90V341Q90 393 80 418H25Q14 418 14 430V468Q14 480
25 480H113Q128 480 134 473T151 435Q226 494 295 494Q382 494 415 426T449 250ZM368 247Q368 334 353 375Q334 427 281 427Q237 427 165 378V96Q229 54 274 54Q325 54 346 98T368 247Z" />
<glyph unicode="q" glyph-name="q" horiz-adv-x="500" d="M489 -190Q489 -202 477 -202H280Q268 -202 268 -190V-152Q268 -140 280 -140H343V45Q280 -14 210 -14Q137 -14 94 52T51 233Q51 355 99 424T231 494Q297 494 364 446Q384 496 394 496Q397 496 400 494L442
469Q447 466 447 461Q447 459 445 454L441 446Q419 399 419 347V-140H477Q489 -140 489 -152V-190ZM343 111V389Q284 427 237 427Q132 427 132 242Q132 139 161 92Q185 54 230 54Q279 54 343 111Z" />
<glyph unicode="r" glyph-name="r" horiz-adv-x="333" d="M335 478Q335 475 333 470L309 415Q306 411 304 411Q303 411 300 412Q276 419 270 419Q240 419 175 343V62H239Q251 62 251 50V12Q251 0 239 0H43Q32 0 32 12V50Q32 62 43 62H100V312Q100 384 89 418H36Q24
418 24 430V468Q24 480 36 480H126Q152 480 165 410Q186 434 205 454Q244 494 285 494Q301 494 318 489T335 478Z" />
<glyph unicode="s" glyph-name="s" horiz-adv-x="389" d="M355 129Q355 64 312 25T195 -14Q148 -14 95 3T42 36V129Q42 141 54 141H96Q108 141 108 129V71Q159 51 198 51Q234 51 256 71T278 124Q278 169 214 198Q135 234 102 261Q56 298 56 355Q56 416 98 455T208
494Q269 494 326 465Q337 459 337 448V361Q337 349 325 349H283Q271 349 271 361V416Q237 430 207 430Q131 430 131 363Q131 333 151 314Q162 304 175 297T255 257Q311 230 333 202T355 129Z" />
<glyph unicode="t" glyph-name="t" horiz-adv-x="333" d="M335 30Q335 18 289 4T205 -10Q111 -10 89 63Q83 83 83 136V418H12Q0 418 0 429V468Q0 480 12 480H83V617Q83 627 93 630L145 644Q150 646 151 646Q158 646 158 634V480H308Q317 480 317 473Q317 471 316
467L305 428Q302 418 291 418H158V136Q158 88 168 75Q183 55 218 55Q249 55 308 80Q313 82 315 82Q320 82 322 76L333 35Q335 31 335 30Z" />
<glyph unicode="u" glyph-name="u" horiz-adv-x="537" d="M512 12Q512 0 500 0H413Q392 0 377 47Q302 -14 229 -14Q91 -14 91 120V418H35Q23 418 23 430V468Q23 480 35 480H154Q166 480 166 468V170Q166 104 181 79T238 54Q306 54 364 106V418H303Q291 418 291
430V468Q291 480 303 480H427Q439 480 439 468V133Q439 92 448 62H500Q512 62 512 50V12Z" />
<glyph unicode="v" glyph-name="v" horiz-adv-x="444" d="M454 430Q454 418 442 418H413L248 2Q244 -7 235 -7H196Q187 -7 184 2L31 418H-2Q-14 418 -14 430V468Q-14 480 -2 480H167Q179 480 179 468V434Q179 422 167 422H112L218 91Q225 117 238 153L335 422H276Q264
422 264 434V468Q264 480 276 480H442Q454 480 454 468V430Z" />
<glyph unicode="w" glyph-name="w" horiz-adv-x="630" d="M647 430Q647 418 635 418H596L476 3Q473 -7 463 -7H425Q415 -7 412 3L334 306Q330 321 324 364L321 385Q318 349 305 307L211 2Q208 -7 199 -7H162Q151 -7 149 3L46 418H9Q-3 418 -3 430V468Q-3 480 9
480H183Q195 480 195 468V434Q195 422 183 422H118L179 133Q180 128 186 94Q187 104 198 149L293 473Q296 482 305 482H345Q356 482 358 473L447 97Q448 103 455 136L526 422H472Q460 422 460 434V468Q460 480 472 480H635Q647 480 647 468V430Z" />
<glyph unicode="x" glyph-name="x" horiz-adv-x="482" d="M467 12Q467 0 456 0H295Q283 0 283 12V46Q283 58 295 58H331L270 151Q267 155 260 166L250 182L244 193Q239 186 230 171Q226 165 217 153L151 58H197Q209 58 209 46V12Q209 0 197 0H28Q16 0 16 12V50Q16
62 28 62H65L205 245L83 418H38Q26 418 26 430V468Q26 480 38 480H205Q217 480 217 468V434Q217 422 205 422H167L214 350Q223 337 244 302Q250 311 262 330Q264 333 276 350L326 422H288Q276 422 276 434V468Q276 480 288 480H444Q456 480 456 468V430Q456 418
444 418H409L285 254L418 62H456Q467 62 467 50V12Z" />
<glyph unicode="y" glyph-name="y" horiz-adv-x="444" d="M467 430Q467 418 455 418H418L316 62Q280 -63 249 -129Q210 -211 129 -211Q92 -211 47 -193T2 -161Q2 -158 4 -155L24 -115Q26 -110 31 -110Q34 -110 38 -113Q90 -148 127 -148Q177 -148 204 -63L224
0H188Q179 0 176 9L31 418H-9Q-21 418 -21 430V468Q-21 480 -9 480H174Q186 480 186 468V434Q186 422 174 422H110L220 101Q228 77 240 29Q249 70 256 99L340 422H281Q269 422 269 434V468Q269 480 281 480H455Q467 480 467 468V430Z" />
<glyph unicode="z" glyph-name="z" horiz-adv-x="426" d="M419 123L418 116L375 9Q371 0 361 0H49Q37 0 37 12V52L291 418H124V347Q124 335 112 335H70Q58 335 58 347V468Q58 480 69 480H373Q384 480 384 468V427L135 65H322L353 142Q356 150 362 150Q365 150
368 149L411 132Q419 129 419 123Z" />
<glyph unicode="{" glyph-name="braceleft" horiz-adv-x="426" d="M374 -191Q374 -205 360 -205H341Q254 -205 214 -169T174 -53V145Q174 193 154 213T86 234H66Q52 234 52 248V282Q52 296 66 296H85Q133 296 153 316T174 385V563Q174 642 214 678T341 715H360Q374
715 374 701V667Q374 653 360 653H343Q292 653 271 633T250 564V386Q250 338 235 311T181 265Q220 245 235 219T250 144V-54Q250 -101 270 -122T337 -143H360Q374 -143 374 -157V-191Z" />
<glyph unicode="|" glyph-name="bar" horiz-adv-x="514" d="M319 -171H237V686H319V-171Z" />
<glyph unicode="}" glyph-name="braceright" horiz-adv-x="426" d="M374 228Q374 214 360 214H340Q293 214 273 194T252 125V-53Q252 -132 212 -168T85 -205H66Q52 -205 52 -191V-157Q52 -143 66 -143H83Q134 -143 155 -123T176 -54V124Q176 172 191 198T245 245Q205
266 191 292T176 366V564Q176 611 156 632T89 653H66Q52 653 52 667V701Q52 715 66 715H85Q172 715 212 679T252 563V365Q252 317 272 297T340 276H360Q374 276 374 262V228Z" />
<glyph unicode="~" glyph-name="asciitilde" horiz-adv-x="686" d="M611 715Q555 598 472 598Q436 598 354 639Q286 673 254 673Q206 673 162 597L118 631Q174 747 257 747Q296 747 375 707Q444 672 473 672Q524 672 567 749L611 715Z" />
</font>
</defs>
</svg>
