<?xml version="1.0" standalone="no"?>
<!DOCTYPE svg PUBLIC "-//W3C//DTD SVG 1.1//EN" "http://www.w3.org/Graphics/SVG/1.1/DTD/svg11.dtd" >
<svg xmlns="http://www.w3.org/2000/svg">
<metadata></metadata>
<defs>
<font id="urwgroteskregular" horiz-adv-x="1153" >
<font-face units-per-em="2048" ascent="1434" descent="-614" />
<missing-glyph horiz-adv-x="512" />
<glyph unicode="&#xfb01;" horiz-adv-x="1105" d="M27 731v187h125v110q0 406 342 406q57 0 155 -19l-20 -196q-48 26 -86 26q-78 0 -121 -58.5t-43 -164.5v-104h227v-187h-227v-731h-227v731h-125zM709 1249q0 56 39 94.5t96 38.5q58 0 96.5 -38t38.5 -97q0 -57 -39 -96t-96 -39q-58 0 -96.5 39t-38.5 98zM739 0v918h228 v-918h-228z" />
<glyph unicode="&#xfb02;" horiz-adv-x="1110" d="M27 731v187h125v110q0 406 342 406q57 0 155 -19l-20 -196q-48 26 -86 26q-78 0 -121 -58.5t-43 -164.5v-104h227v-187h-227v-731h-227v731h-125zM743 0v1434h228v-1434h-228z" />
<glyph unicode="&#xfb03;" horiz-adv-x="1697" d="M27 731v187h125v110q0 406 344 406q55 0 153 -19l-20 -196q-48 26 -86 26q-78 0 -121 -58.5t-43 -164.5v-104h362v100q0 416 332 416q54 0 146 -19l-21 -196q-40 24 -76 24q-74 0 -113.5 -59.5t-39.5 -171.5v-94h229v-187h-229v-731h-228v731h-362v-731h-227v731h-125z M1300 1249q0 56 39.5 94.5t96.5 38.5q58 0 96.5 -38t38.5 -97q0 -57 -39 -96t-96 -39q-58 0 -97 39t-39 98zM1329 0v918h227v-918h-227z" />
<glyph unicode="&#xfb04;" horiz-adv-x="1701" d="M27 731v187h125v110q0 406 344 406q55 0 153 -19l-20 -196q-48 26 -86 26q-78 0 -121 -58.5t-43 -164.5v-104h362v100q0 416 332 416q54 0 146 -19l-21 -196q-40 24 -76 24q-74 0 -113.5 -59.5t-39.5 -171.5v-94h229v-187h-229v-731h-228v731h-362v-731h-227v731h-125z M1333 0v1434h228v-1434h-228z" />
<glyph horiz-adv-x="2048" />
<glyph horiz-adv-x="2048" />
<glyph unicode="&#xd;" horiz-adv-x="2048" />
<glyph unicode=" "  horiz-adv-x="512" />
<glyph unicode="&#x09;" horiz-adv-x="512" />
<glyph unicode="&#xa0;" horiz-adv-x="512" />
<glyph unicode="!" horiz-adv-x="546" d="M133 115q0 57 40.5 97t98.5 40q59 0 99.5 -40.5t40.5 -98.5q0 -59 -41 -99.5t-99 -40.5q-59 0 -99 41t-40 101zM160 999v367h227v-367l-41 -573h-145z" />
<glyph unicode="&#x22;" horiz-adv-x="729" d="M100 1366h207l-33 -549h-141zM422 1366h205l-33 -549h-141z" />
<glyph unicode="#" horiz-adv-x="929" d="M31 287l30 155h160l105 516h-168l30 154h164l51 254h93l-52 -254h205l49 254h95l-52 -254h162l-29 -154h-159l-99 -516h164l-28 -155h-162l-55 -287h-99l58 287h-205l-56 -287h-98l60 287h-164zM319 442h203l99 516h-203z" />
<glyph unicode="$" horiz-adv-x="1193" d="M74 248l223 114q44 -175 219 -196v424q-202 68 -291.5 163t-89.5 242q0 157 104.5 261.5t276.5 119.5v152h109v-150q143 0 241 -62t138 -179l-211 -99q-22 78 -60 114.5t-108 43.5v-399q426 -138 426 -416q0 -93 -49 -180.5t-130 -139.5q-50 -32 -105 -49t-142 -26v-219 h-109v217q-170 0 -273.5 62t-168.5 202zM367 1022q0 -128 149 -184v356q-65 -6 -107 -54.5t-42 -117.5zM625 166q83 7 129.5 57.5t46.5 132.5q0 64 -47 116.5t-129 80.5v-387z" />
<glyph unicode="%" horiz-adv-x="1540" d="M141 -199l1078 1653l100 -20l-1073 -1649zM143 1044q0 159 78 243.5t225 84.5q148 0 225 -84.5t77 -247.5q0 -160 -77.5 -241.5t-228.5 -81.5q-148 0 -223.5 83t-75.5 244zM305 1049q0 -228 141 -228q142 0 142 223q0 226 -142 226q-141 0 -141 -221zM791 326 q0 159 78 243t225 84q148 0 224.5 -85t76.5 -249q0 -160 -77 -241.5t-228 -81.5q-148 0 -223.5 83.5t-75.5 246.5zM952 328q0 -228 142 -228q141 0 141 226q0 225 -141 225q-142 0 -142 -223z" />
<glyph unicode="&#x26;" horiz-adv-x="1409" d="M84 395q0 131 70 219.5t219 143.5q-54 83 -76.5 148t-22.5 136q0 157 106.5 254t278.5 97q152 0 242 -79.5t90 -213.5q0 -147 -100 -252q-40 -40 -82.5 -68t-124.5 -67q125 -166 279 -291q47 76 66.5 141.5t19.5 145.5v24h235q-8 -122 -41.5 -216t-109.5 -206 q65 -41 110 -60t152 -50l-146 -209q-99 40 -151.5 67.5t-126.5 81.5q-110 -91 -207.5 -129.5t-216.5 -38.5q-202 0 -332.5 118.5t-130.5 303.5zM322 395q0 -96 73 -163.5t176 -67.5q69 0 124 23.5t118 80.5q-89 69 -178.5 162t-155.5 186q-157 -79 -157 -221zM481 1057 q0 -52 19 -100t65 -111q96 44 140 78q41 32 65.5 78.5t24.5 93.5q0 66 -39 105.5t-105 39.5q-77 0 -123.5 -50.5t-46.5 -133.5z" />
<glyph unicode="'" horiz-adv-x="407" d="M100 1366h207l-33 -549h-141z" />
<glyph unicode="(" horiz-adv-x="600" d="M92 498q0 366 113 643q34 82 74 145t112 148l148 -9q-65 -85 -96.5 -146.5t-59.5 -154.5q-80 -265 -80 -606q0 -353 78 -633q29 -105 61.5 -170t98.5 -153l-146 -8q-76 83 -118.5 150t-77.5 161q-107 284 -107 633z" />
<glyph unicode=")" horiz-adv-x="600" d="M59 1423l146 11q76 -83 118.5 -150.5t77.5 -161.5q107 -276 107 -633q0 -366 -113 -643q-32 -81 -72 -144t-114 -148l-146 8q63 85 95 146.5t61 154.5q80 262 80 606q0 349 -78 633q-29 103 -62 168.5t-100 152.5z" />
<glyph unicode="*" horiz-adv-x="841" d="M72 1157l16 45l274 -59l35 297h45l35 -297l275 59l16 -45l-260 -125l149 -241l-34 -31l-203 213l-205 -213l-37 31l152 241z" />
<glyph unicode="+" horiz-adv-x="1138" d="M51 397v117h453v463h125v-463h458v-117h-458v-456h-125v456h-453z" />
<glyph unicode="," horiz-adv-x="509" d="M41 -287l72 207q45 128 45 197v162h209v-240l-199 -318z" />
<glyph unicode="-" horiz-adv-x="471" d="M0 414v157h471v-157h-471z" />
<glyph unicode="." horiz-adv-x="509" d="M115 115q0 57 40.5 97t98.5 40t98.5 -40t40.5 -99t-40.5 -99.5t-98.5 -40.5q-59 0 -99 41t-40 101z" />
<glyph unicode="/" horiz-adv-x="851" d="M-39 -449l705 1903l116 -20l-702 -1901z" />
<glyph unicode="0" d="M84 680q0 350 127 531.5t373 181.5q232 0 357.5 -184.5t125.5 -526.5q0 -344 -127 -526.5t-365 -182.5t-364.5 182t-126.5 525zM324 678q0 -252 64.5 -386t186.5 -134q123 0 187.5 134.5t64.5 389.5q0 254 -63.5 390t-183.5 136q-124 0 -181 -112q-75 -144 -75 -418z" />
<glyph unicode="1" d="M223 997v144q194 15 285 62.5t143 162.5h172v-1366h-237v1018z" />
<glyph unicode="2" d="M133 0v176q235 215 361.5 357t180.5 251t54 220q0 89 -48 139.5t-134 50.5q-46 0 -85.5 -19.5t-62.5 -54.5q-20 -30 -30 -64t-21 -104l-207 119q32 95 59 143.5t68 88.5q100 90 283 90q202 0 311 -94t109 -269q0 -180 -125 -366q-72 -104 -153 -196.5t-255 -270.5h582 v-197h-887z" />
<glyph unicode="3" d="M74 242l207 106q37 -95 92.5 -137.5t142.5 -42.5q103 0 166 66.5t63 175.5q0 103 -66.5 164t-176.5 61q-25 0 -103 -8v192q16 -2 37 -2q115 0 183.5 58.5t68.5 156.5q0 82 -43.5 128t-120.5 46q-72 0 -115.5 -40t-66.5 -128l-205 90q51 143 139 204t246 61 q189 0 299.5 -89t110.5 -243q0 -206 -199 -318q69 -17 107 -37.5t73 -60.5q80 -89 80 -223q0 -204 -133 -326.5t-354 -122.5q-193 0 -305 95q-33 30 -59.5 66.5t-67.5 107.5z" />
<glyph unicode="4" d="M78 295v184l559 887h260v-887h184v-184h-184v-295h-223v295h-596zM289 479h385v658z" />
<glyph unicode="5" d="M92 231l209 101q67 -170 223 -170q116 0 191.5 82.5t75.5 208.5q0 120 -61 190t-167 70q-63 0 -106 -25t-86 -86l-195 70l94 694h715v-186h-528l-58 -367q57 46 111 65t127 19q181 0 291 -115.5t110 -304.5q0 -230 -140 -367t-376 -137q-157 0 -261.5 62.5t-168.5 195.5z " />
<glyph unicode="6" d="M123 594q0 380 148.5 589.5t416.5 209.5q102 0 166.5 -27.5t142.5 -103.5l-129 -156q-33 59 -73.5 83.5t-104.5 24.5q-77 0 -141 -41.5t-107 -119.5q-33 -58 -49.5 -129t-25.5 -193q69 72 138.5 103.5t160.5 31.5q173 0 274.5 -113t101.5 -307q0 -212 -123 -342.5 t-321 -130.5q-119 0 -215 49t-158 140q-102 152 -102 432zM365 426q0 -123 58.5 -195.5t158.5 -72.5q103 0 163 73t60 197q0 126 -54 193t-155 67q-107 0 -169 -70t-62 -192z" />
<glyph unicode="7" d="M143 1180v186h879v-170l-551 -1196h-256l549 1180h-621z" />
<glyph unicode="8" d="M115 397q0 154 75 250q27 33 57.5 54t86.5 44q-92 60 -133 128t-41 163q0 167 110 262t305 95q196 0 307 -95t111 -262q0 -95 -41 -164t-133 -127q57 -23 87.5 -43.5t56.5 -54.5q75 -96 75 -250q0 -196 -120 -313q-117 -111 -340 -111q-225 0 -342 111q-121 118 -121 313 zM350 403q0 -115 61 -181t167 -66q104 0 164.5 66t60.5 181q0 114 -59.5 179t-163.5 65q-110 0 -170 -63.5t-60 -180.5zM385 1018q0 -93 50.5 -147t137.5 -54q92 0 143.5 53t51.5 148q0 91 -51 142.5t-142 51.5q-89 0 -139.5 -51.5t-50.5 -142.5z" />
<glyph unicode="9" d="M111 911q0 223 121.5 352.5t328.5 129.5q238 0 348.5 -150t110.5 -473q0 -415 -186 -627q-145 -170 -418 -170q-96 0 -155.5 18t-125.5 68l107 166q42 -41 81 -57t93 -16q73 0 140.5 32.5t111.5 89.5q49 62 71.5 133.5t40.5 210.5q-67 -70 -133.5 -100.5t-152.5 -30.5 q-177 0 -280 114.5t-103 309.5zM346 934q0 -129 52.5 -197.5t150.5 -68.5q104 0 166.5 72.5t62.5 195.5q0 131 -54.5 201.5t-154.5 70.5q-106 0 -164.5 -72t-58.5 -202z" />
<glyph unicode=":" horiz-adv-x="509" d="M115 115q0 57 40.5 97t98.5 40t98.5 -40t40.5 -99t-40.5 -99.5t-98.5 -40.5q-59 0 -99 41t-40 101zM115 764q0 57 40.5 97t98.5 40t98.5 -40.5t40.5 -98.5t-40.5 -98.5t-98.5 -40.5q-59 0 -99 40.5t-40 100.5z" />
<glyph unicode=";" horiz-adv-x="509" d="M33 -287l71 207q46 131 46 197v162h208v-240l-198 -318zM111 793q0 57 40.5 97t98.5 40q60 0 99.5 -39.5t39.5 -99.5q0 -59 -40.5 -99.5t-98.5 -40.5q-60 0 -99.5 41t-39.5 101z" />
<glyph unicode="&#x3c;" horiz-adv-x="1085" d="M37 418v86l944 370l66 -98l-805 -317l805 -318l-89 -100z" />
<glyph unicode="=" horiz-adv-x="1169" d="M61 260v119h1047v-119h-1047zM61 541v116h1047v-116h-1047z" />
<glyph unicode="&#x3e;" horiz-adv-x="1085" d="M37 137l805 318l-805 317l65 96l945 -368v-86l-922 -377z" />
<glyph unicode="?" horiz-adv-x="794" d="M41 1133q41 137 126 198.5t232 61.5q155 0 245.5 -81t90.5 -220q0 -108 -59 -203q-25 -40 -46 -62.5t-124 -119.5t-103 -183q0 -59 50 -125h-201q-51 68 -51 146q0 77 35.5 136t130.5 138q84 72 117.5 125.5t33.5 116.5q0 61 -39 100t-100 39t-96 -37t-52 -121zM207 115 q0 57 40.5 97t98.5 40t98.5 -40t40.5 -99t-40.5 -99.5t-98.5 -40.5q-59 0 -99 41t-40 101z" />
<glyph unicode="@" horiz-adv-x="1406" d="M55 547q0 155 53.5 288.5t147.5 227.5t227.5 147.5t288.5 53.5q256 0 409.5 -130.5t153.5 -347.5q0 -135 -55.5 -252.5t-149.5 -187.5t-202 -70q-112 0 -152 115q-51 -59 -99.5 -84.5t-109.5 -25.5q-97 0 -154 70t-57 188q0 189 102.5 324.5t243.5 135.5q62 0 104 -25.5 t71 -80.5l20 94h117l-92 -424q-17 -93 -17 -119q0 -38 20.5 -61t55.5 -23q95 0 168.5 126t73.5 290q0 186 -121 297t-322 111q-271 0 -442 -207q-150 -186 -150 -436q0 -220 136 -350t368 -130q130 0 235.5 39.5t209.5 126.5l-19 -86q-115 -90 -220.5 -129t-235.5 -39 q-132 0 -251 44t-202 124q-154 151 -154 406zM498 537q0 -88 26.5 -130t81.5 -42q88 0 150 108q31 55 55.5 152.5t24.5 160.5q0 66 -30.5 105t-82.5 39q-91 0 -158 -117.5t-67 -275.5z" />
<glyph unicode="A" horiz-adv-x="1269" d="M-18 0l528 1366h256l506 -1366h-258l-133 367h-521l-133 -367h-245zM428 547h391l-192 538z" />
<glyph unicode="B" horiz-adv-x="1210" d="M174 0v1366h461q105 0 169 -14t111 -47q63 -43 98.5 -112t35.5 -151q0 -97 -46 -169.5t-143 -129.5q66 -25 101.5 -47t66.5 -57q80 -89 80 -231q0 -106 -46.5 -196t-129.5 -144q-111 -68 -295 -68h-463zM416 188h139q287 0 287 226q0 72 -32.5 122t-92.5 72 q-50 19 -180 19h-121v-439zM416 803h98q145 0 203 41q71 52 71 160q0 93 -59 137q-29 22 -66 29.5t-108 7.5h-139v-375z" />
<glyph unicode="C" horiz-adv-x="1325" d="M92 678q0 329 190.5 523t514.5 194q218 0 336 -78q46 -29 83.5 -72.5t92.5 -132.5l-203 -123q-22 59 -41.5 89.5t-50.5 54.5q-90 69 -230 69q-198 0 -312 -141.5t-114 -390.5q0 -116 28.5 -213t82.5 -160q50 -60 135.5 -96.5t177.5 -36.5q139 0 232 74q29 24 48 53t44 86 l205 -123q-56 -85 -96.5 -129t-94.5 -76q-128 -78 -336 -78q-151 0 -278.5 41.5t-210.5 118.5q-95 86 -149 231t-54 316z" />
<glyph unicode="D" horiz-adv-x="1427" d="M174 0v1366h494q153 0 259 -27t183 -86q225 -170 225 -542q0 -209 -72 -369t-206 -246q-148 -96 -398 -96h-485zM420 193h215q193 0 293 92q70 63 107.5 171t37.5 246q0 143 -42 250.5t-118 161.5q-51 35 -108 47.5t-172 12.5h-213v-981z" />
<glyph unicode="E" horiz-adv-x="1077" d="M174 0v1366h756v-192h-510v-388h510v-186h-510v-407h586v-193h-832z" />
<glyph unicode="F" horiz-adv-x="964" d="M174 0v1366h748v-192h-502v-402h469v-186h-469v-586h-246z" />
<glyph unicode="G" horiz-adv-x="1419" d="M92 672q0 337 189 530t518 193q222 0 356 -92q44 -31 78 -69t84 -112l-205 -118q-29 61 -54 91.5t-65 53.5q-89 53 -205 53q-199 0 -315.5 -144t-116.5 -392q0 -122 32.5 -223t92.5 -162q54 -57 144.5 -89t195.5 -32q120 0 228 39v301h-324v190h567v-639 q-287 -80 -508 -80q-146 0 -272.5 41.5t-214.5 116.5q-98 86 -151.5 228t-53.5 315z" />
<glyph unicode="H" horiz-adv-x="1449" d="M174 0v1366h246v-578h610v578h246v-1366h-246v594h-610v-594h-246z" />
<glyph unicode="I" horiz-adv-x="593" d="M174 0v1366h246v-1366h-246z" />
<glyph unicode="J" horiz-adv-x="874" d="M-78 209l211 100q23 -72 62.5 -104.5t103.5 -32.5q113 0 152 98q18 48 18 181v915h246v-915q0 -135 -18.5 -208.5t-65.5 -129.5q-59 -68 -149.5 -105t-202.5 -37q-171 0 -259 78q-47 44 -98 160z" />
<glyph unicode="K" horiz-adv-x="1230" d="M174 0v1366h244v-596l518 596h281l-553 -635l622 -731h-321l-547 639v-639h-244z" />
<glyph unicode="L" horiz-adv-x="954" d="M174 0v1366h246v-1173h530v-193h-776z" />
<glyph unicode="M" horiz-adv-x="1822" d="M174 0v1366h289l448 -1004l451 1004h287v-1366h-238v946l-407 -946h-183l-409 946v-946h-238z" />
<glyph unicode="N" horiz-adv-x="1540" d="M174 0v1366h236l714 -983v983h242v-1366h-242l-708 975v-975h-242z" />
<glyph unicode="O" horiz-adv-x="1533" d="M92 694q0 362 213 545q179 156 461 156q280 0 461 -156q213 -184 213 -555q0 -190 -52 -326t-161 -231q-179 -156 -459 -156q-284 0 -463 156q-110 97 -161.5 233t-51.5 334zM358 690q0 -245 109.5 -385.5t298.5 -140.5q188 0 298 140.5t110 379.5q0 238 -110.5 378 t-297.5 140q-186 0 -297 -139.5t-111 -372.5z" />
<glyph unicode="P" horiz-adv-x="1089" d="M174 0v1366h434q119 0 186.5 -16t123.5 -58q139 -105 139 -305q0 -121 -55.5 -217t-155.5 -147q-118 -62 -318 -62h-108v-561h-246zM420 756h106q137 0 204 53.5t67 163.5q0 125 -84 174q-47 27 -160 27h-133v-418z" />
<glyph unicode="Q" horiz-adv-x="1533" d="M92 682q0 355 189 535q184 178 489 178q292 0 473 -166q199 -184 199 -547q0 -347 -182 -526q-44 -42 -91.5 -72t-132.5 -68l744 -196l-187 -170l-954 332q-547 107 -547 700zM358 690q0 -246 108.5 -386t299.5 -140q189 0 298.5 139.5t109.5 380.5q0 239 -109.5 378.5 t-298.5 139.5q-186 0 -297 -139t-111 -373z" />
<glyph unicode="R" horiz-adv-x="1222" d="M174 0v1366h401q124 0 187.5 -9t116.5 -34q84 -41 132 -127t48 -195q0 -158 -98 -270q-31 -34 -64 -56.5t-94 -51.5l385 -623h-289l-340 582h-141v-582h-244zM418 768h106h6q15 -1 29 -1q105 1 168 53q72 60 72 169q0 137 -115 172q-23 7 -47 8.5t-123 1.5h-96v-403z" />
<glyph unicode="S" horiz-adv-x="1071" d="M39 227l205 127q35 -94 101.5 -143t158.5 -49q97 0 156 54.5t59 143.5q0 63 -30 104.5t-105 82.5q-23 12 -127 59q-169 76 -244 154q-100 105 -100 250q0 170 124.5 277.5t319.5 107.5q151 0 248.5 -53t157.5 -168l-195 -121q-34 83 -87 122t-132 39q-80 0 -133.5 -51 t-53.5 -127q0 -86 72 -137q24 -18 45 -28.5t144 -67.5q181 -83 254 -148q106 -95 106 -262q0 -192 -132.5 -307t-352.5 -115q-189 0 -316 84q-51 34 -81 70t-62 102z" />
<glyph unicode="T" horiz-adv-x="954" d="M-31 1176v190h1016v-190h-387v-1176h-246v1176h-383z" />
<glyph unicode="U" horiz-adv-x="1429" d="M160 561v805h246v-807q0 -121 9.5 -178t37.5 -100q35 -55 104.5 -86t157.5 -31q94 0 166 36.5t106 100.5q20 40 27.5 94.5t7.5 163.5v807h246v-805q0 -156 -17 -237.5t-63 -149.5q-67 -99 -188.5 -151t-284.5 -52q-179 0 -306 60t-188 174q-35 64 -48 139.5t-13 216.5z " />
<glyph unicode="V" horiz-adv-x="1230" d="M-10 1366h264l362 -1020l416 1020h240l-565 -1366h-220z" />
<glyph unicode="W" horiz-adv-x="1906" d="M12 1366h250l273 -967l329 967h191l282 -973l336 973h232l-465 -1366h-211l-287 958l-332 -958h-213z" />
<glyph unicode="X" d="M-6 0l436 705l-412 661h293l275 -444l262 444h266l-399 -645l446 -721h-297l-297 494l-295 -494h-278z" />
<glyph unicode="Y" horiz-adv-x="1071" d="M-63 1366h280l334 -553l323 553h254l-469 -778v-588h-245v582z" />
<glyph unicode="Z" horiz-adv-x="1064" d="M4 0v184l711 990h-641v192h932v-192l-703 -979h778v-195h-1077z" />
<glyph unicode="[" horiz-adv-x="587" d="M145 -446v1880h377v-99l-196 -22v-1643l196 -18v-98h-377z" />
<glyph unicode="\" horiz-adv-x="851" d="M70 1434l118 20l703 -1903l-117 -18z" />
<glyph unicode="]" horiz-adv-x="587" d="M66 -348l196 22v1643l-196 18v99h376v-1880h-376v98z" />
<glyph unicode="^" horiz-adv-x="901" d="M102 926l295 504h90l314 -504l-117 -35l-238 385l-229 -385z" />
<glyph unicode="_" d="M0 -121h1153v-115h-1153v115z" />
<glyph unicode="`" horiz-adv-x="1024" d="M137 1382l201 64l297 -350l-90 -19z" />
<glyph unicode="a" horiz-adv-x="1148" d="M86 457q0 221 116.5 352t313.5 131q88 0 145 -28.5t121 -104.5v111h228v-918h-228v104q-62 -66 -129.5 -96.5t-156.5 -30.5q-83 0 -160.5 34t-132.5 95q-117 129 -117 351zM330 461q0 -141 61.5 -224t167.5 -83t167.5 82.5t61.5 222.5q0 139 -62.5 222t-166.5 83 q-103 0 -166 -83.5t-63 -219.5z" />
<glyph unicode="b" horiz-adv-x="1150" d="M139 0v1434h228v-619q67 66 135 95.5t151 29.5q82 0 162 -35t135 -96q115 -127 115 -346q0 -215 -115.5 -350.5t-298.5 -135.5q-84 0 -150 29.5t-134 95.5l-72 -102h-156zM360 461q0 -140 63 -223.5t169 -83.5q104 0 166.5 82.5t62.5 220.5q0 140 -61.5 222.5 t-167.5 82.5q-103 0 -167.5 -83t-64.5 -218z" />
<glyph unicode="c" horiz-adv-x="966" d="M86 457q0 226 124 354.5t341 128.5q193 0 297 -96q37 -34 57 -73.5t33 -108.5l-211 -72q-4 97 -44 142.5t-120 45.5q-109 0 -171 -86t-62 -237q0 -145 59 -229.5t160 -84.5q72 0 111 37t65 131l219 -59q-27 -79 -54.5 -122t-72.5 -75q-115 -76 -278 -76 q-211 0 -332 128.5t-121 351.5z" />
<glyph unicode="d" horiz-adv-x="1148" d="M86 457q0 220 115 350q59 63 139 98t166 35t151 -29t125 -94v617h228v-1434h-228v100q-68 -65 -134 -94t-150 -29q-85 0 -162.5 34t-132.5 95q-117 129 -117 351zM330 461q0 -141 61.5 -224t167.5 -83t167.5 81.5t61.5 221.5q0 139 -62.5 222t-166.5 83q-103 0 -166 -83 t-63 -218z" />
<glyph unicode="e" horiz-adv-x="1034" d="M86 457q0 224 122.5 353.5t336.5 129.5q310 0 381 -266q15 -60 19.5 -105t4.5 -157h-624q15 -277 225 -277q66 0 107.5 33t76.5 115l203 -70q-34 -61 -58.5 -92.5t-54.5 -57.5q-106 -86 -282 -86q-215 0 -336 127t-121 353zM332 559h393q-5 124 -48.5 178t-139.5 54 q-91 0 -143.5 -59t-61.5 -173z" />
<glyph unicode="f" horiz-adv-x="626" d="M37 731v187h123v96q0 212 82.5 316t249.5 104q83 0 176 -33l-47 -176q-49 24 -84 24q-150 0 -150 -223v-108h238v-187h-238v-731h-227v731h-123z" />
<glyph unicode="g" horiz-adv-x="1148" d="M86 457q0 220 115 350q57 62 138 97.5t165 35.5q86 0 151.5 -30t126.5 -99v107h228v-914q0 -220 -129 -345.5t-353 -125.5q-170 0 -280 84q-39 31 -66 69.5t-61 114.5l209 95q56 -191 217 -191q63 0 114 30t82 87q39 71 39 203v79q-66 -68 -133 -97.5t-153 -29.5 q-83 0 -160.5 34t-132.5 95q-117 129 -117 351zM330 461q0 -141 61.5 -224t167.5 -83t167.5 81.5t61.5 221.5q0 139 -62.5 222t-166.5 83q-103 0 -166 -83t-63 -218z" />
<glyph unicode="h" horiz-adv-x="1122" d="M139 0v1434h228v-631q72 76 136.5 106.5t153.5 30.5q88 0 159 -31.5t112 -89.5q30 -39 42.5 -93.5t12.5 -143.5v-582h-227v528q0 114 -42 167t-134 53q-54 0 -102.5 -21.5t-74.5 -56.5q-36 -49 -36 -154v-516h-228z" />
<glyph unicode="i" horiz-adv-x="507" d="M111 1249q0 57 39 95t96 38q58 0 96.5 -38t38.5 -97q0 -57 -39 -96t-96 -39q-59 0 -97 38.5t-38 98.5zM139 0v918h228v-918h-228z" />
<glyph unicode="j" horiz-adv-x="507" d="M-119 -272q39 -2 72 -2q100 0 144 53t44 172v967h228v-965q0 -135 -25.5 -207t-89.5 -119q-92 -71 -248 -71q-43 0 -86 4zM115 1255q0 56 38 93.5t95 37.5q58 0 95.5 -37t37.5 -96t-37.5 -96t-95.5 -37t-95.5 38t-37.5 97z" />
<glyph unicode="k" horiz-adv-x="991" d="M139 0v1434h228v-906l297 390h251l-321 -404l405 -514h-292l-340 451v-451h-228z" />
<glyph unicode="l" horiz-adv-x="507" d="M139 0v1434h228v-1434h-228z" />
<glyph unicode="m" horiz-adv-x="1689" d="M139 0v918h228v-103q69 70 129.5 97.5t148.5 27.5q97 0 158 -31.5t115 -109.5q72 76 143.5 108.5t167.5 32.5q151 0 236 -87t85 -239v-614h-227v543q0 106 -41 155.5t-129 49.5q-95 0 -143.5 -56t-48.5 -162v-530h-228v545q0 203 -170 203q-91 0 -143.5 -62t-52.5 -168 v-518h-228z" />
<glyph unicode="n" horiz-adv-x="1122" d="M139 0v918h228v-115q74 77 137.5 107t152.5 30q88 0 159 -31.5t112 -89.5q30 -39 42.5 -93.5t12.5 -143.5v-582h-227v528q0 114 -42 167t-134 53q-54 0 -102.5 -21.5t-74.5 -56.5q-36 -49 -36 -154v-516h-228z" />
<glyph unicode="o" horiz-adv-x="1116" d="M86 463q0 224 125 350.5t348 126.5q227 0 350 -124t123 -353q0 -219 -119 -350q-121 -136 -356 -136q-229 0 -350 125t-121 361zM330 463q0 -143 61.5 -226t167.5 -83q104 0 166.5 83t62.5 222t-62.5 222t-166.5 83t-166.5 -82t-62.5 -219z" />
<glyph unicode="p" horiz-adv-x="1150" d="M139 -446v1364h228v-109q64 70 130 100.5t154 30.5q184 0 299 -132.5t115 -344.5q0 -215 -115.5 -350.5t-298.5 -135.5q-84 0 -150 29.5t-134 95.5v-548h-228zM360 459q0 -138 63 -221.5t169 -83.5q104 0 166.5 82.5t62.5 220.5q0 140 -61.5 222.5t-167.5 82.5 q-103 0 -167.5 -83.5t-64.5 -219.5z" />
<glyph unicode="q" horiz-adv-x="1148" d="M86 457q0 220 115 350q59 63 139 98t166 35q87 0 151 -29t125 -94l78 101h150v-1364h-228v546q-68 -65 -134 -94t-150 -29q-85 0 -162.5 34t-132.5 95q-117 129 -117 351zM330 461q0 -141 61.5 -224t167.5 -83q105 0 167 82t62 221t-62.5 222t-166.5 83q-103 0 -166 -83 t-63 -218z" />
<glyph unicode="r" horiz-adv-x="761" d="M139 0v918h223v-140q63 88 122.5 125t136.5 37q46 0 82 -14t88 -52l-86 -202q-36 36 -65 49.5t-71 13.5q-83 0 -142.5 -83.5t-59.5 -200.5v-451h-228z" />
<glyph unicode="s" horiz-adv-x="911" d="M41 233l207 70q26 -83 73.5 -122.5t120.5 -39.5q68 0 111 36t43 93q0 58 -49 82q-29 15 -135 45q-98 27 -137 42.5t-68 39.5q-90 72 -90 183q0 129 98.5 203.5t267.5 74.5q133 0 216 -44t126 -138l-196 -86q-19 60 -53.5 85t-98.5 25q-60 0 -96.5 -28t-36.5 -74 q0 -40 25 -63.5t84 -38.5q47 -12 108 -25q140 -31 205 -94.5t65 -169.5q0 -140 -113 -226t-298 -86q-155 0 -243.5 59.5t-135.5 196.5z" />
<glyph unicode="t" horiz-adv-x="684" d="M27 733v185h141v229l227 84v-313h236v-185h-236v-338q0 -88 11.5 -127t42.5 -63q48 -33 122 -33q28 0 80 14l-33 -182q-93 -18 -151 -18q-198 0 -260 127q-39 82 -39 260v360h-141z" />
<glyph unicode="u" horiz-adv-x="1122" d="M139 360v558h228v-517q0 -231 182 -231q54 0 101 23t73 63q33 49 33 145v517h227v-918h-227v113q-76 -76 -139 -106t-150 -30q-91 0 -164.5 35.5t-114.5 98.5q-26 42 -37.5 98.5t-11.5 150.5z" />
<glyph unicode="v" horiz-adv-x="929" d="M14 918h240l227 -605l244 605h217l-377 -918h-213z" />
<glyph unicode="w" horiz-adv-x="1478" d="M39 918h237l177 -605l204 605h203l184 -603l199 603h219l-317 -918h-223l-181 606l-202 -606h-228z" />
<glyph unicode="x" horiz-adv-x="905" d="M-20 0l346 492l-271 426h260l148 -252l164 252h241l-286 -420l313 -498h-262l-193 328l-207 -328h-253z" />
<glyph unicode="y" horiz-adv-x="931" d="M-66 -250q79 -24 125 -24q74 0 132 41.5t92 119.5l65 150l-340 881h250l221 -611l250 611h223l-399 -926q-60 -138 -107 -222.5t-100 -138t-109.5 -73t-134.5 -19.5q-43 0 -129 17z" />
<glyph unicode="z" horiz-adv-x="913" d="M35 0v168l528 565h-475v185h764v-179l-516 -555h541v-184h-842z" />
<glyph unicode="{" horiz-adv-x="573" d="M23 602v47q92 4 126.5 60.5t34.5 201.5v170q0 117 14 174.5t52 100.5q63 69 221 69h61v-49q-82 -8 -124 -61q-31 -35 -41.5 -83.5t-10.5 -150.5v-135q0 -156 -32.5 -213t-149.5 -104q103 -26 142.5 -86.5t39.5 -190.5v-235q0 -129 36.5 -181t139.5 -65v-47q-35 -2 -53 -2 q-295 0 -295 264v305q0 125 -30 165t-131 46z" />
<glyph unicode="|" d="M518 -342v1708h119v-1708h-119z" />
<glyph unicode="}" horiz-adv-x="573" d="M41 -129q103 13 139.5 65t36.5 181v235q0 131 39 190t143 87q-117 47 -149.5 104t-32.5 213v135q0 108 -12 158.5t-47 85.5q-25 25 -50.5 36.5t-66.5 14.5v49h61q159 0 222 -69q38 -43 51.5 -99.5t13.5 -175.5v-170q0 -145 35 -201t127 -61v-47q-101 -6 -131.5 -46 t-30.5 -165v-305q0 -264 -295 -264q-18 0 -53 2v47z" />
<glyph unicode="~" horiz-adv-x="989" d="M57 1313q128 108 244 108q66 0 188 -47q121 -45 185 -45q58 0 108 25t109 84l24 -111q-123 -123 -258 -123q-68 0 -200 47q-123 45 -176 45q-95 0 -189 -88z" />
<glyph unicode="&#xa1;" horiz-adv-x="546" d="M133 961q0 59 40.5 99t98.5 40q60 0 100 -41t40 -101q0 -57 -41 -97t-99 -40t-98.5 40.5t-40.5 99.5zM162 72l41 573h145l41 -573v-369h-227v369z" />
<glyph unicode="&#xa2;" horiz-adv-x="1122" d="M143 682q0 264 170 393q50 38 102.5 56t135.5 24v139h88v-139q146 -1 227 -51t125 -164l-186 -72q-31 78 -66.5 108.5t-99.5 33.5v-641q61 6 95.5 34.5t70.5 104.5l184 -78q-98 -207 -350 -219v-180h-88v180q-97 6 -163.5 33t-121.5 84q-123 126 -123 354zM367 680 q0 -138 43 -210.5t141 -98.5v635q-184 -30 -184 -326z" />
<glyph unicode="&#xa3;" d="M74 0v184q133 4 188 97.5t74 345.5h-164v176h180l13 125q20 213 104 319q119 144 315 144q139 0 275 -78l-35 -189q-54 49 -98.5 68.5t-102.5 19.5q-106 0 -162 -72t-73 -229l-13 -108h336v-176h-350q-25 -197 -58.5 -289t-101.5 -150h637v-188h-964z" />
<glyph unicode="&#xa4;" horiz-adv-x="1058" d="M47 86l207 203q-59 96 -59 190q0 99 59 183l-207 200l86 86l203 -205q55 33 96.5 46.5t91.5 13.5q88 0 187 -58l200 199l82 -82l-198 -200q59 -86 59 -189q0 -102 -59 -186l204 -209l-84 -82l-202 209q-86 -58 -183 -58q-96 0 -196 60l-205 -209zM299 481 q0 -98 66 -164.5t163 -66.5q94 0 159 65.5t65 159.5t-66 159.5t-160 65.5t-160.5 -64t-66.5 -155z" />
<glyph unicode="&#xa5;" horiz-adv-x="1191" d="M14 1366h283l305 -532l313 532h242l-289 -475h244v-109h-309l-72 -118l-16 -50h397v-110h-410v-504h-233v504h-391v110h371l-19 56l-68 112h-284v109h219z" />
<glyph unicode="&#xa6;" d="M463 313h227v-655h-227v655zM463 664v702h227v-702h-227z" />
<glyph unicode="&#xa7;" d="M74 -8l209 86q23 -132 86.5 -194t175.5 -62q100 0 161.5 54t61.5 142q0 65 -32 94.5t-136 61.5q-264 83 -344 137q-68 46 -106.5 121.5t-38.5 161.5q0 81 31 145t100 127q-25 60 -34 95t-9 79q0 65 23.5 126.5t66.5 107.5q114 123 325 123q160 0 267 -66q50 -30 79 -69 t56 -109l-193 -109q-26 101 -76 145t-141 44q-89 0 -137.5 -42.5t-48.5 -119.5q0 -94 80 -141q33 -21 66.5 -34.5t129.5 -43.5q113 -36 170.5 -64t100.5 -67q37 -34 58.5 -84t21.5 -105q0 -70 -29 -133.5t-94 -132.5q48 -61 66 -107t18 -110q0 -177 -130.5 -292t-330.5 -115 q-121 0 -220.5 37.5t-158.5 105.5q-36 42 -56 87t-38 120zM309 635q0 -37 19 -76t47 -61q40 -31 184 -82q61 -19 141 -49q64 -26 72 -29q66 72 66 135q0 31 -18.5 62t-47.5 51q-28 18 -63 32t-146 52q-144 52 -207 82q-47 -58 -47 -117z" />
<glyph unicode="&#xa8;" horiz-adv-x="1024" d="M184 1251q0 53 37 89t92 36q53 0 89 -36.5t36 -90.5t-36.5 -90.5t-90.5 -36.5t-90.5 37t-36.5 92zM586 1251q0 54 36.5 89.5t90.5 35.5t90.5 -36.5t36.5 -90.5t-37 -90.5t-92 -36.5q-54 0 -89.5 36.5t-35.5 92.5z" />
<glyph unicode="&#xa9;" horiz-adv-x="1554" d="M68 682q0 196 95.5 360t261 258.5t363.5 94.5q140 0 269.5 -57t223.5 -152.5t150 -227.5t56 -276t-56 -275.5t-151 -227t-226.5 -152t-275.5 -56.5t-275.5 56.5t-226.5 152t-151.5 227t-56.5 275.5zM201 682q0 -159 77.5 -294.5t210.5 -214.5t289 -79t288.5 79t210 214.5 t77.5 294.5q0 118 -45.5 227.5t-122 188.5t-181.5 126.5t-219 47.5q-161 0 -295.5 -78t-212 -213.5t-77.5 -298.5zM375 684q0 190 116.5 304t311.5 114q123 0 186.5 -34.5t134.5 -139.5l-137 -84q-26 70 -69.5 99.5t-120.5 29.5q-115 0 -180.5 -78.5t-65.5 -216.5 q0 -132 64.5 -205.5t181.5 -73.5q73 0 116 29t74 98l137 -84q-67 -100 -136.5 -136t-192.5 -36q-199 0 -309.5 108.5t-110.5 305.5z" />
<glyph unicode="&#xaa;" horiz-adv-x="731" d="M49 1092q0 128 72.5 207t189.5 79q98 0 160 -65v53h160v-547h-150l-10 51q-66 -63 -166 -63q-115 0 -185.5 78.5t-70.5 206.5zM209 1094q0 -80 36 -126t97 -46t97 46t36 124t-36 124t-97 46q-60 0 -96.5 -46.5t-36.5 -121.5z" />
<glyph unicode="&#xab;" horiz-adv-x="872" d="M80 461l244 457h106l-131 -457l139 -461h-114zM420 461l244 457h106l-131 -457l139 -461h-114z" />
<glyph unicode="&#xac;" horiz-adv-x="1177" d="M55 395v117h1035v-573h-123v456h-912z" />
<glyph unicode="&#xad;" horiz-adv-x="471" d="M0 414v157h471v-157h-471z" />
<glyph unicode="&#xae;" horiz-adv-x="1554" d="M68 682q0 196 95.5 360t261 258.5t363.5 94.5q140 0 269.5 -57t223.5 -152.5t150 -227.5t56 -276t-56 -275.5t-151 -227t-226.5 -152t-275.5 -56.5t-275.5 56.5t-226.5 152t-151.5 227t-56.5 275.5zM201 682q0 -159 77.5 -294.5t210.5 -214.5t289 -79t288.5 79t210 214.5 t77.5 294.5q0 118 -45.5 227.5t-122 188.5t-181.5 126.5t-219 47.5q-161 0 -295.5 -78t-212 -213.5t-77.5 -298.5zM514 285v796h246q127 0 184 -24q52 -25 82.5 -76.5t30.5 -116.5q0 -73 -36 -124.5t-116 -94.5l211 -360h-186l-185 331h-67v-331h-164zM678 743h53h2 q71 -5 111.5 26t40.5 89q0 70 -62 88q-16 4 -98 4h-47v-207z" />
<glyph unicode="&#xaf;" horiz-adv-x="1024" d="M233 1194v117h558v-117h-558z" />
<glyph unicode="&#xb0;" horiz-adv-x="737" d="M63 1085q0 120 91 207.5t215 87.5q126 0 215.5 -87.5t89.5 -211.5t-89.5 -212.5t-215.5 -88.5q-128 0 -217 88t-89 217zM197 1083q0 -72 50 -122t122 -50q71 0 121.5 50t50.5 120q0 69 -50.5 118.5t-121.5 49.5q-70 0 -121 -49t-51 -117z" />
<glyph unicode="&#xb1;" horiz-adv-x="1148" d="M55 0v111h1041v-111h-1041zM55 649v111h463v457h113v-457h465v-111h-465v-463h-113v463h-463z" />
<glyph unicode="&#xb2;" horiz-adv-x="741" d="M88 547v112q211 186 289 289t78 197q0 51 -27.5 78.5t-77.5 27.5q-54 0 -80.5 -32.5t-36.5 -114.5l-141 78q38 113 94.5 156.5t163.5 43.5q129 0 197.5 -57t68.5 -164q0 -101 -65.5 -201.5t-251.5 -283.5h340v-129h-551z" />
<glyph unicode="&#xb3;" horiz-adv-x="741" d="M53 698l140 70q25 -60 57 -85.5t86 -25.5q61 0 98 37t37 99q0 59 -39 93t-106 34q-23 0 -70 -7v129h29q69 0 109 32.5t40 88.5q0 46 -25 71.5t-69 25.5q-43 0 -68.5 -24.5t-40.5 -80.5l-139 62q34 90 90 127.5t156 37.5q120 0 190 -54t70 -148q0 -121 -111 -187 q72 -20 111 -69.5t39 -122.5q0 -123 -84 -198t-223 -75q-103 0 -161.5 36t-115.5 134z" />
<glyph unicode="&#xb4;" horiz-adv-x="1024" d="M387 1096l293 346l203 -53l-404 -310z" />
<glyph unicode="&#xb5;" horiz-adv-x="1030" d="M119 -369q24 257 24 500l-10 782h180v-487q0 -103 8 -141t37 -72q47 -59 140 -59q110 0 170 69q28 32 36.5 73.5t8.5 139.5v477h180v-913h-178v92q-60 -60 -109.5 -83t-118.5 -23q-58 0 -101 17t-93 58l8 -430h-182z" />
<glyph unicode="&#xb6;" horiz-adv-x="1038" d="M47 1024q0 91 37 167.5t102 119.5q47 30 110.5 42.5t170.5 12.5h539v-68l-170 -16v-1458h-99v1446l-143 -19v-1427h-98v797q-101 12 -159 30.5t-118 55.5q-83 54 -127.5 135.5t-44.5 181.5z" />
<glyph unicode="&#xb7;" horiz-adv-x="532" d="M115 502q0 63 44.5 107t108.5 44q65 0 109.5 -44.5t44.5 -108.5t-45 -109t-109 -45q-65 0 -109 45t-44 111z" />
<glyph unicode="&#xb8;" horiz-adv-x="1024" d="M375 -356q67 25 94 53t27 72q0 27 -17.5 51.5t-56.5 54.5l143 102q47 -47 64.5 -80.5t17.5 -74.5q0 -69 -59 -131q-22 -23 -51 -40.5t-101 -49.5z" />
<glyph unicode="&#xb9;" horiz-adv-x="741" d="M143 1135v98q123 9 178 36.5t89 96.5h116v-819h-159v600z" />
<glyph unicode="&#xba;" horiz-adv-x="731" d="M74 1094q0 134 77.5 209t215.5 75t214 -74.5t76 -209.5q0 -137 -77 -213t-215 -76q-140 0 -215.5 75t-75.5 214zM233 1094q0 -80 36.5 -127t97.5 -47q60 0 95.5 47t35.5 125t-35.5 125t-95.5 47q-61 0 -97.5 -46.5t-36.5 -123.5z" />
<glyph unicode="&#xbb;" horiz-adv-x="872" d="M94 918h115l244 -461l-244 -457h-107l131 457zM434 918h115l244 -461l-244 -457h-107l131 457z" />
<glyph unicode="&#xbc;" horiz-adv-x="1769" d="M143 1135v98q123 9 178 36.5t89 96.5h116v-819h-159v600zM373 -16l921 1419l111 -19l-918 -1419zM1085 174v119l349 526h170v-522h112v-123h-112v-174h-150v174h-369zM1235 297h219v356z" />
<glyph unicode="&#xbd;" horiz-adv-x="1769" d="M143 1135v98q123 9 178 36.5t89 96.5h116v-819h-159v600zM373 -16l921 1419l111 -19l-918 -1419zM1116 0v113q212 187 289.5 289.5t77.5 195.5q0 51 -27.5 79t-77.5 28q-54 0 -79.5 -33t-36.5 -115l-142 78q38 113 95 157t163 44q129 0 198 -57.5t69 -164.5 q0 -101 -66 -201.5t-252 -283.5h340v-129h-551z" />
<glyph unicode="&#xbe;" horiz-adv-x="1769" d="M53 698l140 70q25 -60 57 -85.5t86 -25.5q61 0 98 37t37 99q0 59 -39 93t-106 34q-23 0 -70 -7v129h29q69 0 109 32.5t40 88.5q0 46 -25 71.5t-69 25.5q-43 0 -68.5 -24.5t-40.5 -80.5l-139 62q34 90 90 127.5t156 37.5q120 0 190 -54t70 -148q0 -121 -111 -187 q72 -20 111 -69.5t39 -122.5q0 -123 -84 -198t-223 -75q-103 0 -161.5 36t-115.5 134zM371 -16l921 1419l113 -19l-918 -1419zM1083 174v119l351 526h170v-522h112v-123h-112v-174h-150v174h-371zM1233 297h221v356z" />
<glyph unicode="&#xbf;" horiz-adv-x="808" d="M61 -12q0 53 17.5 111t46.5 102q23 32 43 53t115 115q51 49 71.5 86t20.5 77q0 69 -43 140h225q43 -77 43 -135q0 -82 -36 -141.5t-140 -151.5q-78 -67 -110.5 -120.5t-32.5 -113.5q0 -63 38.5 -102t98.5 -39q64 0 101.5 43t45.5 125l203 -86q-41 -145 -127 -210 t-235 -65q-164 0 -250 80q-44 41 -69.5 103.5t-25.5 128.5zM309 961q0 58 40.5 98.5t99.5 40.5q60 0 99.5 -41t39.5 -101q0 -57 -40.5 -97t-98.5 -40q-59 0 -99.5 40.5t-40.5 99.5z" />
<glyph unicode="&#xc0;" horiz-adv-x="1269" d="M-18 0l528 1366h256l506 -1366h-258l-133 367h-521l-133 -367h-245zM268 1767l199 64l297 -352l-90 -17zM428 547h391l-182 538z" />
<glyph unicode="&#xc1;" horiz-adv-x="1269" d="M-18 0l528 1366h256l506 -1366h-258l-133 367h-521l-133 -367h-245zM428 547h391l-182 538zM563 1483l293 344l203 -51l-404 -310z" />
<glyph unicode="&#xc2;" horiz-adv-x="1269" d="M-18 0l528 1366h256l506 -1366h-258l-133 367h-521l-133 -367h-245zM272 1493l295 332h138l290 -326l-77 -20l-283 223l-281 -227zM428 547h391l-182 538z" />
<glyph unicode="&#xc3;" horiz-adv-x="1269" d="M-18 0l528 1366h256l506 -1366h-258l-133 367h-521l-133 -367h-245zM297 1571q1 2 14 16.5t19 22.5q64 79 102.5 106t85.5 27q31 0 60.5 -8.5t105.5 -38.5q103 -43 137 -43q68 0 135 82l41 -39q-72 -99 -113.5 -133.5t-88.5 -34.5q-23 0 -45.5 7.5t-116.5 45.5 q-109 45 -152 45q-38 0 -60.5 -15t-78.5 -77zM428 547h391l-182 538z" />
<glyph unicode="&#xc4;" horiz-adv-x="1269" d="M-18 0l528 1366h256l506 -1366h-258l-133 367h-521l-133 -367h-245zM279 1647q0 53 37 89t92 36q53 0 88.5 -36.5t35.5 -90.5t-36 -90.5t-90 -36.5t-90.5 37t-36.5 92zM428 547h391l-182 538zM721 1647q0 54 36.5 89.5t90.5 35.5t90.5 -36.5t36.5 -90.5t-37 -90.5 t-92 -36.5q-54 0 -89.5 36.5t-35.5 92.5z" />
<glyph unicode="&#xc5;" horiz-adv-x="1269" d="M-18 0l528 1366h256l506 -1366h-258l-133 367h-521l-133 -367h-245zM410 1649q0 86 64 143t161 57t160 -57t63 -145t-63 -145.5t-160 -57.5q-98 0 -161.5 58t-63.5 147zM428 547h391l-182 538zM518 1649q0 -51 34 -84t85 -33q50 0 83.5 33t33.5 82t-34 81.5t-85 32.5 q-49 0 -83 -32.5t-34 -79.5z" />
<glyph unicode="&#xc6;" horiz-adv-x="1636" d="M-76 0l744 1366h823v-192h-490v-390h490v-186h-490v-405h566v-193h-793v344h-401l-178 -344h-271zM461 524h313v613z" />
<glyph unicode="&#xc7;" horiz-adv-x="1325" d="M92 678q0 329 190.5 523t514.5 194q218 0 336 -78q46 -29 83.5 -72.5t92.5 -132.5l-203 -123q-22 59 -41.5 89.5t-50.5 54.5q-90 69 -230 69q-198 0 -312 -141.5t-114 -390.5q0 -116 28.5 -213t82.5 -160q50 -60 135.5 -96.5t177.5 -36.5q139 0 232 74q29 24 48 53t44 86 l205 -123q-56 -85 -96.5 -129t-94.5 -76q-128 -78 -336 -78q-151 0 -278.5 41.5t-210.5 118.5q-95 86 -149 231t-54 316zM565 -377q66 25 93.5 53t27.5 72q0 53 -72 105l142 104q48 -50 65 -82.5t17 -73.5q0 -68 -60 -131q-21 -23 -50 -40t-101 -50z" />
<glyph unicode="&#xc8;" horiz-adv-x="1077" d="M174 0v1366h756v-192h-510v-388h510v-186h-510v-407h586v-193h-832zM242 1767l198 64l297 -352l-90 -17z" />
<glyph unicode="&#xc9;" horiz-adv-x="1077" d="M174 0v1366h756v-192h-510v-388h510v-186h-510v-407h586v-193h-832zM420 1483l293 344l202 -51l-403 -310z" />
<glyph unicode="&#xca;" horiz-adv-x="1077" d="M174 0v1366h756v-192h-510v-388h510v-186h-510v-407h586v-193h-832zM199 1493l295 332h135l291 -326l-78 -20l-283 223l-280 -227z" />
<glyph unicode="&#xcb;" horiz-adv-x="1077" d="M174 0v1366h756v-192h-510v-388h510v-186h-510v-407h586v-193h-832zM207 1647q0 53 37 89t92 36q53 0 89 -36.5t36 -90.5t-36.5 -90.5t-90.5 -36.5t-90.5 37t-36.5 92zM649 1647q0 54 36.5 89.5t90.5 35.5t90.5 -36.5t36.5 -90.5t-37 -90.5t-92 -36.5q-54 0 -89.5 36.5 t-35.5 92.5z" />
<glyph unicode="&#xcc;" horiz-adv-x="593" d="M-29 1767l199 64l258 -352l-92 -17zM174 0v1366h246v-1366h-246z" />
<glyph unicode="&#xcd;" horiz-adv-x="593" d="M174 0v1366h246v-1366h-246zM217 1483l252 344l203 -51l-363 -310z" />
<glyph unicode="&#xce;" horiz-adv-x="593" d="M-23 1493l254 332h136l251 -326l-77 -20l-242 223l-240 -227zM174 0v1366h246v-1366h-246z" />
<glyph unicode="&#xcf;" horiz-adv-x="593" d="M-4 1647q0 53 37 89t92 36q53 0 89 -36.5t36 -90.5t-36.5 -90.5t-90.5 -36.5t-90.5 37t-36.5 92zM174 0v1366h246v-1366h-246zM344 1647q0 54 36.5 89.5t90.5 35.5t90.5 -36.5t36.5 -90.5t-37 -90.5t-92 -36.5q-54 0 -89.5 36.5t-35.5 92.5z" />
<glyph unicode="&#xd0;" horiz-adv-x="1427" d="M25 633v137h149v596h496q295 0 440 -113q225 -170 225 -544q0 -207 -72.5 -367t-205.5 -246q-148 -96 -398 -96h-485v633h-149zM420 193h215q191 0 295 90q69 63 106 171.5t37 245.5q0 144 -41.5 251t-118.5 163q-51 35 -108 47.5t-172 12.5h-213v-404h330v-137h-330 v-440z" />
<glyph unicode="&#xd1;" horiz-adv-x="1540" d="M174 0v1366h236l714 -983v983h242v-1366h-242l-708 975v-975h-242zM440 1571q15 18 33 39q65 80 102.5 106.5t86.5 26.5q31 0 60 -8.5t103 -38.5q106 -43 140 -43q69 0 133 82l43 -39q-73 -99 -114.5 -133.5t-90.5 -34.5q-23 0 -43.5 7t-116.5 46q-109 45 -151 45 q-38 0 -61.5 -15t-80.5 -77z" />
<glyph unicode="&#xd2;" horiz-adv-x="1533" d="M92 694q0 362 213 545q179 156 461 156q280 0 461 -156q213 -184 213 -555q0 -190 -52 -326t-161 -231q-179 -156 -459 -156q-284 0 -463 156q-110 97 -161.5 233t-51.5 334zM358 690q0 -245 109.5 -385.5t298.5 -140.5q188 0 298 140.5t110 379.5q0 238 -110.5 378 t-297.5 140q-186 0 -297 -139.5t-111 -372.5zM408 1767l198 64l297 -352l-90 -17z" />
<glyph unicode="&#xd3;" horiz-adv-x="1533" d="M92 694q0 362 213 545q179 156 461 156q280 0 461 -156q213 -184 213 -555q0 -190 -52 -326t-161 -231q-179 -156 -459 -156q-284 0 -463 156q-110 97 -161.5 233t-51.5 334zM358 690q0 -245 109.5 -385.5t298.5 -140.5q188 0 298 140.5t110 379.5q0 238 -110.5 378 t-297.5 140q-186 0 -297 -139.5t-111 -372.5zM614 1483l295 344l203 -51l-403 -310z" />
<glyph unicode="&#xd4;" horiz-adv-x="1533" d="M92 694q0 362 213 545q179 156 461 156q280 0 461 -156q213 -184 213 -555q0 -190 -52 -326t-161 -231q-179 -156 -459 -156q-284 0 -463 156q-110 97 -161.5 233t-51.5 334zM358 690q0 -245 109.5 -385.5t298.5 -140.5q188 0 298 140.5t110 379.5q0 238 -110.5 378 t-297.5 140q-186 0 -297 -139.5t-111 -372.5zM406 1493l294 332h136l290 -326l-77 -20l-283 223l-281 -227z" />
<glyph unicode="&#xd5;" horiz-adv-x="1533" d="M92 694q0 362 213 545q179 156 461 156q280 0 461 -156q213 -184 213 -555q0 -190 -52 -326t-161 -231q-179 -156 -459 -156q-284 0 -463 156q-110 97 -161.5 233t-51.5 334zM358 690q0 -245 109.5 -385.5t298.5 -140.5q188 0 298 140.5t110 379.5q0 238 -110.5 378 t-297.5 140q-186 0 -297 -139.5t-111 -372.5zM430 1571q15 18 33 39q63 79 100.5 106t85.5 27q32 0 62.5 -8.5t103.5 -38.5q106 -43 139 -43q69 0 133 82l43 -39q-72 -98 -114.5 -133t-89.5 -35q-23 0 -43.5 7t-116.5 46q-109 45 -154 45q-36 0 -59 -15t-80 -77z" />
<glyph unicode="&#xd6;" horiz-adv-x="1533" d="M92 694q0 362 213 545q179 156 461 156q280 0 461 -156q213 -184 213 -555q0 -190 -52 -326t-161 -231q-179 -156 -459 -156q-284 0 -463 156q-110 97 -161.5 233t-51.5 334zM358 690q0 -245 109.5 -385.5t298.5 -140.5q188 0 298 140.5t110 379.5q0 238 -110.5 378 t-297.5 140q-186 0 -297 -139.5t-111 -372.5zM418 1647q0 53 37 89t92 36q53 0 89 -36.5t36 -90.5t-36.5 -90.5t-90.5 -36.5t-90.5 37t-36.5 92zM860 1647q0 54 36.5 89.5t90.5 35.5t90.5 -36.5t36.5 -90.5t-37 -90.5t-92 -36.5q-54 0 -89.5 36.5t-35.5 92.5z" />
<glyph unicode="&#xd7;" horiz-adv-x="1191" d="M70 907l71 74l455 -453l455 453l71 -76l-452 -450l452 -445l-78 -73l-448 446l-446 -446l-70 75l442 443z" />
<glyph unicode="&#xd8;" horiz-adv-x="1533" d="M92 684q0 189 52 324.5t161 230.5q182 156 457 156q126 0 215 -24.5t203 -90.5l131 145l98 -84l-129 -153q85 -98 123.5 -219t38.5 -287q0 -369 -213 -555q-179 -156 -457 -156q-123 0 -218.5 26t-199.5 89l-121 -147l-98 88l115 145q-91 128 -124.5 236.5t-33.5 275.5z M358 692q0 -185 64 -313l606 725q-67 55 -125.5 76.5t-140.5 21.5q-183 0 -293.5 -140t-110.5 -370zM500 264q73 -57 131.5 -78.5t136.5 -21.5q188 0 298 139t110 377q0 157 -64 305z" />
<glyph unicode="&#xd9;" horiz-adv-x="1429" d="M160 561v805h246v-807q0 -121 9.5 -178t37.5 -100q35 -55 104.5 -86t157.5 -31q94 0 166 36.5t106 100.5q20 40 27.5 94.5t7.5 163.5v807h246v-805q0 -156 -17 -237.5t-63 -149.5q-67 -99 -188.5 -151t-284.5 -52q-179 0 -306 60t-188 174q-35 64 -48 139.5t-13 216.5z M375 1767l198 64l299 -352l-92 -17z" />
<glyph unicode="&#xda;" horiz-adv-x="1429" d="M160 561v805h246v-807q0 -121 9.5 -178t37.5 -100q35 -55 104.5 -86t157.5 -31q94 0 166 36.5t106 100.5q20 40 27.5 94.5t7.5 163.5v807h246v-805q0 -156 -17 -237.5t-63 -149.5q-67 -99 -188.5 -151t-284.5 -52q-179 0 -306 60t-188 174q-35 64 -48 139.5t-13 216.5z M590 1483l295 344l202 -51l-403 -310z" />
<glyph unicode="&#xdb;" horiz-adv-x="1429" d="M160 561v805h246v-807q0 -121 9.5 -178t37.5 -100q35 -55 104.5 -86t157.5 -31q94 0 166 36.5t106 100.5q20 40 27.5 94.5t7.5 163.5v807h246v-805q0 -156 -17 -237.5t-63 -149.5q-67 -99 -188.5 -151t-284.5 -52q-179 0 -306 60t-188 174q-35 64 -48 139.5t-13 216.5z M352 1493l295 332h137l291 -326l-78 -20l-282 223l-281 -227z" />
<glyph unicode="&#xdc;" horiz-adv-x="1429" d="M160 561v805h246v-807q0 -121 9.5 -178t37.5 -100q35 -55 104.5 -86t157.5 -31q94 0 166 36.5t106 100.5q20 40 27.5 94.5t7.5 163.5v807h246v-805q0 -156 -17 -237.5t-63 -149.5q-67 -99 -188.5 -151t-284.5 -52q-179 0 -306 60t-188 174q-35 64 -48 139.5t-13 216.5z M367 1647q0 53 37 89t92 36q53 0 89 -36.5t36 -90.5t-36.5 -90.5t-90.5 -36.5t-90.5 37t-36.5 92zM809 1647q0 54 36.5 89.5t90.5 35.5t90.5 -36.5t36.5 -90.5t-37 -90.5t-92 -36.5q-54 0 -89.5 36.5t-35.5 92.5z" />
<glyph unicode="&#xdd;" horiz-adv-x="1071" d="M-63 1366h280l334 -553l323 553h254l-469 -778v-588h-245v582zM418 1483l293 344l202 -51l-403 -310z" />
<glyph unicode="&#xde;" horiz-adv-x="1087" d="M166 0v1366h244v-166h153q225 0 338 -61q168 -91 168 -320q0 -125 -59 -220t-168 -148q-51 -25 -137 -40.5t-168 -15.5h-127v-395h-244zM410 590h114q146 0 215.5 53.5t69.5 165.5q0 106 -59 152.5t-193 46.5h-147v-418z" />
<glyph unicode="&#xdf;" horiz-adv-x="1114" d="M12 733v185h131v106q0 198 105.5 306t298.5 108q156 0 247 -76t91 -205q0 -55 -12.5 -97t-55.5 -130q-31 -61 -31 -96q0 -50 76 -132q123 -131 163 -202t40 -162q0 -154 -109 -257.5t-272 -103.5q-111 0 -223 52l47 198q73 -57 147 -57q67 0 111.5 48t44.5 122 q0 72 -45 133q-19 28 -35 47t-96 105q-78 84 -78 149q0 32 14.5 68.5t53.5 105.5q36 64 49.5 102t13.5 74q0 61 -37 96t-102 35q-176 0 -176 -241v-1014h-230v733h-131z" />
<glyph unicode="&#xe0;" horiz-adv-x="1148" d="M86 457q0 221 116.5 352t313.5 131q88 0 145 -28.5t121 -104.5v111h228v-918h-228v104q-62 -66 -129.5 -96.5t-156.5 -30.5q-83 0 -160.5 34t-132.5 95q-117 129 -117 351zM213 1382l201 64l297 -350l-90 -19zM330 461q0 -141 61.5 -224t167.5 -83t167.5 82.5t61.5 222.5 q0 139 -62.5 222t-166.5 83q-103 0 -166 -83.5t-63 -219.5z" />
<glyph unicode="&#xe1;" horiz-adv-x="1148" d="M86 457q0 221 116.5 352t313.5 131q88 0 145 -28.5t121 -104.5v111h228v-918h-228v104q-62 -66 -129.5 -96.5t-156.5 -30.5q-83 0 -160.5 34t-132.5 95q-117 129 -117 351zM330 461q0 -141 61.5 -224t167.5 -83t167.5 82.5t61.5 222.5q0 139 -62.5 222t-166.5 83 q-103 0 -166 -83.5t-63 -219.5zM436 1096l295 346l203 -53l-404 -310z" />
<glyph unicode="&#xe2;" horiz-adv-x="1148" d="M86 457q0 221 116.5 352t313.5 131q88 0 145 -28.5t121 -104.5v111h228v-918h-228v104q-62 -66 -129.5 -96.5t-156.5 -30.5q-83 0 -160.5 34t-132.5 95q-117 129 -117 351zM236 1100l272 334h137l270 -328l-77 -23l-263 226l-260 -230zM330 461q0 -141 61.5 -224 t167.5 -83t167.5 82.5t61.5 222.5q0 139 -62.5 222t-166.5 83q-103 0 -166 -83.5t-63 -219.5z" />
<glyph unicode="&#xe3;" horiz-adv-x="1148" d="M86 457q0 221 116.5 352t313.5 131q88 0 145 -28.5t121 -104.5v111h228v-918h-228v104q-62 -66 -129.5 -96.5t-156.5 -30.5q-83 0 -160.5 34t-132.5 95q-117 129 -117 351zM246 1188q72 89 102 120.5t52.5 42.5t60.5 11q34 0 72.5 -14.5t132.5 -63.5q36 -16 61 -16 q69 0 135 86l43 -39q-72 -101 -112 -135.5t-86 -34.5q-24 0 -63 16t-126 62q-50 22 -96 22q-31 0 -55.5 -17.5t-77.5 -74.5zM330 461q0 -141 61.5 -224t167.5 -83t167.5 82.5t61.5 222.5q0 139 -62.5 222t-166.5 83q-103 0 -166 -83.5t-63 -219.5z" />
<glyph unicode="&#xe4;" horiz-adv-x="1148" d="M86 457q0 221 116.5 352t313.5 131q88 0 145 -28.5t121 -104.5v111h228v-918h-228v104q-62 -66 -129.5 -96.5t-156.5 -30.5q-83 0 -160.5 34t-132.5 95q-117 129 -117 351zM248 1251q0 53 37 89t92 36q53 0 89 -36.5t36 -90.5t-36.5 -90.5t-90.5 -36.5t-90.5 37t-36.5 92 zM330 461q0 -141 61.5 -224t167.5 -83t167.5 82.5t61.5 222.5q0 139 -62.5 222t-166.5 83q-103 0 -166 -83.5t-63 -219.5zM649 1251q0 54 36.5 89.5t90.5 35.5t90.5 -36.5t36.5 -90.5t-37 -90.5t-92 -36.5q-54 0 -89.5 36.5t-35.5 92.5z" />
<glyph unicode="&#xe5;" horiz-adv-x="1148" d="M86 457q0 221 116.5 352t313.5 131q88 0 145 -28.5t121 -104.5v111h228v-918h-228v104q-62 -66 -129.5 -96.5t-156.5 -30.5q-83 0 -160.5 34t-132.5 95q-117 129 -117 351zM330 461q0 -141 61.5 -224t167.5 -83t167.5 82.5t61.5 222.5q0 139 -62.5 222t-166.5 83 q-103 0 -166 -83.5t-63 -219.5zM350 1260q0 86 64 143t161 57q98 0 162 -57.5t64 -145.5t-64 -145t-162 -57t-161.5 58t-63.5 147zM459 1260q0 -51 34 -84t85 -33t84.5 32.5t33.5 81.5q0 50 -33.5 82.5t-84.5 32.5t-85 -32.5t-34 -79.5z" />
<glyph unicode="&#xe6;" horiz-adv-x="1523" d="M68 233q0 137 100 203q71 49 254 101q107 29 143.5 57t36.5 80q0 47 -35 75.5t-94 28.5q-63 0 -100 -33t-56 -106l-202 63q25 67 51.5 105t69.5 67q94 66 239 66q93 0 152 -24.5t118 -86.5q68 60 133 85.5t152 25.5q126 0 215 -50t133 -147q29 -62 40.5 -133.5 t11.5 -195.5h-615q2 -74 9.5 -115t27.5 -74q54 -94 172 -94q73 0 117 32t86 118l200 -74q-37 -67 -67 -101.5t-74 -60.5q-117 -68 -266 -68q-120 0 -197.5 36.5t-144.5 125.5q-84 -91 -156.5 -126.5t-177.5 -35.5q-125 0 -200.5 70.5t-75.5 185.5zM295 270q0 -55 36.5 -89 t96.5 -34q57 0 101 30.5t63 82.5q18 52 18 207q-56 -23 -151 -49q-87 -26 -125.5 -61t-38.5 -87zM821 559h398q-12 234 -195 234q-182 0 -203 -234z" />
<glyph unicode="&#xe7;" horiz-adv-x="966" d="M86 457q0 226 124 354.5t341 128.5q193 0 297 -96q37 -34 57 -73.5t33 -108.5l-211 -72q-4 97 -44 142.5t-120 45.5q-109 0 -171 -86t-62 -237q0 -145 59 -229.5t160 -84.5q72 0 111 37t65 131l219 -59q-27 -79 -54.5 -122t-72.5 -75q-115 -76 -278 -76 q-211 0 -332 128.5t-121 351.5zM352 -371q67 25 94 53t27 72q0 53 -74 107l144 102q46 -48 64 -81t18 -72q0 -71 -60 -134q-22 -22 -52 -40.5t-99 -49.5z" />
<glyph unicode="&#xe8;" horiz-adv-x="1034" d="M86 457q0 224 122.5 353.5t336.5 129.5q310 0 381 -266q15 -60 19.5 -105t4.5 -157h-624q15 -277 225 -277q66 0 107.5 33t76.5 115l203 -70q-34 -61 -58.5 -92.5t-54.5 -57.5q-106 -86 -282 -86q-215 0 -336 127t-121 353zM184 1382l201 64l295 -350l-88 -19zM332 559 h393q-5 124 -48.5 178t-139.5 54q-91 0 -143.5 -59t-61.5 -173z" />
<glyph unicode="&#xe9;" horiz-adv-x="1034" d="M86 457q0 224 122.5 353.5t336.5 129.5q310 0 381 -266q15 -60 19.5 -105t4.5 -157h-624q15 -277 225 -277q66 0 107.5 33t76.5 115l203 -70q-34 -61 -58.5 -92.5t-54.5 -57.5q-106 -86 -282 -86q-215 0 -336 127t-121 353zM332 559h393q-5 124 -48.5 178t-139.5 54 q-91 0 -143.5 -59t-61.5 -173zM393 1096l293 346l203 -53l-404 -310z" />
<glyph unicode="&#xea;" horiz-adv-x="1034" d="M86 457q0 224 122.5 353.5t336.5 129.5q310 0 381 -266q15 -60 19.5 -105t4.5 -157h-624q15 -277 225 -277q66 0 107.5 33t76.5 115l203 -70q-34 -61 -58.5 -92.5t-54.5 -57.5q-106 -86 -282 -86q-215 0 -336 127t-121 353zM195 1100l274 334h135l273 -328l-78 -23 l-262 226l-261 -230zM332 559h393q-5 124 -48.5 178t-139.5 54q-91 0 -143.5 -59t-61.5 -173z" />
<glyph unicode="&#xeb;" horiz-adv-x="1034" d="M86 457q0 224 122.5 353.5t336.5 129.5q310 0 381 -266q15 -60 19.5 -105t4.5 -157h-624q15 -277 225 -277q66 0 107.5 33t76.5 115l203 -70q-34 -61 -58.5 -92.5t-54.5 -57.5q-106 -86 -282 -86q-215 0 -336 127t-121 353zM211 1251q0 53 37 89t92 36q53 0 89 -36.5 t36 -90.5t-36.5 -90.5t-90.5 -36.5t-90.5 37t-36.5 92zM332 559h393q-5 124 -48.5 178t-139.5 54q-91 0 -143.5 -59t-61.5 -173zM612 1251q0 54 36.5 89.5t90.5 35.5t90.5 -36.5t36.5 -90.5t-37 -90.5t-92 -36.5q-54 0 -89.5 36.5t-35.5 92.5z" />
<glyph unicode="&#xec;" horiz-adv-x="507" d="M-55 1382l180 64l254 -350l-88 -19zM141 0v918h228v-918h-228z" />
<glyph unicode="&#xed;" horiz-adv-x="507" d="M139 0v918h228v-918h-228zM166 1096l254 346l182 -53l-342 -310z" />
<glyph unicode="&#xee;" horiz-adv-x="507" d="M-45 1100l233 334h136l231 -328l-78 -23l-221 226l-219 -230zM141 0v918h228v-918h-228z" />
<glyph unicode="&#xef;" horiz-adv-x="507" d="M-33 1251q0 51 35.5 86t87.5 35t87.5 -35t35.5 -88t-35.5 -88t-87.5 -35q-53 0 -88 35.5t-35 89.5zM141 0v918h228v-918h-228zM295 1251q0 51 35.5 86t87.5 35t87.5 -35t35.5 -88q0 -54 -35.5 -88.5t-91.5 -34.5q-53 0 -86 35t-33 90z" />
<glyph unicode="&#xf0;" horiz-adv-x="1095" d="M-2 1108l197 49l-191 158l191 71l235 -167l299 75l37 -84l-238 -59l115 -88q217 -166 296 -292t79 -306q0 -229 -124.5 -358.5t-344.5 -129.5q-214 0 -336.5 127t-122.5 347q0 148 55.5 255.5t155.5 153.5q72 35 199 47l-217 180l-250 -63zM330 463q0 -143 61 -226 t166 -83q106 0 167.5 84t61.5 229q0 146 -58.5 226.5t-164.5 80.5q-108 0 -170.5 -83.5t-62.5 -227.5z" />
<glyph unicode="&#xf1;" horiz-adv-x="1122" d="M139 0v918h228v-115q74 77 137.5 107t152.5 30q88 0 159 -31.5t112 -89.5q30 -39 42.5 -93.5t12.5 -143.5v-582h-227v528q0 114 -42 167t-134 53q-54 0 -102.5 -21.5t-74.5 -56.5q-36 -49 -36 -154v-516h-228zM238 1188q71 87 102.5 120t53.5 43.5t59 10.5 q34 0 71.5 -14.5t134.5 -63.5q36 -16 60 -16q71 0 137 86l41 -39q-72 -101 -112.5 -135.5t-86.5 -34.5q-39 0 -188 78q-46 22 -96 22q-30 0 -55 -17.5t-76 -74.5z" />
<glyph unicode="&#xf2;" horiz-adv-x="1116" d="M86 463q0 224 125 350.5t348 126.5q227 0 350 -124t123 -353q0 -219 -119 -350q-121 -136 -356 -136q-229 0 -350 125t-121 361zM205 1382l201 64l294 -350l-88 -19zM330 463q0 -143 61.5 -226t167.5 -83q104 0 166.5 83t62.5 222t-62.5 222t-166.5 83t-166.5 -82 t-62.5 -219z" />
<glyph unicode="&#xf3;" horiz-adv-x="1116" d="M86 463q0 224 125 350.5t348 126.5q227 0 350 -124t123 -353q0 -219 -119 -350q-121 -136 -356 -136q-229 0 -350 125t-121 361zM330 463q0 -143 61.5 -226t167.5 -83q104 0 166.5 83t62.5 222t-62.5 222t-166.5 83t-166.5 -82t-62.5 -219zM414 1096l293 346l202 -53 l-403 -310z" />
<glyph unicode="&#xf4;" horiz-adv-x="1116" d="M86 463q0 224 125 350.5t348 126.5q227 0 350 -124t123 -353q0 -219 -119 -350q-121 -136 -356 -136q-229 0 -350 125t-121 361zM219 1100l275 334h135l270 -328l-78 -23l-262 226l-260 -230zM330 463q0 -143 61.5 -226t167.5 -83q104 0 166.5 83t62.5 222t-62.5 222 t-166.5 83t-166.5 -82t-62.5 -219z" />
<glyph unicode="&#xf5;" horiz-adv-x="1116" d="M86 463q0 224 125 350.5t348 126.5q227 0 350 -124t123 -353q0 -219 -119 -350q-121 -136 -356 -136q-229 0 -350 125t-121 361zM244 1188q70 87 101 120t53.5 43.5t60.5 10.5q34 0 72.5 -14.5t132.5 -63.5q36 -16 61 -16q69 0 135 86l43 -39q-72 -101 -112 -135.5 t-86 -34.5q-24 0 -63 16t-128 62q-46 22 -94 22q-31 0 -55.5 -17.5t-77.5 -74.5zM330 463q0 -143 61.5 -226t167.5 -83q104 0 166.5 83t62.5 222t-62.5 222t-166.5 83t-166.5 -82t-62.5 -219z" />
<glyph unicode="&#xf6;" horiz-adv-x="1116" d="M86 463q0 224 125 350.5t348 126.5q227 0 350 -124t123 -353q0 -219 -119 -350q-121 -136 -356 -136q-229 0 -350 125t-121 361zM231 1251q0 53 37 89t92 36q53 0 89 -36.5t36 -90.5t-36.5 -90.5t-90.5 -36.5t-90.5 37t-36.5 92zM330 463q0 -143 61.5 -226t167.5 -83 q104 0 166.5 83t62.5 222t-62.5 222t-166.5 83t-166.5 -82t-62.5 -219zM633 1251q0 54 36.5 89.5t90.5 35.5t90.5 -36.5t36.5 -90.5t-37 -90.5t-92 -36.5q-54 0 -89.5 36.5t-35.5 92.5z" />
<glyph unicode="&#xf7;" d="M59 401v117h1037v-117h-1037zM438 80q0 58 40.5 98.5t99.5 40.5q57 0 97 -40.5t40 -98.5q0 -57 -40 -97t-97 -40q-58 0 -99 40t-41 97zM438 836q0 58 40.5 98.5t99.5 40.5q57 0 97 -40.5t40 -98.5q0 -57 -40 -97.5t-97 -40.5q-58 0 -99 40.5t-41 97.5z" />
<glyph unicode="&#xf8;" horiz-adv-x="1095" d="M86 455q0 224 122 354.5t331 130.5q171 0 301 -68l94 113l74 -61l-95 -115q119 -139 119 -346q0 -103 -32 -199.5t-87 -157.5q-117 -129 -356 -129q-74 0 -130.5 13t-139.5 47l-92 -115l-74 64l92 112q-66 68 -96.5 153.5t-30.5 203.5zM330 453q0 -46 6 -79t26 -87 l343 422q-66 55 -150 55q-101 0 -163 -85.5t-62 -225.5zM424 203q38 -29 66 -39t71 -10q104 0 164.5 84.5t60.5 232.5q0 70 -26 147z" />
<glyph unicode="&#xf9;" horiz-adv-x="1122" d="M139 360v558h228v-517q0 -231 182 -231q54 0 101 23t73 63q33 49 33 145v517h227v-918h-227v113q-76 -76 -139 -106t-150 -30q-91 0 -164.5 35.5t-114.5 98.5q-26 42 -37.5 98.5t-11.5 150.5zM233 1382l201 64l297 -350l-90 -19z" />
<glyph unicode="&#xfa;" horiz-adv-x="1122" d="M139 360v558h228v-517q0 -231 182 -231q54 0 101 23t73 63q33 49 33 145v517h227v-918h-227v113q-76 -76 -139 -106t-150 -30q-91 0 -164.5 35.5t-114.5 98.5q-26 42 -37.5 98.5t-11.5 150.5zM463 1096l293 346l202 -53l-403 -310z" />
<glyph unicode="&#xfb;" horiz-adv-x="1122" d="M139 360v558h228v-517q0 -231 182 -231q54 0 101 23t73 63q33 49 33 145v517h227v-918h-227v113q-76 -76 -139 -106t-150 -30q-91 0 -164.5 35.5t-114.5 98.5q-26 42 -37.5 98.5t-11.5 150.5zM221 1100l273 334h137l270 -328l-78 -23l-262 226l-260 -230z" />
<glyph unicode="&#xfc;" horiz-adv-x="1122" d="M139 360v558h228v-517q0 -231 182 -231q54 0 101 23t73 63q33 49 33 145v517h227v-918h-227v113q-76 -76 -139 -106t-150 -30q-91 0 -164.5 35.5t-114.5 98.5q-26 42 -37.5 98.5t-11.5 150.5zM233 1251q0 53 37 89t92 36q53 0 89 -36.5t36 -90.5t-36.5 -90.5t-90.5 -36.5 t-90.5 37t-36.5 92zM635 1251q0 54 36.5 89.5t90.5 35.5t90.5 -36.5t36.5 -90.5t-37 -90.5t-92 -36.5q-54 0 -89.5 36.5t-35.5 92.5z" />
<glyph unicode="&#xfd;" horiz-adv-x="931" d="M-66 -250q79 -24 125 -24q74 0 132 41.5t92 119.5l65 150l-340 881h250l221 -611l250 611h223l-399 -926q-60 -138 -107 -222.5t-100 -138t-109.5 -73t-134.5 -19.5q-43 0 -129 17zM387 1096l295 346l203 -53l-404 -310z" />
<glyph unicode="&#xfe;" horiz-adv-x="1150" d="M139 -446v1880h228v-625q64 70 130 100.5t154 30.5q184 0 299 -132.5t115 -344.5q0 -215 -115.5 -350.5t-298.5 -135.5q-84 0 -150 29.5t-134 95.5v-548h-228zM360 459q0 -138 63 -221.5t169 -83.5q104 0 166.5 82.5t62.5 220.5q0 139 -62.5 222t-166.5 83 q-103 0 -167.5 -83.5t-64.5 -219.5z" />
<glyph unicode="&#xff;" horiz-adv-x="931" d="M-66 -250q79 -24 125 -24q74 0 132 41.5t92 119.5l65 150l-340 881h250l221 -611l250 611h223l-399 -926q-60 -138 -107 -222.5t-100 -138t-109.5 -73t-134.5 -19.5q-43 0 -129 17zM150 1251q0 53 37 89t92 36q53 0 88.5 -36.5t35.5 -90.5t-36.5 -90.5t-90.5 -36.5 t-90 37t-36 92zM551 1251q0 54 36.5 89.5t90.5 35.5t90.5 -36.5t36.5 -90.5t-37 -90.5t-92 -36.5q-54 0 -89.5 36.5t-35.5 92.5z" />
<glyph unicode="&#x152;" horiz-adv-x="1964" d="M92 680q0 324 166 508q87 96 214 149.5t271 53.5q105 0 185.5 -25t175.5 -88v88h708v-192h-487v-392h490v-186h-490v-403h565v-193h-803v88q-106 -65 -184 -90t-176 -25q-135 0 -260.5 53.5t-208.5 145.5q-166 181 -166 508zM358 676q0 -236 110.5 -373t299.5 -137 q183 0 319 145v733q-74 82 -148 118t-171 36q-190 0 -300 -140t-110 -382z" />
<glyph unicode="&#x153;" horiz-adv-x="1691" d="M86 459q0 224 118.5 352.5t325.5 128.5q107 0 185.5 -36t144.5 -116q82 85 156 118.5t178 33.5q266 0 358 -186q29 -60 41 -132t13 -208h-629q2 -143 52 -211t155 -68q71 0 118.5 34.5t86.5 113.5l198 -76q-32 -61 -59 -94t-66 -60q-120 -76 -284 -76q-109 0 -191 39 q-47 22 -74.5 46.5t-62.5 74.5q-66 -85 -144.5 -122.5t-187.5 -37.5q-195 0 -313.5 132t-118.5 350zM324 461q0 -141 61 -224t166 -83q101 0 161 83.5t60 223.5q0 135 -61 217t-162 82t-163 -82t-62 -217zM981 559h401q-3 125 -46.5 178.5t-143.5 53.5q-97 0 -146.5 -54.5 t-64.5 -177.5z" />
<glyph unicode="&#x178;" horiz-adv-x="1071" d="M-63 1366h280l334 -553l323 553h254l-469 -778v-588h-245v582zM195 1647q0 53 37 89t92 36q53 0 89 -36.5t36 -90.5t-36.5 -90.5t-90.5 -36.5t-90.5 37t-36.5 92zM637 1647q0 54 36.5 89.5t90.5 35.5t90.5 -36.5t36.5 -90.5t-37 -90.5t-92 -36.5q-54 0 -89.5 36.5 t-35.5 92.5z" />
<glyph unicode="&#x2c6;" horiz-adv-x="1024" d="M172 1100l274 334h136l272 -328l-78 -23l-262 226l-260 -230z" />
<glyph unicode="&#x2dc;" horiz-adv-x="1024" d="M182 1188q70 87 101 120t53.5 43.5t60.5 10.5q34 0 72.5 -14.5t132.5 -63.5q36 -16 62 -16q69 0 135 86l43 -39q-72 -101 -112.5 -135.5t-86.5 -34.5q-24 0 -62 16t-128 62q-46 22 -95 22q-31 0 -55.5 -17.5t-77.5 -74.5z" />
<glyph unicode="&#x2000;" horiz-adv-x="924" />
<glyph unicode="&#x2001;" horiz-adv-x="1849" />
<glyph unicode="&#x2002;" horiz-adv-x="924" />
<glyph unicode="&#x2003;" horiz-adv-x="1849" />
<glyph unicode="&#x2004;" horiz-adv-x="616" />
<glyph unicode="&#x2005;" horiz-adv-x="462" />
<glyph unicode="&#x2006;" horiz-adv-x="308" />
<glyph unicode="&#x2007;" horiz-adv-x="308" />
<glyph unicode="&#x2008;" horiz-adv-x="231" />
<glyph unicode="&#x2009;" horiz-adv-x="369" />
<glyph unicode="&#x200a;" horiz-adv-x="102" />
<glyph unicode="&#x2010;" horiz-adv-x="471" d="M0 414v157h471v-157h-471z" />
<glyph unicode="&#x2011;" horiz-adv-x="471" d="M0 414v157h471v-157h-471z" />
<glyph unicode="&#x2012;" horiz-adv-x="471" d="M0 414v157h471v-157h-471z" />
<glyph unicode="&#x2013;" horiz-adv-x="1093" d="M125 442v105h844v-105h-844z" />
<glyph unicode="&#x2014;" horiz-adv-x="1413" d="M0 442v105h1413v-105h-1413z" />
<glyph unicode="&#x2018;" horiz-adv-x="561" d="M143 868v240l199 317l127 9l-72 -207q-45 -128 -45 -197v-162h-209z" />
<glyph unicode="&#x2019;" horiz-adv-x="573" d="M96 868l72 207q45 131 45 197v162h209v-240l-199 -315z" />
<glyph unicode="&#x201a;" horiz-adv-x="509" d="M72 -285l67 199q45 123 45 188v156h199v-231l-193 -303z" />
<glyph unicode="&#x201c;" horiz-adv-x="884" d="M143 868v240l199 317l125 9l-70 -207q-45 -128 -45 -197v-162h-209zM469 868v240l199 315l127 11l-72 -207q-45 -134 -45 -197v-162h-209z" />
<glyph unicode="&#x201d;" horiz-adv-x="884" d="M90 868l72 207q45 128 45 197v162h209v-240l-199 -315zM418 868l69 207q45 128 45 197v162h209v-240l-198 -315z" />
<glyph unicode="&#x201e;" horiz-adv-x="884" d="M92 -287l94 207q23 47 37.5 102.5t14.5 94.5v162h208v-240l-217 -318zM389 -287l94 207q23 46 37.5 102.5t14.5 94.5v162h208v-240l-217 -318z" />
<glyph unicode="&#x2022;" horiz-adv-x="1366" d="M401 692q0 120 83.5 202.5t203.5 82.5q115 0 198 -83.5t83 -199.5q0 -118 -83 -201t-200 -83q-118 0 -201.5 82.5t-83.5 199.5z" />
<glyph unicode="&#x2026;" horiz-adv-x="1691" d="M141 115q0 57 41 97t99 40q59 0 99 -40t40 -99t-40.5 -99.5t-98.5 -40.5q-60 0 -100 41t-40 101zM705 115q0 57 40.5 97t98.5 40t98.5 -40t40.5 -99t-40.5 -99.5t-98.5 -40.5q-60 0 -99.5 41t-39.5 101zM1270 115q0 57 40.5 97t98.5 40q59 0 99 -40t40 -99t-40.5 -99.5 t-98.5 -40.5q-60 0 -99.5 41t-39.5 101z" />
<glyph unicode="&#x202f;" horiz-adv-x="369" />
<glyph unicode="&#x2039;" horiz-adv-x="532" d="M80 461l244 457h106l-131 -457l139 -461h-114z" />
<glyph unicode="&#x203a;" horiz-adv-x="532" d="M94 918h115l244 -461l-244 -457h-107l131 457z" />
<glyph unicode="&#x205f;" horiz-adv-x="462" />
<glyph unicode="&#x20ac;" horiz-adv-x="1378" d="M0 459v110h152q-7 89 -7 109q0 41 2 78h-147v110h164q51 248 233 388.5t453 140.5q218 0 336 -78q46 -29 83.5 -72.5t92.5 -132.5l-203 -123q-22 59 -41.5 89.5t-50.5 54.5q-90 69 -229 69q-155 0 -260.5 -87.5t-143.5 -248.5h373v-110h-391q-4 -43 -4 -90q0 -38 6 -97 h389v-110h-369q37 -139 143 -218t255 -79q139 0 231 76q29 23 48 52t44 87l205 -123q-55 -86 -95.5 -129.5t-94.5 -75.5q-128 -78 -336 -78q-207 0 -360 74t-232 213q-49 84 -76 201h-170z" />
<glyph unicode="&#x2122;" horiz-adv-x="1800" d="M0 1239v127h641v-127h-240v-692h-163v692h-238zM723 547v819h188l275 -582l274 582h187v-819h-160v532l-242 -532h-121l-241 532v-532h-160z" />
<glyph unicode="&#xe000;" horiz-adv-x="921" d="M0 0v922h922v-922h-922z" />
</font>
</defs>
</svg>
