<?xml version="1.0" standalone="no"?>
<!DOCTYPE svg PUBLIC "-//W3C//DTD SVG 1.1//EN" "http://www.w3.org/Graphics/SVG/1.1/DTD/svg11.dtd" >
<svg xmlns="http://www.w3.org/2000/svg">
<metadata></metadata>
<defs>
<font id="urwgroteskligregular" horiz-adv-x="1112" >
<font-face units-per-em="2048" ascent="1434" descent="-614" />
<missing-glyph horiz-adv-x="512" />
<glyph unicode="&#xfb01;" horiz-adv-x="1005" d="M35 772v129h121v137q0 189 83 292.5t236 103.5q45 0 117 -13v-155q-30 20 -49 26t-49 6q-88 0 -138.5 -71t-50.5 -195v-131h254v-129h-254v-772h-149v772h-121zM666 1260q0 41 30.5 70.5t71.5 29.5q43 0 72.5 -30t29.5 -73t-29.5 -72.5t-72.5 -29.5t-72.5 30.5 t-29.5 74.5zM700 0v901h150v-901h-150z" />
<glyph unicode="&#xfb02;" horiz-adv-x="1005" d="M35 772v129h121v137q0 189 83 292.5t236 103.5q45 0 117 -13v-155q-30 20 -49 26t-49 6q-88 0 -138.5 -71t-50.5 -195v-131h254v-129h-254v-772h-149v772h-121zM700 0v1434h150v-1434h-150z" />
<glyph unicode="&#xfb03;" horiz-adv-x="1550" d="M35 772v129h121v137q0 189 83 292.5t236 103.5q45 0 117 -13v-155q-30 20 -49.5 26t-48.5 6q-88 0 -138.5 -71t-50.5 -195v-131h393v125q0 193 80 300.5t223 107.5q37 0 101 -13v-155q-26 18 -42 24t-40 6q-82 0 -127 -72.5t-45 -203.5v-119h254v-129h-254v-772h-150v772 h-393v-772h-149v772h-121zM1208 1260q0 41 30.5 70.5t72.5 29.5q43 0 72.5 -30t29.5 -73t-29.5 -72.5t-72.5 -29.5t-73 30.5t-30 74.5zM1243 0v901h150v-901h-150z" />
<glyph unicode="&#xfb04;" horiz-adv-x="1548" d="M35 772v129h121v137q0 189 83 292.5t236 103.5q45 0 117 -13v-155q-30 20 -49.5 26t-48.5 6q-88 0 -138.5 -71t-50.5 -195v-131h393v125q0 193 80 300.5t223 107.5q37 0 101 -13v-155q-26 18 -42 24t-40 6q-82 0 -127 -72.5t-45 -203.5v-119h254v-129h-254v-772h-150v772 h-393v-772h-149v772h-121zM1243 0v1434h150v-1434h-150z" />
<glyph horiz-adv-x="2048" />
<glyph horiz-adv-x="2048" />
<glyph unicode="&#xd;" horiz-adv-x="2048" />
<glyph unicode=" "  horiz-adv-x="512" />
<glyph unicode="&#x09;" horiz-adv-x="512" />
<glyph unicode="&#xa0;" horiz-adv-x="512" />
<glyph unicode="!" horiz-adv-x="491" d="M137 84q0 44 32.5 76.5t76.5 32.5q46 0 78 -32.5t32 -76.5q0 -46 -32 -78.5t-76 -32.5q-46 0 -78.5 32.5t-32.5 78.5zM174 1018v348h143v-348l-24 -619h-94z" />
<glyph unicode="&#x22;" horiz-adv-x="673" d="M109 1366h163l-24 -549h-115zM401 1366h164l-24 -549h-117z" />
<glyph unicode="#" horiz-adv-x="884" d="M33 324l26 125h148l112 520h-155l26 121h154l57 276h88l-59 -276h197l59 276h86l-57 -276h147l-24 -121h-148l-104 -520h149l-24 -125h-150l-65 -324h-93l68 324h-199l-65 -324h-94l69 324h-149zM301 449h197l106 520h-198z" />
<glyph unicode="$" d="M113 203l147 114q26 -89 86.5 -142.5t142.5 -57.5v514q-170 88 -243.5 178t-73.5 211q0 136 88.5 235t228.5 119v142h95v-138q106 -3 181.5 -48t129.5 -140l-133 -109q-29 83 -69.5 120.5t-108.5 45.5v-471q200 -107 278 -196t78 -209q0 -83 -38 -162.5t-103 -132.5 q-78 -65 -215 -86v-207h-95v203q-129 2 -225.5 57.5t-150.5 159.5zM338 1040q0 -74 33.5 -121.5t117.5 -91.5v416q-69 -17 -110 -72.5t-41 -130.5zM584 123q86 20 135 81.5t49 147.5q0 68 -48 128.5t-136 103.5v-461z" />
<glyph unicode="%" horiz-adv-x="1540" d="M150 -199l1075 1653l84 -16l-1071 -1651zM170 1051q0 160 75.5 241.5t223.5 81.5q299 0 299 -327q0 -328 -301 -328q-297 0 -297 332zM315 1049q0 -131 37 -191.5t119 -60.5q80 0 118 60.5t38 189.5q0 128 -38 188.5t-118 60.5t-118 -60t-38 -187zM772 328 q0 158 75.5 239.5t223.5 81.5q297 0 297 -325q0 -328 -301 -328q-295 0 -295 332zM918 326q0 -131 37 -191.5t118 -60.5q78 0 116 61t38 189q0 127 -38 187t-116 60q-80 0 -117.5 -59.5t-37.5 -185.5z" />
<glyph unicode="&#x26;" horiz-adv-x="1333" d="M102 391q0 124 66.5 210.5t208.5 148.5q-60 91 -84.5 158t-24.5 141q0 151 101.5 247.5t261.5 96.5q129 0 210 -78t81 -203q0 -131 -73.5 -220.5t-254.5 -178.5q152 -218 342 -365q51 82 73.5 154t22.5 155q0 21 -2 37h162q-9 -131 -41 -222t-107 -202q70 -46 116.5 -66 t160.5 -52l-113 -152q-99 44 -145.5 71t-118.5 81q-124 -103 -211.5 -141t-197.5 -38q-185 0 -309 120t-124 298zM262 377q0 -85 64 -168q91 -107 233 -107q80 0 145 29.5t138 99.5q-92 72 -201.5 190t-183.5 222q-84 -40 -119 -80q-76 -82 -76 -186zM422 1051 q0 -58 20.5 -112.5t67.5 -123.5q110 49 164 88q50 35 79 89t29 110q0 78 -44.5 125t-119.5 47q-87 0 -141.5 -62t-54.5 -161z" />
<glyph unicode="'" horiz-adv-x="382" d="M109 1366h163l-24 -549h-115z" />
<glyph unicode="(" horiz-adv-x="552" d="M102 492q0 376 111 655q36 89 76.5 151t113.5 136h95q-70 -83 -103.5 -144t-62.5 -160q-82 -268 -82 -638q0 -371 82 -639q29 -99 62.5 -160t103.5 -144h-95q-73 74 -113.5 136t-76.5 151q-111 279 -111 656z" />
<glyph unicode=")" horiz-adv-x="552" d="M55 -451q70 82 104.5 143.5t63.5 160.5q82 268 82 641q0 368 -82 636q-29 99 -63 160.5t-105 143.5h95q73 -74 113.5 -136t76.5 -151q111 -279 111 -655q0 -377 -111 -656q-36 -89 -76.5 -151t-113.5 -136h-95z" />
<glyph unicode="*" horiz-adv-x="833" d="M68 1153l12 41l287 -72l28 312h41l29 -312l287 72l12 -41l-275 -121l160 -250l-28 -26l-205 215l-205 -215l-33 26l164 250z" />
<glyph unicode="+" horiz-adv-x="1064" d="M31 401v91h450v462h99v-462h456v-91h-456v-454h-99v454h-450z" />
<glyph unicode="," horiz-adv-x="464" d="M45 -283l74 191q47 118 47 166v145h156v-219l-189 -283h-88z" />
<glyph unicode="-" horiz-adv-x="430" d="M0 432v115h430v-115h-430z" />
<glyph unicode="." horiz-adv-x="464" d="M123 84q0 44 32.5 76.5t77.5 32.5q44 0 76.5 -32.5t32.5 -76.5q0 -46 -32.5 -78.5t-76.5 -32.5q-46 0 -78 32.5t-32 78.5z" />
<glyph unicode="/" horiz-adv-x="808" d="M-74 -457l758 1911l80 -18l-758 -1907z" />
<glyph unicode="0" d="M90 678q0 344 123 529.5t350 185.5q215 0 337 -189t122 -522q0 -335 -122.5 -522t-342.5 -187q-221 0 -344 186.5t-123 518.5zM260 678q0 -295 92 -455q65 -121 205 -121q138 0 203 121q92 164 92 459q0 280 -75.5 431t-215.5 151q-143 0 -209 -121q-92 -164 -92 -465z " />
<glyph unicode="1" d="M256 1067v80q131 12 205.5 34t123 64t89.5 121h92v-1366h-164v1081z" />
<glyph unicode="2" d="M164 0v115q184 196 255 278.5t132 169.5q97 135 140.5 248t43.5 229q0 105 -54.5 164.5t-150.5 59.5q-97 0 -150.5 -64.5t-66.5 -200.5l-143 97q32 91 59.5 138.5t69.5 84.5q86 74 231 74q180 0 277.5 -90t97.5 -256q0 -117 -47.5 -232t-162 -272t-335.5 -412h590v-131 h-786z" />
<glyph unicode="3" d="M88 190l131 99q59 -97 119.5 -137.5t150.5 -40.5q120 0 190.5 80t70.5 217q0 121 -68 192.5t-184 71.5q-21 0 -123 -13v162q16 -2 37 -2q104 0 182 62q76 64 76 188q0 94 -45.5 145.5t-128.5 51.5q-70 0 -113.5 -38t-75.5 -128l-137 80q58 114 135.5 163.5t194.5 49.5 q152 0 246 -86.5t94 -227.5q0 -202 -201 -315q68 -15 108.5 -35t77.5 -57q95 -95 95 -246q0 -200 -123 -326.5t-316 -126.5q-126 0 -212.5 48t-180.5 169z" />
<glyph unicode="4" d="M84 305v129l563 932h184v-932h189v-129h-189v-305h-149v305h-598zM256 434h426v742z" />
<glyph unicode="5" d="M113 207l133 88q84 -193 256 -193q136 0 224.5 98t88.5 249q0 139 -68.5 220t-185.5 81q-67 0 -114 -26t-97 -91l-127 57l101 676h608v-129h-483l-74 -438q56 45 104 62.5t115 17.5q174 0 282.5 -113.5t108.5 -296.5q0 -94 -32 -186.5t-89 -159.5q-122 -150 -356 -150 q-137 0 -229.5 55t-165.5 179z" />
<glyph unicode="6" d="M145 578q0 244 67 429t190.5 285.5t285.5 100.5q77 0 130.5 -21t117.5 -76l-76 -133q-34 54 -75.5 77.5t-104.5 23.5q-86 0 -159 -50.5t-124 -144.5q-39 -73 -58.5 -155.5t-29.5 -221.5q70 81 140.5 115.5t166.5 34.5q167 0 266 -112t99 -302q0 -198 -114.5 -326.5 t-291.5 -128.5q-207 0 -318.5 157.5t-111.5 447.5zM315 416q0 -143 67 -228.5t181 -85.5q115 0 181.5 82.5t66.5 225.5q0 148 -60.5 225.5t-175.5 77.5q-121 0 -190.5 -79.5t-69.5 -217.5z" />
<glyph unicode="7" d="M174 1237v129h784v-123l-552 -1243h-164l553 1237h-621z" />
<glyph unicode="8" d="M139 397q0 172 86 275q44 53 140 90q-177 105 -177 287q0 158 99.5 251t267.5 93q169 0 269 -93t100 -251q0 -182 -174 -287q53 -21 82.5 -40.5t54.5 -49.5q86 -103 86 -275q0 -195 -117 -315q-106 -109 -301 -109q-193 0 -299 109q-117 120 -117 315zM305 391 q0 -138 65.5 -213.5t186.5 -75.5q120 0 185 75.5t65 215.5q0 137 -64.5 213t-181.5 76q-124 0 -190 -75t-66 -216zM342 1038q0 -106 56.5 -166.5t154.5 -60.5q103 0 160 60t57 167q0 106 -56.5 166t-156.5 60q-101 0 -158 -60t-57 -166z" />
<glyph unicode="9" d="M129 926q0 214 114.5 340.5t307.5 126.5q209 0 306 -147t97 -462q0 -380 -155 -595.5t-430 -215.5q-126 0 -213 43l39 142q42 -31 77.5 -43.5t87.5 -12.5q87 0 165 39t132 109q59 75 87.5 159t48.5 242q-69 -76 -138.5 -109.5t-158.5 -33.5q-95 0 -162 31.5t-117 97.5 q-88 116 -88 289zM301 946q0 -309 227 -309q117 0 186.5 83.5t69.5 223.5q0 68 -16.5 134t-42.5 104q-26 39 -73 60.5t-105 21.5q-120 0 -183 -82t-63 -236z" />
<glyph unicode=":" horiz-adv-x="464" d="M123 84q0 44 32.5 76.5t77.5 32.5q44 0 76.5 -32.5t32.5 -76.5q0 -46 -32.5 -78.5t-76.5 -32.5q-46 0 -78 32.5t-32 78.5zM123 766q0 44 32 76t78 32q44 0 76.5 -32t32.5 -76q0 -46 -32.5 -78.5t-76.5 -32.5q-46 0 -78 32.5t-32 78.5z" />
<glyph unicode=";" horiz-adv-x="464" d="M31 -283l73 191q48 121 48 166v145h155v-219l-188 -283h-88zM117 807q0 44 32 76t78 32q44 0 76.5 -32t32.5 -76q0 -46 -32.5 -78.5t-76.5 -32.5q-46 0 -78 32.5t-32 78.5z" />
<glyph unicode="&#x3c;" horiz-adv-x="1050" d="M29 418v71l946 373l47 -74l-842 -335l842 -334l-70 -80z" />
<glyph unicode="=" horiz-adv-x="1105" d="M39 268v90h1028v-90h-1028zM39 543v90h1028v-90h-1028z" />
<glyph unicode="&#x3e;" horiz-adv-x="1050" d="M29 113l841 331l-841 336l47 76l946 -373v-71l-924 -381z" />
<glyph unicode="?" horiz-adv-x="690" d="M41 1165q41 117 116 172.5t195 55.5q122 0 195 -70q40 -39 63 -94t23 -115q0 -110 -66 -205q-23 -35 -43.5 -60t-117.5 -130q-84 -90 -84 -166q0 -101 75 -191h-153q-37 41 -52.5 81t-15.5 94q0 79 34 141t128 153q86 85 120 143.5t34 123.5q0 67 -43 110t-111 43 q-133 0 -160 -151zM201 84q0 44 32 76.5t76 32.5q46 0 78.5 -32.5t32.5 -76.5q0 -46 -32.5 -78.5t-76.5 -32.5q-46 0 -78 32.5t-32 78.5z" />
<glyph unicode="@" horiz-adv-x="1386" d="M61 530q0 206 89 366.5t249.5 249.5t366.5 89q252 0 400.5 -125.5t148.5 -337.5q0 -134 -55 -250.5t-147.5 -185t-199.5 -68.5q-109 0 -149 115q-51 -60 -97 -85.5t-106 -25.5q-97 0 -154 68t-57 184q0 123 47 229.5t126.5 169t170.5 62.5q118 0 174 -104l21 92h98 l-94 -445q-14 -68 -14 -116q0 -40 21 -62t58 -22q67 0 127 60.5t96 161.5t36 214q0 97 -29 167.5t-92 125.5q-124 112 -328 112q-276 0 -444 -204q-148 -187 -148 -437q0 -240 146 -364q66 -55 160.5 -86t197.5 -31q134 0 243 43t210 137l-17 -77q-110 -94 -218.5 -135.5 t-240.5 -41.5q-127 0 -242.5 41.5t-197.5 116.5q-156 147 -156 399zM475 526q0 -97 28 -141.5t89 -44.5q92 0 151 104q32 55 61.5 164t29.5 172q0 68 -32.5 109t-86.5 41q-98 0 -169 -119t-71 -285z" />
<glyph unicode="A" horiz-adv-x="1226" d="M-6 0l545 1366h151l545 -1366h-176l-170 442h-555l-164 -442h-176zM387 575h449l-228 590z" />
<glyph unicode="B" horiz-adv-x="1114" d="M190 0v1366h322q121 0 176.5 -10t102.5 -39q68 -43 104.5 -112t36.5 -154q0 -97 -46.5 -169.5t-144.5 -131.5q68 -27 104 -48.5t68 -56.5q88 -97 88 -239q0 -106 -46.5 -196t-129.5 -144q-101 -66 -278 -66h-357zM354 129h156q83 0 136 17t93 55q84 78 84 202 q0 86 -36.5 148t-102.5 90q-60 25 -190 25h-140v-537zM354 795h105q157 0 223 55q74 61 74 182q0 106 -70 164q-31 23 -68 32t-106 9h-158v-442z" />
<glyph unicode="C" horiz-adv-x="1304" d="M102 670q0 327 188.5 525t500.5 198q171 0 305 -64q56 -26 95 -58.5t93 -96.5l-119 -113q-60 105 -150 154t-224 49q-233 0 -371.5 -161t-138.5 -431q0 -129 35 -240.5t96 -177.5q63 -69 167 -110.5t214 -41.5q156 0 262 72q33 24 56.5 52t53.5 81l119 -114 q-54 -64 -92.5 -96t-95.5 -60q-137 -64 -308 -64q-133 0 -255.5 38t-206.5 104q-104 85 -164 233t-60 322z" />
<glyph unicode="D" horiz-adv-x="1396" d="M190 0v1366h426q172 0 278.5 -25.5t182.5 -85.5q103 -83 159 -225.5t56 -322.5q0 -207 -75.5 -370.5t-210.5 -246.5q-145 -90 -390 -90h-426zM354 129h271q217 0 327 104q78 72 120 192t42 275q0 161 -45 281t-131 184q-56 43 -118 57.5t-195 14.5h-271v-1108z" />
<glyph unicode="E" horiz-adv-x="1001" d="M190 0v1366h668v-129h-504v-475h504v-129h-504v-504h578v-129h-742z" />
<glyph unicode="F" horiz-adv-x="888" d="M190 0v1366h658v-129h-494v-483h445v-129h-445v-625h-164z" />
<glyph unicode="G" horiz-adv-x="1388" d="M102 668q0 327 188 526t498 199q175 0 316 -72q57 -29 95 -62.5t91 -99.5l-125 -108q-34 60 -62.5 91t-72.5 60q-103 62 -239 62q-233 0 -371.5 -161t-138.5 -431q0 -129 34.5 -239t96.5 -179q63 -71 169.5 -111.5t227.5 -40.5q86 0 149 12.5t134 43.5v370h-381v129h544 v-581q-123 -57 -224.5 -80t-229.5 -23q-143 0 -267.5 37.5t-207.5 104.5q-105 87 -164.5 233.5t-59.5 319.5z" />
<glyph unicode="H" horiz-adv-x="1419" d="M190 0v1366h164v-608h709v608h164v-1366h-164v629h-709v-629h-164z" />
<glyph unicode="I" horiz-adv-x="546" d="M190 0v1366h164v-1366h-164z" />
<glyph unicode="J" horiz-adv-x="753" d="M-92 147l121 93q34 -69 79 -99t115 -30q126 0 168 102q23 62 23 197v956h164v-954q0 -123 -14 -187.5t-52 -115.5q-47 -65 -121 -100.5t-162 -35.5q-60 0 -119.5 16t-99.5 42q-28 21 -50 45.5t-52 70.5z" />
<glyph unicode="K" horiz-adv-x="1140" d="M190 0v1366h164v-608l588 608h191l-617 -635l686 -731h-221l-627 670v-670h-164z" />
<glyph unicode="L" horiz-adv-x="905" d="M190 0v1366h164v-1237h549v-129h-713z" />
<glyph unicode="M" horiz-adv-x="1753" d="M190 0v1366h164l523 -1137l520 1137h164v-1366h-158v1018l-469 -1018h-117l-469 1018v-1018h-158z" />
<glyph unicode="N" horiz-adv-x="1497" d="M190 0v1366h158l799 -1110v1110h158v-1366h-158l-799 1110v-1110h-158z" />
<glyph unicode="O" horiz-adv-x="1503" d="M102 694q0 350 197 535q173 164 453 164q279 0 452 -164q197 -185 197 -545q0 -359 -197 -547q-170 -164 -450 -164q-285 0 -455 164q-103 97 -150 231t-47 326zM281 692q0 -280 124 -435t347 -155q220 0 345.5 155t125.5 427q0 270 -125.5 425t-345.5 155 q-218 0 -344.5 -154t-126.5 -418z" />
<glyph unicode="P" horiz-adv-x="983" d="M190 0v1366h334q120 0 186.5 -15.5t118.5 -54.5q60 -47 92.5 -120.5t32.5 -161.5q0 -106 -47 -195t-129 -139q-50 -29 -131.5 -47.5t-163.5 -18.5h-129v-614h-164zM354 743h129q144 0 218.5 67t74.5 196q0 137 -84 196q-52 35 -164 35h-174v-494z" />
<glyph unicode="Q" horiz-adv-x="1503" d="M102 684q0 357 197 545q170 164 453 164q282 0 452 -164q197 -188 197 -551q0 -359 -197 -541q-45 -42 -94.5 -71t-134.5 -62l721 -190l-125 -125l-893 286q-278 28 -427 211t-149 498zM281 692q0 -280 124 -435t347 -155q220 0 345.5 155t125.5 425q0 272 -125.5 427 t-345.5 155q-218 0 -344.5 -154t-126.5 -418z" />
<glyph unicode="R" horiz-adv-x="1144" d="M190 0v1366h320q194 0 274 -35q83 -35 131 -117t48 -188q0 -83 -31.5 -160t-87.5 -131q-33 -30 -67 -49t-93 -41l428 -645h-199l-403 625h-156v-625h-164zM354 754h123q83 0 124.5 8.5t80.5 34.5q49 32 75.5 91t26.5 136q0 163 -122 201q-26 9 -50 10.5t-139 1.5h-119 v-483z" />
<glyph unicode="S" horiz-adv-x="964" d="M57 176l115 133q37 -98 108.5 -152.5t165.5 -54.5q110 0 179 69t69 179q0 108 -78 174q-31 28 -52.5 42t-119.5 71q-181 106 -250 191.5t-69 205.5q0 154 108 256.5t271 102.5q113 0 194.5 -44t143.5 -137l-115 -114q-40 88 -93.5 127t-135.5 39q-91 0 -149 -59t-58 -150 q0 -83 47.5 -138t189.5 -137q105 -60 155.5 -95t88.5 -73q94 -91 94 -239q0 -179 -118 -289.5t-308 -110.5q-253 0 -383 203z" />
<glyph unicode="T" horiz-adv-x="919" d="M-20 1237v129h960v-129h-401v-1237h-164v1237h-395z" />
<glyph unicode="U" horiz-adv-x="1400" d="M178 557v809h164v-815q0 -142 10.5 -201.5t44.5 -109.5q43 -64 124 -101t179 -37q107 0 192.5 42.5t125.5 115.5q26 46 34.5 103t8.5 188v815h164v-809q0 -155 -14 -234t-54 -143q-61 -101 -178.5 -154t-278.5 -53q-171 0 -291.5 60t-177.5 174q-31 62 -42 134t-11 216z " />
<glyph unicode="V" horiz-adv-x="1183" d="M-6 1366h176l420 -1092l469 1092h160l-588 -1366h-113z" />
<glyph unicode="W" horiz-adv-x="1839" d="M6 1366h158l323 -1102l375 1102h111l325 -1102l381 1102h146l-473 -1366h-131l-316 1075l-364 -1075h-129z" />
<glyph unicode="X" horiz-adv-x="1083" d="M14 1366h197l330 -530l305 530h176l-393 -653l446 -713h-194l-346 569l-336 -569h-174l415 698z" />
<glyph unicode="Y" horiz-adv-x="980" d="M-55 1366h190l363 -596l356 596h174l-457 -760v-606h-163v606z" />
<glyph unicode="Z" horiz-adv-x="1005" d="M0 0v133l772 1104h-696v129h878v-135l-772 -1098h850v-133h-1032z" />
<glyph unicode="[" horiz-adv-x="550" d="M164 -451v1885h328v-88l-197 -17v-1675l197 -16v-89h-328z" />
<glyph unicode="\" horiz-adv-x="808" d="M-14 1436l80 18l757 -1911l-80 -14z" />
<glyph unicode="]" horiz-adv-x="550" d="M59 -362l197 16v1675l-197 17v88h328v-1885h-328v89z" />
<glyph unicode="^" horiz-adv-x="888" d="M94 930l309 497h66l324 -497l-93 -31l-260 412l-254 -412z" />
<glyph unicode="_" d="M0 -133h1112v-88h-1112v88z" />
<glyph unicode="`" horiz-adv-x="1024" d="M168 1401l162 33l280 -332l-69 -12z" />
<glyph unicode="a" horiz-adv-x="1081" d="M92 451q0 206 114 338.5t292 132.5q83 0 146.5 -30t129.5 -101v110h150v-901h-150v111q-64 -69 -130 -100t-148 -31q-84 0 -165.5 39.5t-137.5 107.5q-101 125 -101 324zM256 455q0 -157 72 -250.5t192 -93.5q119 0 191.5 94t72.5 248t-72 247t-192 93q-119 0 -191.5 -93 t-72.5 -245z" />
<glyph unicode="b" horiz-adv-x="1081" d="M158 0v1434h149v-643q64 69 130.5 100t148.5 31q86 0 166.5 -39.5t136.5 -108.5q100 -124 100 -323q0 -200 -100 -324q-56 -68 -137 -107.5t-164 -39.5t-150 31t-131 100l-82 -111h-67zM297 455q0 -157 72 -250.5t192 -93.5t192 93t72 247t-72 247t-192 93 q-118 0 -191 -92.5t-73 -243.5z" />
<glyph unicode="c" horiz-adv-x="892" d="M92 451q0 214 116 342.5t308 128.5q170 0 264 -97q29 -31 44.5 -65.5t27.5 -97.5l-139 -56q-6 97 -51 142t-136 45q-124 0 -197 -92t-73 -248q0 -148 74 -252q64 -92 184 -92q80 0 124 35t75 122l145 -43q-25 -69 -47.5 -105t-60.5 -67q-95 -71 -236 -71 q-191 0 -306.5 129t-115.5 342z" />
<glyph unicode="d" horiz-adv-x="1081" d="M92 451q0 198 101 323q55 69 136.5 108.5t166.5 39.5q82 0 148 -31t130 -100v643h150v-1434h-150v111q-64 -69 -130 -100t-148 -31q-84 0 -165.5 39.5t-137.5 107.5q-101 125 -101 324zM256 455q0 -157 72 -250.5t192 -93.5q118 0 191 94t73 246q0 154 -72 247t-192 93 q-118 0 -191 -92.5t-73 -243.5z" />
<glyph unicode="e" horiz-adv-x="966" d="M92 451q0 212 116 341.5t306 129.5q230 0 311 -185q26 -58 35.5 -127t11.5 -198h-614q9 -89 29 -140t61 -92q68 -71 180 -71q71 0 119.5 36.5t89.5 120.5l135 -67q-75 -124 -152 -171.5t-202 -47.5q-194 0 -310 128t-116 343zM264 541h453q-1 73 -10 112t-31 70 q-51 82 -172 82q-106 0 -168 -67.5t-72 -196.5z" />
<glyph unicode="f" horiz-adv-x="575" d="M47 772v129h119v119q0 194 61 285q84 129 246 129q65 0 143 -33l-41 -127q-51 31 -94 31q-166 0 -166 -267v-137h267v-129h-267v-772h-149v772h-119z" />
<glyph unicode="g" horiz-adv-x="1081" d="M92 451q0 198 101 323q56 68 137 108t166 40q82 0 148 -31t130 -100v110h150v-901q0 -181 -72 -293q-55 -83 -145.5 -130.5t-192.5 -47.5q-132 0 -248 76q-46 32 -75.5 69t-67.5 109l127 96q72 -221 258 -221q149 0 221 131q45 80 45 238v84q-65 -69 -131 -100t-149 -31 t-164 39.5t-137 107.5q-101 125 -101 324zM256 455q0 -157 72 -250.5t192 -93.5t192 93t72 247t-72 247t-192 93q-118 0 -191 -92.5t-73 -243.5z" />
<glyph unicode="h" horiz-adv-x="1052" d="M158 0v1434h149v-641q69 73 130 102t145 29q83 0 152 -32t110 -89q29 -41 41 -94t12 -140v-569h-149v565q0 113 -50.5 170.5t-148.5 57.5q-58 0 -112.5 -24t-86.5 -64q-43 -51 -43 -144v-561h-149z" />
<glyph unicode="i" horiz-adv-x="464" d="M123 1260q0 41 30.5 70.5t71.5 29.5q43 0 73 -30t30 -73t-30 -72.5t-73 -29.5t-72.5 30.5t-29.5 74.5zM156 0v901h149v-901h-149z" />
<glyph unicode="j" horiz-adv-x="464" d="M-111 -334q44 -8 70 -8q95 0 147 55t52 209v979h149v-975q0 -110 -14 -169t-51 -105q-86 -103 -238 -103q-22 0 -98 9zM125 1260q0 41 30.5 70.5t71.5 29.5q43 0 73 -30t30 -73t-30 -72.5t-73 -29.5q-42 0 -72 31t-30 74z" />
<glyph unicode="k" horiz-adv-x="882" d="M158 0v1434h149v-918l307 385h177l-328 -403l426 -498h-199l-383 457v-457h-149z" />
<glyph unicode="l" horiz-adv-x="464" d="M158 0v1434h149v-1434h-149z" />
<glyph unicode="m" horiz-adv-x="1605" d="M158 0v901h149v-100q67 67 127.5 94t145.5 27q91 0 149 -31t111 -107q68 74 137.5 106t161.5 32q145 0 228 -83t83 -229v-610h-150v575q0 113 -46.5 165.5t-147.5 52.5q-103 0 -166 -60q-57 -54 -57 -168v-565h-150v575q0 113 -47.5 165.5t-148.5 52.5q-104 0 -167 -62.5 t-63 -165.5v-565h-149z" />
<glyph unicode="n" horiz-adv-x="1052" d="M158 0v901h149v-108q69 73 130 102t145 29q83 0 152 -32t110 -89q29 -41 41 -94t12 -140v-569h-149v565q0 113 -50.5 170.5t-148.5 57.5q-58 0 -112.5 -24t-86.5 -64q-43 -51 -43 -144v-561h-149z" />
<glyph unicode="o" horiz-adv-x="1040" d="M92 457q0 209 117.5 337t310.5 128q194 0 310 -128t116 -343t-116 -343t-310 -128q-198 0 -313 128.5t-115 348.5zM256 455q0 -158 72 -252t192 -94q118 0 190 94t72 248t-72 248t-190 94q-119 0 -191.5 -93t-72.5 -245z" />
<glyph unicode="p" horiz-adv-x="1081" d="M158 -451v1352h149v-110q64 69 130.5 100t148.5 31q86 0 166.5 -39.5t136.5 -108.5q100 -124 100 -323q0 -200 -100 -324q-56 -68 -137 -107.5t-164 -39.5t-150 31t-131 100v-562h-149zM297 455q0 -157 72 -250.5t192 -93.5t192 93t72 247t-72 247t-192 93 q-118 0 -191 -92.5t-73 -243.5z" />
<glyph unicode="q" horiz-adv-x="1081" d="M92 451q0 198 101 323q55 69 136.5 108.5t166.5 39.5q82 0 148 -31t130 -100l82 110h68v-1352h-150v562q-64 -69 -130 -100t-148 -31q-84 0 -165.5 39.5t-137.5 107.5q-101 125 -101 324zM256 455q0 -157 72 -250.5t192 -93.5q118 0 191 94t73 246q0 154 -72 247t-192 93 q-118 0 -191 -92.5t-73 -243.5z" />
<glyph unicode="r" horiz-adv-x="698" d="M158 0v901h149v-133q63 83 121 118.5t131 35.5q45 0 80.5 -16.5t85.5 -59.5l-74 -125q-35 42 -65 59t-70 17q-84 0 -146.5 -80.5t-62.5 -188.5v-528h-149z" />
<glyph unicode="s" horiz-adv-x="829" d="M51 223l144 62q48 -183 206 -183q82 0 133.5 44.5t51.5 115.5q0 58 -38 86.5t-163 63.5q-92 25 -131.5 44.5t-71.5 57.5q-53 62 -53 148q0 116 84 188t219 72q109 0 177.5 -37t119.5 -123l-131 -84q-17 63 -56 92t-108 29q-68 0 -109.5 -34t-41.5 -89q0 -56 39 -84 t159 -57q83 -22 126.5 -42t72.5 -51q28 -31 44.5 -76.5t16.5 -91.5q0 -129 -99.5 -211.5t-254.5 -82.5q-127 0 -206 57t-130 186z" />
<glyph unicode="t" horiz-adv-x="632" d="M35 772v129h145v229l150 62v-291h254v-129h-254v-434q0 -102 12 -143.5t49 -63.5q42 -22 101 -22q46 0 106 22l-14 -127q-88 -24 -140 -24q-83 0 -143 31.5t-88 88.5q-33 70 -33 242v430h-145z" />
<glyph unicode="u" horiz-adv-x="1052" d="M158 334v567h149v-563q0 -229 201 -229q57 0 111 24t86 64q43 51 43 143v561h149v-901h-149v109q-70 -73 -131 -102.5t-144 -29.5t-152 32t-110 89q-29 41 -41 94.5t-12 141.5z" />
<glyph unicode="v" horiz-adv-x="884" d="M20 901h162l275 -688l274 688h148l-363 -901h-133z" />
<glyph unicode="w" horiz-adv-x="1382" d="M47 901h158l211 -670l229 670h127l209 -657l227 657h148l-318 -901h-135l-205 651l-223 -651h-143z" />
<glyph unicode="x" horiz-adv-x="804" d="M-10 0l332 485l-256 416h172l174 -299l190 299h164l-277 -403l302 -498h-175l-225 391l-235 -391h-166z" />
<glyph unicode="y" horiz-adv-x="874" d="M-74 -309q71 -35 119 -35q83 0 135 55q61 61 94 142l88 202l-342 846h162l264 -655l285 655h152l-410 -942q-61 -141 -93.5 -200.5t-78.5 -116.5q-44 -54 -108 -83.5t-136 -29.5q-50 0 -114 25z" />
<glyph unicode="z" horiz-adv-x="843" d="M39 0v129l573 643h-514v129h695v-129l-572 -643h586v-129h-768z" />
<glyph unicode="{" horiz-adv-x="514" d="M25 608v33q89 3 124 62t35 204v164q0 121 13.5 180.5t50.5 102.5q62 71 205 71h34v-34q-87 -8 -131 -72q-24 -35 -32.5 -86.5t-8.5 -161.5v-113q0 -121 -10 -167t-45 -86q-19 -21 -47 -37t-84 -39q107 -32 146.5 -88t39.5 -176v-256q0 -85 9.5 -126.5t37.5 -72.5 q22 -25 49.5 -37t75.5 -18v-33q-16 -2 -32 -2q-124 0 -201 74q-70 64 -70 196v311q0 125 -28.5 162.5t-130.5 44.5z" />
<glyph unicode="|" d="M510 -342v1708h92v-1708h-92z" />
<glyph unicode="}" horiz-adv-x="514" d="M27 -145q100 14 136 66.5t36 187.5v256q0 120 39.5 176t146.5 88q-56 23 -84 39t-47 37q-35 40 -45 86t-10 167v113q0 118 -10 171.5t-39 88.5q-25 28 -52.5 42t-70.5 18v34h34q143 0 205 -71q37 -43 50.5 -102.5t13.5 -180.5v-164q0 -145 35 -204t124 -62v-33 q-102 -7 -130.5 -44.5t-28.5 -162.5v-311q0 -132 -70 -196q-77 -74 -201 -74q-16 0 -32 2v33z" />
<glyph unicode="~" horiz-adv-x="909" d="M29 1311q120 108 231 108q64 0 191 -53q118 -49 182 -49q54 0 101 24.5t110 85.5l16 -79q-115 -127 -252 -127q-47 0 -80.5 9t-183.5 64q-78 31 -115 31q-82 0 -184 -96z" />
<glyph unicode="&#xa1;" horiz-adv-x="491" d="M137 983q0 46 32.5 78.5t76.5 32.5q46 0 78 -32.5t32 -78.5q0 -44 -32 -76.5t-76 -32.5q-46 0 -78.5 32.5t-32.5 76.5zM174 47l25 619h94l24 -619v-348h-143v348z" />
<glyph unicode="&#xa2;" d="M176 680q0 121 40.5 220.5t115.5 162.5q44 37 91.5 54.5t119.5 23.5v137h96v-137q124 -1 196 -43.5t119 -141.5l-123 -69q-35 76 -77.5 107t-114.5 34v-672q69 3 109 32.5t83 109.5l123 -74q-53 -97 -128 -145t-187 -54v-178h-96v178q-95 9 -157.5 39t-109.5 90 q-100 127 -100 326zM338 680q0 -139 48 -214t157 -106v664q-104 -17 -154.5 -101.5t-50.5 -242.5z" />
<glyph unicode="&#xa3;" d="M88 0v129q61 5 100 20.5t68.5 46t47 91.5t29 141.5t21.5 212.5h-168v129h176l13 150q21 217 100 327q53 71 128.5 109.5t164.5 38.5q117 0 244 -76l-33 -145q-47 51 -92.5 71.5t-108.5 20.5q-132 0 -196 -117q-25 -41 -38 -93.5t-22 -146.5l-12 -139h346v-129h-354 q-22 -246 -51.5 -348.5t-96.5 -163.5h611v-129h-877z" />
<glyph unicode="&#xa4;" horiz-adv-x="1011" d="M43 72l195 188q-62 95 -62 195q0 104 64 188l-197 188l68 68l190 -192q53 35 97.5 49t97.5 14q93 0 192 -59l189 188l65 -68l-188 -188q65 -84 65 -192q0 -106 -65 -193l196 -199l-65 -63l-193 199q-87 -64 -190 -64q-55 0 -101 15.5t-102 52.5l-195 -199zM250 455 q0 -107 73 -179.5t179 -72.5q101 0 172 73t71 177q0 101 -72 172t-173 71q-103 0 -176.5 -70.5t-73.5 -170.5z" />
<glyph unicode="&#xa5;" d="M41 1366h186l328 -553l338 553h172l-301 -485h254v-103h-318l-82 -131v-33h400v-102h-400v-512h-151v512h-377v102h377v39l-76 125h-301v103h240z" />
<glyph unicode="&#xa6;" d="M481 313h150v-655h-150v655zM481 684v682h150v-682h-150z" />
<glyph unicode="&#xa7;" d="M82 12l156 86q16 -76 29.5 -114.5t39.5 -71.5q74 -96 209 -96q114 0 184 67t70 174q0 86 -57 123q-40 23 -236 99q-133 52 -175 73.5t-79 55.5q-41 37 -65.5 97.5t-24.5 125.5q0 76 28.5 135t94.5 119q-28 58 -38.5 94t-10.5 80q0 116 67 205q101 131 310 131 q132 0 227 -56q52 -29 82.5 -67t58.5 -107l-143 -92q-26 98 -83 144.5t-151 46.5q-97 0 -150.5 -50t-53.5 -139q0 -109 88 -164q46 -29 194 -84q113 -42 164.5 -69t91.5 -64q72 -69 72 -168q0 -66 -28.5 -123.5t-92.5 -121.5q46 -61 63 -103t17 -100q0 -170 -119.5 -280.5 t-304.5 -110.5q-110 0 -201.5 35.5t-146.5 101.5q-32 36 -50.5 76.5t-35.5 111.5zM279 664q0 -123 122 -181q33 -17 275 -112l78 -37q44 47 63 82.5t19 72.5q0 32 -18 64.5t-48 54.5q-30 21 -68.5 38.5t-132.5 51.5q-135 50 -231 97q-59 -64 -59 -131z" />
<glyph unicode="&#xa8;" horiz-adv-x="1024" d="M219 1260q0 41 30.5 70.5t72.5 29.5q43 0 72.5 -30t29.5 -73t-29.5 -72.5t-72.5 -29.5t-73 30.5t-30 74.5zM602 1260q0 41 30.5 70.5t72.5 29.5q43 0 72.5 -30t29.5 -73t-29.5 -72.5t-72.5 -29.5t-73 30.5t-30 74.5z" />
<glyph unicode="&#xa9;" horiz-adv-x="1550" d="M68 682q0 146 56 278t151.5 227t228 150.5t280.5 55.5q141 0 270.5 -57t223 -152.5t149.5 -227t56 -274.5q0 -192 -95 -355.5t-258 -258.5t-354 -95q-143 0 -274 56.5t-226 151.5t-151.5 226.5t-56.5 274.5zM197 682q0 -159 77.5 -294.5t211 -214.5t290.5 -79 q156 0 289 79t211 215t78 296q0 119 -45.5 228t-122.5 188t-183 126.5t-221 47.5q-162 0 -296 -78t-211.5 -214.5t-77.5 -299.5zM362 676q0 196 120 316t317 120q109 0 182 -32.5t139 -110.5l-94 -86q-39 68 -91 97.5t-136 29.5q-137 0 -218 -90.5t-81 -243.5 q0 -73 20 -136.5t55 -99.5q36 -38 98 -61t126 -23q86 0 136.5 28.5t90.5 98.5l94 -86q-68 -79 -141 -111t-186 -32q-201 0 -316 112t-115 310z" />
<glyph unicode="&#xaa;" horiz-adv-x="722" d="M63 1092q0 124 72.5 205t183.5 81q96 0 166 -67v55h121v-547h-106l-15 55q-70 -67 -166 -67q-112 0 -184 80.5t-72 204.5zM178 1096q0 -91 43 -145t115 -54q71 0 113.5 54t42.5 143q0 88 -42.5 141t-113.5 53t-114.5 -53t-43.5 -139z" />
<glyph unicode="&#xab;" horiz-adv-x="815" d="M88 457l238 444h61l-127 -444l139 -457h-73zM401 457l238 444h63l-127 -444l138 -457h-74z" />
<glyph unicode="&#xac;" horiz-adv-x="1091" d="M25 397v90h1003v-546h-96v456h-907z" />
<glyph unicode="&#xad;" horiz-adv-x="430" d="M0 432v115h430v-115h-430z" />
<glyph unicode="&#xae;" horiz-adv-x="1550" d="M68 682q0 146 56 278t151.5 227t228 150.5t280.5 55.5q141 0 270.5 -57t223 -152.5t149.5 -227t56 -274.5q0 -192 -95 -355.5t-258 -258.5t-354 -95q-143 0 -274 56.5t-226 151.5t-151.5 226.5t-56.5 274.5zM197 682q0 -159 77.5 -294.5t211 -214.5t290.5 -79 q156 0 289 79t211 215t78 296q0 119 -45.5 228t-122.5 188t-183 126.5t-221 47.5q-162 0 -296 -78t-211.5 -214.5t-77.5 -299.5zM532 270v826h209q115 0 174 -21q54 -23 85.5 -74t31.5 -118q0 -80 -45.5 -141t-124.5 -89l234 -383h-142l-221 365h-74v-365h-127zM659 737h62 q93 0 134.5 34.5t41.5 111.5q0 49 -23.5 77t-66.5 31q-14 2 -88 2h-60v-256z" />
<glyph unicode="&#xaf;" horiz-adv-x="1024" d="M254 1206v97h516v-97h-516z" />
<glyph unicode="&#xb0;" horiz-adv-x="737" d="M68 1102q0 120 88.5 205.5t212.5 85.5q123 0 211 -86t88 -207t-88 -208t-211 -87q-126 0 -213.5 86.5t-87.5 210.5zM188 1102q0 -75 53 -126.5t128 -51.5q73 0 125.5 52t52.5 124t-52.5 123t-127.5 51q-72 0 -125.5 -51t-53.5 -121z" />
<glyph unicode="&#xb1;" horiz-adv-x="1079" d="M35 0v82h1009v-82h-1009zM35 621v81h465v455h82v-455h462v-81h-462v-467h-82v467h-465z" />
<glyph unicode="&#xb2;" horiz-adv-x="722" d="M111 547v76q176 178 241 266q113 151 113 278q0 59 -31 92t-88 33q-61 0 -91.5 -37.5t-39.5 -124.5l-102 68q38 103 89 143.5t142 40.5q114 0 177 -56t63 -157q0 -100 -67.5 -208t-262.5 -324h358v-90h-501z" />
<glyph unicode="&#xb3;" horiz-adv-x="722" d="M61 668l95 67q36 -62 73 -86t93 -24q70 0 111.5 45.5t41.5 122.5q0 70 -40 110.5t-109 40.5q-30 0 -82 -10v110h28q71 0 113.5 39t42.5 103q0 52 -26 80t-74 28q-44 0 -69 -21.5t-48 -80.5l-96 55q38 72 88 103.5t125 31.5q98 0 158.5 -52.5t60.5 -137.5 q0 -121 -113 -184q77 -20 118.5 -72.5t41.5 -130.5q0 -121 -78 -198t-201 -77q-79 0 -134 30t-120 108z" />
<glyph unicode="&#xb4;" horiz-adv-x="1024" d="M414 1102l280 332l162 -33l-371 -311z" />
<glyph unicode="&#xb5;" horiz-adv-x="1017" d="M125 -354q27 245 27 426v30l-15 795h133v-520q0 -103 9 -140t43 -71q60 -60 163 -60q123 0 191 74q35 37 46 79t11 138v500h129v-897h-129v102q-66 -66 -119.5 -91t-128.5 -25q-72 0 -123 21.5t-98 72.5l4 -434h-143z" />
<glyph unicode="&#xb6;" horiz-adv-x="1024" d="M51 1024q0 94 38 171.5t104 117.5q50 29 114 41t174 12h506v-63l-162 -15v-1464h-86v1454l-149 -16v-1438h-86v803q-105 10 -166 29.5t-123 60.5q-164 108 -164 307z" />
<glyph unicode="&#xb7;" horiz-adv-x="485" d="M123 487q0 49 35.5 84t83.5 35q51 0 85.5 -34.5t34.5 -84.5q0 -51 -34 -85.5t-84 -34.5q-51 0 -86 34.5t-35 85.5z" />
<glyph unicode="&#xb8;" horiz-adv-x="1024" d="M397 -342q55 26 80 55t25 66q0 59 -82 106l115 95q49 -35 69.5 -69.5t20.5 -82.5q0 -58 -36 -106.5t-116 -98.5z" />
<glyph unicode="&#xb9;" horiz-adv-x="722" d="M168 1176v61q123 9 174 34.5t88 94.5h68v-819h-115v637z" />
<glyph unicode="&#xba;" horiz-adv-x="722" d="M90 1096q0 128 74.5 205t197.5 77t197 -77.5t74 -206.5q0 -130 -74 -208.5t-197 -78.5q-126 0 -199 77.5t-73 211.5zM205 1096q0 -91 42.5 -145t114.5 -54q71 0 113.5 54t42.5 143q0 88 -42.5 141t-113.5 53t-114 -53t-43 -139z" />
<glyph unicode="&#xbb;" horiz-adv-x="815" d="M102 901h74l238 -455l-238 -446h-63l127 446zM416 901h73l238 -455l-238 -446h-63l127 446z" />
<glyph unicode="&#xbc;" horiz-adv-x="1746" d="M168 1176v61q123 9 174 34.5t88 94.5h68v-819h-115v637zM373 -2l903 1388l98 -16l-899 -1390zM1085 180v86l353 553h125v-549h116v-90h-116v-180h-107v180h-371zM1210 270h246v406z" />
<glyph unicode="&#xbd;" horiz-adv-x="1746" d="M168 1176v61q123 9 174 34.5t88 94.5h68v-819h-115v637zM373 -2l903 1388l98 -16l-899 -1390zM1135 0v76q116 118 160 166.5t81 99.5q113 151 113 279q0 59 -31 91.5t-88 32.5q-61 0 -91.5 -38t-39.5 -123l-102 65q38 104 89 145.5t142 41.5q114 0 177 -56t63 -157 q0 -100 -67.5 -209t-262.5 -324h358v-90h-501z" />
<glyph unicode="&#xbe;" horiz-adv-x="1746" d="M61 668l95 67q36 -62 73 -86t93 -24q70 0 111.5 45.5t41.5 122.5q0 70 -40 110.5t-109 40.5q-30 0 -82 -10v110h28q71 0 113.5 39t42.5 103q0 52 -26 80t-74 28q-44 0 -69 -21.5t-48 -80.5l-96 55q38 72 88 103.5t125 31.5q98 0 158.5 -52.5t60.5 -137.5 q0 -121 -113 -184q77 -20 118.5 -72.5t41.5 -130.5q0 -121 -78 -198t-201 -77q-79 0 -134 30t-120 108zM373 -2l903 1388l98 -16l-899 -1390zM1087 180v86l353 553h125v-549h116v-90h-116v-180h-107v180h-371zM1212 270h246v406z" />
<glyph unicode="&#xbf;" horiz-adv-x="692" d="M57 -49q0 111 64 205q23 34 43.5 57.5t120.5 132.5q84 90 84 168q0 97 -76 188h156q36 -43 50.5 -82t14.5 -92q0 -80 -34 -142t-128 -153q-87 -85 -120 -142.5t-33 -123.5q0 -68 43 -110.5t112 -42.5q130 0 160 151l137 -65q-41 -117 -117 -172.5t-196 -55.5 q-122 0 -195 70q-40 39 -63 94t-23 115zM272 983q0 46 32.5 78.5t76.5 32.5q46 0 78.5 -32.5t32.5 -78.5q0 -44 -32.5 -76.5t-76.5 -32.5q-46 0 -78.5 32.5t-32.5 76.5z" />
<glyph unicode="&#xc0;" horiz-adv-x="1226" d="M-6 0l545 1366h151l545 -1366h-176l-170 442h-555l-164 -442h-176zM262 1769l164 33l281 -332l-72 -12zM387 575h449l-228 590z" />
<glyph unicode="&#xc1;" horiz-adv-x="1226" d="M-6 0l545 1366h151l545 -1366h-176l-170 442h-555l-164 -442h-176zM387 575h449l-228 590zM516 1470l281 332l161 -33l-372 -311z" />
<glyph unicode="&#xc2;" horiz-adv-x="1226" d="M-6 0l545 1366h151l545 -1366h-176l-170 442h-555l-164 -442h-176zM287 1473l270 325h115l270 -325l-61 -13l-267 238l-262 -238zM387 575h449l-228 590z" />
<glyph unicode="&#xc3;" horiz-adv-x="1226" d="M-6 0l545 1366h151l545 -1366h-176l-170 442h-555l-164 -442h-176zM295 1559q86 93 129.5 124t87.5 31q29 0 51.5 -7t93.5 -38q98 -43 140 -43q30 0 52.5 18t53.5 66l45 -27q-35 -69 -87.5 -114t-96.5 -45q-18 0 -34 5t-66 27q-36 17 -76 33q-72 27 -101 27 q-35 0 -67.5 -19t-87.5 -73zM387 575h449l-228 590z" />
<glyph unicode="&#xc4;" horiz-adv-x="1226" d="M-6 0l545 1366h151l545 -1366h-176l-170 442h-555l-164 -442h-176zM297 1624q0 46 33.5 79.5t79.5 33.5q47 0 80.5 -33.5t33.5 -79.5q0 -47 -33 -81t-79 -34q-47 0 -81 34t-34 81zM387 575h449l-228 590zM707 1624q0 46 33 79.5t79 33.5q47 0 81 -33.5t34 -79.5 q0 -47 -33.5 -81t-79.5 -34q-47 0 -80.5 34t-33.5 81z" />
<glyph unicode="&#xc5;" horiz-adv-x="1226" d="M-6 0l545 1366h151l545 -1366h-176l-170 442h-555l-164 -442h-176zM387 575h449l-228 590zM410 1640q0 84 60 143.5t144 59.5q85 0 145 -59.5t60 -145.5q0 -85 -60 -144.5t-145 -59.5q-86 0 -145 60t-59 146zM498 1640q0 -50 34 -84t84 -34q48 0 81.5 33.5t33.5 82.5 t-33.5 83t-81.5 34q-49 0 -83.5 -34.5t-34.5 -80.5z" />
<glyph unicode="&#xc6;" horiz-adv-x="1552" d="M-68 0l760 1366h721v-129h-504v-475h504v-129h-504v-504h576v-129h-733v399h-430l-218 -399h-172zM395 528h357v662z" />
<glyph unicode="&#xc7;" horiz-adv-x="1304" d="M102 670q0 327 188.5 525t500.5 198q171 0 305 -64q56 -26 95 -58.5t93 -96.5l-119 -113q-60 105 -150 154t-224 49q-233 0 -371.5 -161t-138.5 -431q0 -129 35 -240.5t96 -177.5q63 -69 167 -110.5t214 -41.5q156 0 262 72q33 24 56.5 52t53.5 81l119 -114 q-54 -64 -92.5 -96t-95.5 -60q-137 -64 -308 -64q-133 0 -255.5 38t-206.5 104q-104 85 -164 233t-60 322zM606 -350q57 28 82 56.5t25 66.5q0 32 -19.5 56.5t-64.5 49.5l116 94q48 -36 69.5 -71t21.5 -80q0 -59 -36.5 -107.5t-117.5 -97.5z" />
<glyph unicode="&#xc8;" horiz-adv-x="1001" d="M190 0v1366h668v-129h-504v-475h504v-129h-504v-504h578v-129h-742zM217 1769l162 33l280 -332l-69 -12z" />
<glyph unicode="&#xc9;" horiz-adv-x="1001" d="M190 0v1366h668v-129h-504v-475h504v-129h-504v-504h578v-129h-742zM387 1470l281 332l163 -33l-372 -311z" />
<glyph unicode="&#xca;" horiz-adv-x="1001" d="M190 0v1366h668v-129h-504v-475h504v-129h-504v-504h578v-129h-742zM193 1473l270 325h115l270 -325l-62 -13l-266 238l-262 -238z" />
<glyph unicode="&#xcb;" horiz-adv-x="1001" d="M190 0v1366h668v-129h-504v-475h504v-129h-504v-504h578v-129h-742zM209 1624q0 46 33.5 79.5t79.5 33.5q47 0 80.5 -33.5t33.5 -79.5q0 -47 -33 -81t-79 -34q-47 0 -81 34t-34 81zM618 1624q0 46 33.5 79.5t79.5 33.5q47 0 81 -33.5t34 -79.5q0 -47 -33.5 -81t-79.5 -34 q-47 0 -81 34t-34 81z" />
<glyph unicode="&#xcc;" horiz-adv-x="546" d="M-31 1753l156 49l248 -340l-68 -12zM190 0v1366h164v-1366h-164z" />
<glyph unicode="&#xcd;" horiz-adv-x="546" d="M174 1470l240 332l161 -33l-329 -311zM190 0v1366h164v-1366h-164z" />
<glyph unicode="&#xce;" horiz-adv-x="546" d="M-8 1473l229 325h115l229 -325l-61 -13l-225 238l-222 -238zM190 0v1366h164v-1366h-164z" />
<glyph unicode="&#xcf;" horiz-adv-x="546" d="M2 1624q0 46 33.5 79.5t79.5 33.5q47 0 80.5 -33.5t33.5 -79.5q0 -47 -33 -81t-79 -34q-47 0 -81 34t-34 81zM190 0v1366h164v-1366h-164zM315 1624q0 46 33.5 79.5t79.5 33.5q47 0 81 -33.5t34 -79.5q0 -47 -33.5 -81t-79.5 -34q-47 0 -81 34t-34 81z" />
<glyph unicode="&#xd0;" horiz-adv-x="1396" d="M41 641v117h149v608h426q172 0 278.5 -25.5t182.5 -85.5q103 -83 159 -226.5t56 -323.5q0 -207 -75.5 -369.5t-210.5 -245.5q-145 -90 -390 -90h-426v641h-149zM354 129h271q217 0 327 104q78 72 120 192t42 273q0 162 -45 282.5t-131 184.5q-56 43 -118 57.5t-195 14.5 h-271v-479h381v-117h-381v-512z" />
<glyph unicode="&#xd1;" horiz-adv-x="1497" d="M190 0v1366h158l799 -1110v1110h158v-1366h-158l-799 1110v-1110h-158zM428 1559q86 93 129.5 124t87.5 31q29 0 52.5 -7t93.5 -38q98 -43 139 -43q30 0 52.5 18t53.5 66l45 -27q-35 -69 -87.5 -114t-96.5 -45q-18 0 -34 5t-66 27q-26 13 -76 33q-72 27 -100 27 q-35 0 -68 -19t-88 -73z" />
<glyph unicode="&#xd2;" horiz-adv-x="1503" d="M102 694q0 350 197 535q173 164 453 164q279 0 452 -164q197 -185 197 -545q0 -359 -197 -547q-170 -164 -450 -164q-285 0 -455 164q-103 97 -150 231t-47 326zM281 692q0 -280 124 -435t347 -155q220 0 345.5 155t125.5 427q0 270 -125.5 425t-345.5 155 q-218 0 -344.5 -154t-126.5 -418zM434 1769l162 33l283 -332l-72 -12z" />
<glyph unicode="&#xd3;" horiz-adv-x="1503" d="M102 694q0 350 197 535q173 164 453 164q279 0 452 -164q197 -185 197 -545q0 -359 -197 -547q-170 -164 -450 -164q-285 0 -455 164q-103 97 -150 231t-47 326zM281 692q0 -280 124 -435t347 -155q220 0 345.5 155t125.5 427q0 270 -125.5 425t-345.5 155 q-218 0 -344.5 -154t-126.5 -418zM627 1470l280 332l162 -33l-373 -311z" />
<glyph unicode="&#xd4;" horiz-adv-x="1503" d="M102 694q0 350 197 535q173 164 453 164q279 0 452 -164q197 -185 197 -545q0 -359 -197 -547q-170 -164 -450 -164q-285 0 -455 164q-103 97 -150 231t-47 326zM281 692q0 -280 124 -435t347 -155q220 0 345.5 155t125.5 427q0 270 -125.5 425t-345.5 155 q-218 0 -344.5 -154t-126.5 -418zM424 1473l270 325h115l270 -325l-61 -13l-266 238l-263 -238z" />
<glyph unicode="&#xd5;" horiz-adv-x="1503" d="M102 694q0 350 197 535q173 164 453 164q279 0 452 -164q197 -185 197 -545q0 -359 -197 -547q-170 -164 -450 -164q-285 0 -455 164q-103 97 -150 231t-47 326zM281 692q0 -280 124 -435t347 -155q220 0 345.5 155t125.5 427q0 270 -125.5 425t-345.5 155 q-218 0 -344.5 -154t-126.5 -418zM438 1559q86 93 129.5 124t89.5 31q29 0 52 -7t92 -38q101 -43 141 -43q29 0 52.5 18.5t52.5 65.5l45 -27q-34 -69 -86 -114t-97 -45q-20 0 -35.5 5t-64.5 27q-55 24 -76 33q-74 27 -102 27q-34 0 -66.5 -19t-87.5 -73z" />
<glyph unicode="&#xd6;" horiz-adv-x="1503" d="M102 694q0 350 197 535q173 164 453 164q279 0 452 -164q197 -185 197 -545q0 -359 -197 -547q-170 -164 -450 -164q-285 0 -455 164q-103 97 -150 231t-47 326zM281 692q0 -280 124 -435t347 -155q220 0 345.5 155t125.5 427q0 270 -125.5 425t-345.5 155 q-218 0 -344.5 -154t-126.5 -418zM434 1624q0 46 33.5 79.5t79.5 33.5q47 0 81 -33.5t34 -79.5q0 -47 -33.5 -81t-79.5 -34q-47 0 -81 34t-34 81zM844 1624q0 46 33 79.5t79 33.5q47 0 81 -33.5t34 -79.5q0 -47 -33.5 -81t-79.5 -34q-47 0 -80.5 34t-33.5 81z" />
<glyph unicode="&#xd7;" horiz-adv-x="1161" d="M70 899l61 62l449 -453l452 455l58 -66l-447 -453l447 -442l-68 -63l-442 444l-439 -444l-57 63l432 442z" />
<glyph unicode="&#xd8;" horiz-adv-x="1503" d="M102 688q0 356 197 541q170 164 451 164q220 0 380 -103l115 146l84 -66l-112 -149q101 -115 142.5 -237.5t41.5 -305.5q0 -356 -197 -541q-175 -164 -446 -164q-121 0 -204 23.5t-202 91.5l-110 -141l-80 67l110 146q-95 118 -132.5 234.5t-37.5 293.5zM281 684 q0 -118 22 -209t72 -178l665 874q-77 51 -141.5 72t-146.5 21q-220 0 -345.5 -155t-125.5 -425zM446 211q73 -57 144.5 -83t161.5 -26q219 0 345 154.5t126 421.5q0 134 -26.5 232.5t-84.5 181.5z" />
<glyph unicode="&#xd9;" horiz-adv-x="1400" d="M178 557v809h164v-815q0 -142 10.5 -201.5t44.5 -109.5q43 -64 124 -101t179 -37q107 0 192.5 42.5t125.5 115.5q26 46 34.5 103t8.5 188v815h164v-809q0 -155 -14 -234t-54 -143q-61 -101 -178.5 -154t-278.5 -53q-171 0 -291.5 60t-177.5 174q-31 62 -42 134t-11 216z M377 1769l162 33l282 -332l-71 -12z" />
<glyph unicode="&#xda;" horiz-adv-x="1400" d="M178 557v809h164v-815q0 -142 10.5 -201.5t44.5 -109.5q43 -64 124 -101t179 -37q107 0 192.5 42.5t125.5 115.5q26 46 34.5 103t8.5 188v815h164v-809q0 -155 -14 -234t-54 -143q-61 -101 -178.5 -154t-278.5 -53q-171 0 -291.5 60t-177.5 174q-31 62 -42 134t-11 216z M575 1470l281 332l162 -33l-371 -311z" />
<glyph unicode="&#xdb;" horiz-adv-x="1400" d="M178 557v809h164v-815q0 -142 10.5 -201.5t44.5 -109.5q43 -64 124 -101t179 -37q107 0 192.5 42.5t125.5 115.5q26 46 34.5 103t8.5 188v815h164v-809q0 -155 -14 -234t-54 -143q-61 -101 -178.5 -154t-278.5 -53q-171 0 -291.5 60t-177.5 174q-31 62 -42 134t-11 216z M375 1473l270 325h113l270 -325l-61 -13l-267 238l-260 -238z" />
<glyph unicode="&#xdc;" horiz-adv-x="1400" d="M178 557v809h164v-815q0 -142 10.5 -201.5t44.5 -109.5q43 -64 124 -101t179 -37q107 0 192.5 42.5t125.5 115.5q26 46 34.5 103t8.5 188v815h164v-809q0 -155 -14 -234t-54 -143q-61 -101 -178.5 -154t-278.5 -53q-171 0 -291.5 60t-177.5 174q-31 62 -42 134t-11 216z M383 1624q0 46 33.5 79.5t79.5 33.5q47 0 80.5 -33.5t33.5 -79.5q0 -47 -33 -81t-79 -34q-47 0 -81 34t-34 81zM793 1624q0 46 33 79.5t79 33.5q47 0 81 -33.5t34 -79.5q0 -47 -33.5 -81t-79.5 -34q-47 0 -80.5 34t-33.5 81z" />
<glyph unicode="&#xdd;" horiz-adv-x="980" d="M-55 1366h190l363 -596l356 596h174l-457 -760v-606h-163v606zM377 1470l282 332l162 -33l-372 -311z" />
<glyph unicode="&#xde;" horiz-adv-x="1009" d="M190 0v1366h164v-192h199q118 0 185 -16t118 -56q60 -46 92.5 -119.5t32.5 -161.5q0 -106 -47 -195t-129 -139q-49 -29 -131 -47t-164 -18h-156v-422h-164zM354 551h156q144 0 218.5 66t74.5 194q0 123 -58.5 178t-187.5 55h-203v-493z" />
<glyph unicode="&#xdf;" horiz-adv-x="1026" d="M27 772v129h131v141q0 98 18.5 162t61.5 117q90 113 264 113q129 0 204.5 -68t75.5 -184q0 -57 -15 -104t-62 -134q-35 -61 -35 -94q0 -28 19 -57.5t69 -79.5q120 -120 167.5 -204.5t47.5 -176.5q0 -148 -104.5 -250t-256.5 -102q-115 0 -223 61l49 147 q49 -44 91.5 -61.5t95.5 -17.5q83 0 135.5 59.5t52.5 153.5q0 84 -43 149q-39 53 -156 168q-54 54 -76 91.5t-22 76.5q0 47 70 176q38 72 50.5 108t12.5 74q0 66 -39.5 103t-111.5 37q-94 0 -142.5 -62t-48.5 -182v-1061h-149v772h-131z" />
<glyph unicode="&#xe0;" horiz-adv-x="1081" d="M92 451q0 206 114 338.5t292 132.5q83 0 146.5 -30t129.5 -101v110h150v-901h-150v111q-64 -69 -130 -100t-148 -31q-84 0 -165.5 39.5t-137.5 107.5q-101 125 -101 324zM205 1401l162 33l280 -332l-69 -12zM256 455q0 -157 72 -250.5t192 -93.5q119 0 191.5 94t72.5 248 t-72 247t-192 93q-119 0 -191.5 -93t-72.5 -245z" />
<glyph unicode="&#xe1;" horiz-adv-x="1081" d="M92 451q0 206 114 338.5t292 132.5q83 0 146.5 -30t129.5 -101v110h150v-901h-150v111q-64 -69 -130 -100t-148 -31q-84 0 -165.5 39.5t-137.5 107.5q-101 125 -101 324zM256 455q0 -157 72 -250.5t192 -93.5q119 0 191.5 94t72.5 248t-72 247t-192 93q-119 0 -191.5 -93 t-72.5 -245zM420 1102l282 332l162 -33l-372 -311z" />
<glyph unicode="&#xe2;" horiz-adv-x="1081" d="M92 451q0 206 114 338.5t292 132.5q83 0 146.5 -30t129.5 -101v110h150v-901h-150v111q-64 -69 -130 -100t-148 -31q-84 0 -165.5 39.5t-137.5 107.5q-101 125 -101 324zM236 1106l249 328h115l250 -328l-64 -16l-243 239l-242 -239zM256 455q0 -157 72 -250.5t192 -93.5 q119 0 191.5 94t72.5 248t-72 247t-192 93q-119 0 -191.5 -93t-72.5 -245z" />
<glyph unicode="&#xe3;" horiz-adv-x="1081" d="M92 451q0 206 114 338.5t292 132.5q83 0 146.5 -30t129.5 -101v110h150v-901h-150v111q-64 -69 -130 -100t-148 -31q-84 0 -165.5 39.5t-137.5 107.5q-101 125 -101 324zM231 1198q94 100 129.5 127t73.5 27q29 0 50.5 -6.5t88.5 -36.5q97 -43 132 -43q52 0 102 84 l45 -27q-96 -158 -172 -158q-20 0 -35.5 5.5t-89.5 37.5q-105 45 -139 45q-30 0 -62 -19.5t-84 -70.5zM256 455q0 -157 72 -250.5t192 -93.5q119 0 191.5 94t72.5 248t-72 247t-192 93q-119 0 -191.5 -93t-72.5 -245z" />
<glyph unicode="&#xe4;" horiz-adv-x="1081" d="M92 451q0 206 114 338.5t292 132.5q83 0 146.5 -30t129.5 -101v110h150v-901h-150v111q-64 -69 -130 -100t-148 -31q-84 0 -165.5 39.5t-137.5 107.5q-101 125 -101 324zM248 1260q0 41 30.5 70.5t71.5 29.5q43 0 73 -30t30 -73t-30 -72.5t-73 -29.5t-72.5 30.5 t-29.5 74.5zM256 455q0 -157 72 -250.5t192 -93.5q119 0 191.5 94t72.5 248t-72 247t-192 93q-119 0 -191.5 -93t-72.5 -245zM631 1260q0 41 30.5 70.5t71.5 29.5q43 0 73 -30t30 -73t-30 -72.5t-73 -29.5t-72.5 30.5t-29.5 74.5z" />
<glyph unicode="&#xe5;" horiz-adv-x="1081" d="M92 451q0 206 114 338.5t292 132.5q83 0 146.5 -30t129.5 -101v110h150v-901h-150v111q-64 -69 -130 -100t-148 -31q-84 0 -165.5 39.5t-137.5 107.5q-101 125 -101 324zM256 455q0 -157 72 -250.5t192 -93.5q119 0 191.5 94t72.5 248t-72 247t-192 93q-119 0 -191.5 -93 t-72.5 -245zM348 1270q0 81 56.5 136.5t136.5 55.5q83 0 139.5 -55t56.5 -137q0 -80 -58.5 -138.5t-137.5 -58.5q-81 0 -137 57.5t-56 139.5zM434 1270q0 -46 31.5 -78.5t75.5 -32.5q46 0 78 32.5t32 78.5q0 43 -32 74.5t-76 31.5q-45 0 -77 -31t-32 -75z" />
<glyph unicode="&#xe6;" horiz-adv-x="1415" d="M76 227q0 153 129 224q32 16 63 26t178 51q74 22 107 51.5t33 75.5q0 63 -42 100.5t-112 37.5q-66 0 -104 -31.5t-60 -104.5l-147 52q46 112 119 162.5t192 50.5q94 0 149.5 -30t102.5 -106q65 75 126.5 106.5t147.5 31.5q109 0 188.5 -48.5t119.5 -140.5 q26 -57 37 -126.5t12 -196.5h-598q1 -91 15 -141.5t48 -90.5q68 -78 181 -78q81 0 130.5 34.5t100.5 125.5l135 -67q-69 -115 -152 -165t-206 -50q-111 0 -181 34t-137 123q-82 -92 -144.5 -124.5t-158.5 -32.5q-126 0 -199 66t-73 181zM225 250q0 -65 42 -103t114 -38 q52 0 98 24.5t70 63.5q37 61 37 280q-69 -29 -172 -61q-101 -29 -145 -67.5t-44 -98.5zM723 541h455q-3 76 -15.5 118t-42.5 78q-26 34 -70.5 53t-95.5 19q-113 0 -172 -80q-29 -34 -41 -74t-18 -114z" />
<glyph unicode="&#xe7;" horiz-adv-x="892" d="M92 451q0 214 116 342.5t308 128.5q170 0 264 -97q29 -31 44.5 -65.5t27.5 -97.5l-139 -56q-6 97 -51 142t-136 45q-124 0 -197 -92t-73 -248q0 -148 74 -252q64 -92 184 -92q80 0 124 35t75 122l145 -43q-25 -69 -47.5 -105t-60.5 -67q-95 -71 -236 -71 q-191 0 -306.5 129t-115.5 342zM360 -342q107 49 107 121q0 32 -19.5 56.5t-64.5 49.5l117 95q48 -36 69 -70.5t21 -81.5q0 -59 -36.5 -107.5t-117.5 -97.5z" />
<glyph unicode="&#xe8;" horiz-adv-x="966" d="M92 451q0 212 116 341.5t306 129.5q230 0 311 -185q26 -58 35.5 -127t11.5 -198h-614q9 -89 29 -140t61 -92q68 -71 180 -71q71 0 119.5 36.5t89.5 120.5l135 -67q-75 -124 -152 -171.5t-202 -47.5q-194 0 -310 128t-116 343zM186 1401l162 33l281 -332l-72 -12zM264 541 h453q-1 73 -10 112t-31 70q-51 82 -172 82q-106 0 -168 -67.5t-72 -196.5z" />
<glyph unicode="&#xe9;" horiz-adv-x="966" d="M92 451q0 212 116 341.5t306 129.5q230 0 311 -185q26 -58 35.5 -127t11.5 -198h-614q9 -89 29 -140t61 -92q68 -71 180 -71q71 0 119.5 36.5t89.5 120.5l135 -67q-75 -124 -152 -171.5t-202 -47.5q-194 0 -310 128t-116 343zM264 541h453q-1 73 -10 112t-31 70 q-51 82 -172 82q-106 0 -168 -67.5t-72 -196.5zM383 1102l283 332l161 -33l-372 -311z" />
<glyph unicode="&#xea;" horiz-adv-x="966" d="M92 451q0 212 116 341.5t306 129.5q230 0 311 -185q26 -58 35.5 -127t11.5 -198h-614q9 -89 29 -140t61 -92q68 -71 180 -71q71 0 119.5 36.5t89.5 120.5l135 -67q-75 -124 -152 -171.5t-202 -47.5q-194 0 -310 128t-116 343zM197 1106l249 328h113l250 -328l-61 -16 l-246 239l-240 -239zM264 541h453q-1 73 -10 112t-31 70q-51 82 -172 82q-106 0 -168 -67.5t-72 -196.5z" />
<glyph unicode="&#xeb;" horiz-adv-x="966" d="M92 451q0 212 116 341.5t306 129.5q230 0 311 -185q26 -58 35.5 -127t11.5 -198h-614q9 -89 29 -140t61 -92q68 -71 180 -71q71 0 119.5 36.5t89.5 120.5l135 -67q-75 -124 -152 -171.5t-202 -47.5q-194 0 -310 128t-116 343zM209 1260q0 41 30.5 70.5t71.5 29.5 q43 0 73 -30t30 -73t-30 -72.5t-73 -29.5t-72.5 30.5t-29.5 74.5zM264 541h453q-1 73 -10 112t-31 70q-51 82 -172 82q-106 0 -168 -67.5t-72 -196.5zM592 1260q0 41 30.5 70.5t71.5 29.5q43 0 73 -30t30 -73t-30 -72.5t-73 -29.5t-72.5 30.5t-29.5 74.5z" />
<glyph unicode="&#xec;" horiz-adv-x="464" d="M-72 1384l156 50l233 -340l-67 -13zM158 0v901h149v-901h-149z" />
<glyph unicode="&#xed;" horiz-adv-x="464" d="M147 1102l228 332l162 -33l-318 -311zM158 0v901h149v-901h-149z" />
<glyph unicode="&#xee;" horiz-adv-x="464" d="M-20 1106l194 328h115l196 -328l-63 -16l-191 233l-186 -233zM158 0v901h149v-901h-149z" />
<glyph unicode="&#xef;" horiz-adv-x="464" d="M-14 1260q0 41 30.5 70.5t71.5 29.5q43 0 72.5 -30t29.5 -73t-29.5 -72.5t-72.5 -29.5t-72.5 30.5t-29.5 74.5zM156 0v901h149v-901h-149zM272 1260q0 41 30.5 70.5t72.5 29.5q43 0 72.5 -30t29.5 -73t-29.5 -72.5t-72.5 -29.5t-73 30.5t-30 74.5z" />
<glyph unicode="&#xf0;" horiz-adv-x="1040" d="M55 1110l203 51l-184 156l141 51l203 -166l278 72l35 -76l-235 -59l122 -101q202 -168 276.5 -291.5t74.5 -293.5q0 -217 -115.5 -345t-310.5 -128t-311.5 128t-116.5 343q0 207 106.5 330.5t284.5 123.5q28 0 55 -2l-223 193l-250 -62zM279 457q0 -160 71.5 -254 t192.5 -94q120 0 191 95t71 255q0 164 -67 254t-189 90q-126 0 -195 -90q-75 -101 -75 -256z" />
<glyph unicode="&#xf1;" horiz-adv-x="1052" d="M158 0v901h149v-108q69 73 130 102t145 29q83 0 152 -32t110 -89q29 -41 41 -94t12 -140v-569h-149v565q0 113 -50.5 170.5t-148.5 57.5q-58 0 -112.5 -24t-86.5 -64q-43 -51 -43 -144v-561h-149zM211 1198q25 27 92 92q38 37 60.5 49.5t50.5 12.5q27 0 47.5 -6.5 t91.5 -36.5q97 -43 131 -43q52 0 102 84l45 -27q-96 -158 -172 -158q-20 0 -35 5t-89 38q-105 45 -140 45q-29 0 -61 -19.5t-84 -70.5z" />
<glyph unicode="&#xf2;" horiz-adv-x="1040" d="M92 457q0 209 117.5 337t310.5 128q194 0 310 -128t116 -343t-116 -343t-310 -128q-198 0 -313 128.5t-115 348.5zM188 1401l162 33l281 -332l-70 -12zM256 455q0 -158 72 -252t192 -94q118 0 190 94t72 248t-72 248t-190 94q-119 0 -191.5 -93t-72.5 -245z" />
<glyph unicode="&#xf3;" horiz-adv-x="1040" d="M92 457q0 209 117.5 337t310.5 128q194 0 310 -128t116 -343t-116 -343t-310 -128q-198 0 -313 128.5t-115 348.5zM256 455q0 -158 72 -252t192 -94q118 0 190 94t72 248t-72 248t-190 94q-119 0 -191.5 -93t-72.5 -245zM399 1102l283 332l162 -33l-373 -311z" />
<glyph unicode="&#xf4;" horiz-adv-x="1040" d="M92 457q0 209 117.5 337t310.5 128q194 0 310 -128t116 -343t-116 -343t-310 -128q-198 0 -313 128.5t-115 348.5zM213 1106l250 328h112l252 -328l-63 -16l-244 239l-241 -239zM256 455q0 -158 72 -252t192 -94q118 0 190 94t72 248t-72 248t-190 94q-119 0 -191.5 -93 t-72.5 -245z" />
<glyph unicode="&#xf5;" horiz-adv-x="1040" d="M92 457q0 209 117.5 337t310.5 128q194 0 310 -128t116 -343t-116 -343t-310 -128q-198 0 -313 128.5t-115 348.5zM217 1198q92 100 127.5 127t73.5 27q29 0 50.5 -6.5t90.5 -36.5q94 -43 129 -43q29 0 52.5 19.5t50.5 64.5l45 -27q-50 -83 -90.5 -120.5t-81.5 -37.5 q-20 0 -35.5 5.5t-87.5 37.5q-107 45 -140 45q-30 0 -61 -19t-86 -71zM256 455q0 -158 72 -252t192 -94q118 0 190 94t72 248t-72 248t-190 94q-119 0 -191.5 -93t-72.5 -245z" />
<glyph unicode="&#xf6;" horiz-adv-x="1040" d="M92 457q0 209 117.5 337t310.5 128q194 0 310 -128t116 -343t-116 -343t-310 -128q-198 0 -313 128.5t-115 348.5zM225 1260q0 41 30.5 70.5t72.5 29.5q43 0 72.5 -30t29.5 -73t-29.5 -72.5t-72.5 -29.5t-73 30.5t-30 74.5zM256 455q0 -158 72 -252t192 -94q118 0 190 94 t72 248t-72 248t-190 94q-119 0 -191.5 -93t-72.5 -245zM608 1260q0 41 30.5 70.5t72.5 29.5q43 0 72.5 -30t29.5 -73t-29.5 -72.5t-72.5 -29.5t-73 30.5t-30 74.5z" />
<glyph unicode="&#xf7;" d="M53 406v90h1006v-90h-1006zM455 76q0 43 29.5 72.5t72.5 29.5q41 0 70.5 -29.5t29.5 -70.5q0 -43 -29.5 -73t-70.5 -30t-71.5 30t-30.5 71zM455 823q0 43 29.5 73t72.5 30q41 0 70.5 -30t29.5 -73q0 -41 -29.5 -70.5t-70.5 -29.5t-71.5 29.5t-30.5 70.5z" />
<glyph unicode="&#xf8;" horiz-adv-x="1040" d="M92 451q0 215 116.5 343t313.5 128q71 0 124 -15t116 -53l88 115l72 -62l-88 -112q63 -89 87.5 -164.5t24.5 -179.5q0 -217 -116.5 -344t-315.5 -127q-72 0 -124 15t-124 58l-84 -106l-73 59l90 113q-57 77 -82 154t-25 178zM256 449q0 -53 8.5 -93t32.5 -102l375 485 q-42 31 -75.5 42.5t-76.5 11.5q-120 0 -192 -93.5t-72 -250.5zM354 172q69 -63 164 -63q120 0 192 93.5t72 248.5q0 122 -51 213z" />
<glyph unicode="&#xf9;" horiz-adv-x="1052" d="M158 334v567h149v-563q0 -229 201 -229q57 0 111 24t86 64q43 51 43 143v561h149v-901h-149v109q-70 -73 -131 -102.5t-144 -29.5t-152 32t-110 89q-29 41 -41 94.5t-12 141.5zM188 1401l164 33l281 -332l-72 -12z" />
<glyph unicode="&#xfa;" horiz-adv-x="1052" d="M158 334v567h149v-563q0 -229 201 -229q57 0 111 24t86 64q43 51 43 143v561h149v-901h-149v109q-70 -73 -131 -102.5t-144 -29.5t-152 32t-110 89q-29 41 -41 94.5t-12 141.5zM408 1102l280 332l164 -33l-373 -311z" />
<glyph unicode="&#xfb;" horiz-adv-x="1052" d="M158 334v567h149v-563q0 -229 201 -229q57 0 111 24t86 64q43 51 43 143v561h149v-901h-149v109q-70 -73 -131 -102.5t-144 -29.5t-152 32t-110 89q-29 41 -41 94.5t-12 141.5zM219 1106l250 328h115l250 -328l-62 -16l-246 239l-239 -239z" />
<glyph unicode="&#xfc;" horiz-adv-x="1052" d="M158 334v567h149v-563q0 -229 201 -229q57 0 111 24t86 64q43 51 43 143v561h149v-901h-149v109q-70 -73 -131 -102.5t-144 -29.5t-152 32t-110 89q-29 41 -41 94.5t-12 141.5zM233 1260q0 41 30.5 70.5t72.5 29.5q43 0 72.5 -30t29.5 -73t-29.5 -72.5t-72.5 -29.5 t-73 30.5t-30 74.5zM616 1260q0 41 30.5 70.5t72.5 29.5q43 0 72.5 -30t29.5 -73t-29.5 -72.5t-72.5 -29.5t-73 30.5t-30 74.5z" />
<glyph unicode="&#xfd;" horiz-adv-x="874" d="M-74 -309q71 -35 119 -35q83 0 135 55q61 61 94 142l88 202l-342 846h162l264 -655l285 655h152l-410 -942q-61 -141 -93.5 -200.5t-78.5 -116.5q-44 -54 -108 -83.5t-136 -29.5q-50 0 -114 25zM332 1102l282 332l162 -33l-373 -311z" />
<glyph unicode="&#xfe;" horiz-adv-x="1081" d="M158 -451v1885h149v-643q64 69 130.5 100t148.5 31q84 0 165.5 -40t137.5 -108q100 -124 100 -323q0 -200 -100 -324q-56 -68 -137.5 -107.5t-165.5 -39.5q-82 0 -148.5 31t-130.5 100v-562h-149zM297 455q0 -157 72 -250.5t192 -93.5t192 93t72 247t-72 247t-192 93 q-118 0 -191 -92.5t-73 -243.5z" />
<glyph unicode="&#xff;" horiz-adv-x="874" d="M-74 -309q71 -35 119 -35q83 0 135 55q61 61 94 142l88 202l-342 846h162l264 -655l285 655h152l-410 -942q-61 -141 -93.5 -200.5t-78.5 -116.5q-44 -54 -108 -83.5t-136 -29.5q-50 0 -114 25zM152 1260q0 41 30.5 70.5t71.5 29.5q43 0 72.5 -30t29.5 -73t-29.5 -72.5 t-72.5 -29.5t-72.5 30.5t-29.5 74.5zM535 1260q0 41 30.5 70.5t71.5 29.5q43 0 72.5 -30t29.5 -73t-29.5 -72.5t-72.5 -29.5t-72.5 30.5t-29.5 74.5z" />
<glyph unicode="&#x152;" horiz-adv-x="1972" d="M102 684q0 319 162 504q85 94 215.5 149.5t268.5 55.5q121 0 220.5 -37t196.5 -117v127h660v-129h-502v-477h502v-129h-502v-502h580v-129h-738v127q-97 -80 -197 -117t-220 -37q-138 0 -268.5 55.5t-215.5 149.5q-78 90 -120 220t-42 286zM281 684q0 -261 132.5 -421.5 t350.5 -160.5q121 0 225.5 51.5t175.5 145.5v754q-153 211 -407 211q-213 0 -345 -161t-132 -419z" />
<glyph unicode="&#x153;" horiz-adv-x="1636" d="M92 453q0 214 117.5 341.5t314.5 127.5q108 0 186 -39.5t144 -128.5q66 91 139 129.5t178 38.5q237 0 322 -177q26 -56 36.5 -121.5t14.5 -211.5h-620q0 -153 59 -227t182 -74q80 0 137 37t99 118l131 -71q-32 -56 -55.5 -84.5t-57.5 -53.5q-104 -77 -245 -77 q-107 0 -195 45q-39 21 -66 50t-59 85q-52 -78 -98 -113q-43 -31 -106 -49t-126 -18q-190 0 -311 133t-121 340zM256 455q0 -158 72 -252t192 -94q118 0 190 94t72 248t-72 248t-190 94t-191 -93.5t-73 -244.5zM926 541h463q-1 76 -10 115.5t-31 70.5q-54 78 -174 78 q-114 0 -171 -60.5t-77 -203.5z" />
<glyph unicode="&#x178;" horiz-adv-x="980" d="M-55 1366h190l363 -596l356 596h174l-457 -760v-606h-163v606zM174 1624q0 46 33.5 79.5t79.5 33.5q47 0 80.5 -33.5t33.5 -79.5q0 -47 -33 -81t-79 -34q-47 0 -81 34t-34 81zM584 1624q0 46 33 79.5t79 33.5q47 0 81 -33.5t34 -79.5q0 -47 -33.5 -81t-79.5 -34 q-47 0 -80.5 34t-33.5 81z" />
<glyph unicode="&#x2c6;" horiz-adv-x="1024" d="M211 1106l250 328h114l250 -328l-61 -16l-246 239l-242 -239z" />
<glyph unicode="&#x2dc;" horiz-adv-x="1024" d="M207 1198q25 27 92 92q39 37 60.5 49.5t50.5 12.5q26 0 46 -6.5t93 -36.5q97 -43 129 -43q55 0 102 84l45 -27q-91 -158 -172 -158q-20 0 -35.5 5.5t-87.5 37.5q-107 45 -139 45q-29 0 -61 -19.5t-86 -70.5z" />
<glyph unicode="&#x2000;" horiz-adv-x="921" />
<glyph unicode="&#x2001;" horiz-adv-x="1843" />
<glyph unicode="&#x2002;" horiz-adv-x="921" />
<glyph unicode="&#x2003;" horiz-adv-x="1843" />
<glyph unicode="&#x2004;" horiz-adv-x="614" />
<glyph unicode="&#x2005;" horiz-adv-x="460" />
<glyph unicode="&#x2006;" horiz-adv-x="307" />
<glyph unicode="&#x2007;" horiz-adv-x="307" />
<glyph unicode="&#x2008;" horiz-adv-x="230" />
<glyph unicode="&#x2009;" horiz-adv-x="368" />
<glyph unicode="&#x200a;" horiz-adv-x="102" />
<glyph unicode="&#x2010;" horiz-adv-x="430" d="M0 432v115h430v-115h-430z" />
<glyph unicode="&#x2011;" horiz-adv-x="430" d="M0 432v115h430v-115h-430z" />
<glyph unicode="&#x2012;" horiz-adv-x="430" d="M0 432v115h430v-115h-430z" />
<glyph unicode="&#x2013;" horiz-adv-x="1024" d="M143 451v81h738v-81h-738z" />
<glyph unicode="&#x2014;" horiz-adv-x="1296" d="M0 451v81h1296v-81h-1296z" />
<glyph unicode="&#x2018;" horiz-adv-x="518" d="M150 932v219l188 283h88l-74 -191q-47 -118 -47 -166v-145h-155z" />
<glyph unicode="&#x2019;" horiz-adv-x="532" d="M98 932l74 190q45 120 45 166v146h156v-220l-189 -282h-86z" />
<glyph unicode="&#x201a;" horiz-adv-x="532" d="M98 -293l74 191q45 120 45 165v146h156v-219l-189 -283h-86z" />
<glyph unicode="&#x201c;" horiz-adv-x="792" d="M150 932v219l188 283h84l-70 -191q-47 -118 -47 -166v-145h-155zM422 932v219l188 283h88l-73 -191q-47 -118 -47 -166v-145h-156z" />
<glyph unicode="&#x201d;" horiz-adv-x="792" d="M92 932l74 190q47 115 47 166v146h156v-220l-189 -282h-88zM369 932l69 190q47 115 47 166v146h156v-220l-188 -282h-84z" />
<glyph unicode="&#x201e;" horiz-adv-x="792" d="M92 -283l109 191q23 39 38 87t15 79v145h156v-219l-215 -283h-103zM324 -283l108 191q23 39 38 87t15 79v145h156v-219l-215 -283h-102z" />
<glyph unicode="&#x2022;" horiz-adv-x="1366" d="M401 692q0 120 83.5 202.5t203.5 82.5q115 0 198 -83.5t83 -199.5q0 -118 -83 -201t-200 -83q-118 0 -201.5 82.5t-83.5 199.5z" />
<glyph unicode="&#x2026;" horiz-adv-x="1638" d="M164 84q0 44 32 76.5t76 32.5q46 0 78.5 -32.5t32.5 -76.5q0 -46 -32.5 -78.5t-76.5 -32.5q-46 0 -78 32.5t-32 78.5zM711 84q0 44 32 76.5t76 32.5q46 0 78.5 -32.5t32.5 -76.5q0 -46 -32.5 -78.5t-76.5 -32.5q-46 0 -78 32.5t-32 78.5zM1255 84q0 44 32.5 76.5 t76.5 32.5q46 0 78.5 -32.5t32.5 -76.5q0 -46 -32.5 -78.5t-76.5 -32.5q-46 0 -78.5 32.5t-32.5 78.5z" />
<glyph unicode="&#x202f;" horiz-adv-x="368" />
<glyph unicode="&#x2039;" horiz-adv-x="501" d="M88 457l238 444h61l-127 -444l139 -457h-73z" />
<glyph unicode="&#x203a;" horiz-adv-x="501" d="M102 901h74l238 -455l-238 -446h-63l127 446z" />
<glyph unicode="&#x205f;" horiz-adv-x="460" />
<glyph unicode="&#x20ac;" d="M18 535l43 100h70q-2 10 -2 37q0 41 2 61h-113l43 101h80q37 265 173 412t345 147q134 0 240 -64q46 -27 78 -59.5t74 -95.5l-119 -115q-43 105 -108.5 155t-161.5 50q-136 0 -228 -115t-117 -315h521l-41 -101h-488q-2 -23 -2 -63q0 -23 2 -35h445l-43 -100h-396 q9 -106 45 -201q38 -108 119 -170t183 -62q112 0 190 72q39 39 80 131l119 -112q-42 -63 -74.5 -96t-77.5 -60q-109 -64 -242 -64q-149 0 -262 68.5t-176 196.5q-61 125 -82 297h-119z" />
<glyph unicode="&#x2122;" horiz-adv-x="1742" d="M6 1276v90h610v-90h-249v-729h-115v729h-246zM709 547v819h112l320 -661l317 661h113v-819h-111v577l-280 -577h-80l-281 577v-577h-110z" />
<glyph unicode="&#xe000;" horiz-adv-x="901" d="M0 0v901h901v-901h-901z" />
</font>
</defs>
</svg>
