<?xml version="1.0" standalone="no"?>
<!DOCTYPE svg PUBLIC "-//W3C//DTD SVG 1.1//EN" "http://www.w3.org/Graphics/SVG/1.1/DTD/svg11.dtd" >
<svg xmlns="http://www.w3.org/2000/svg">
<metadata></metadata>
<defs>
<font id="urwgroteskbold" horiz-adv-x="1243" >
<font-face units-per-em="2048" ascent="1434" descent="-614" />
<missing-glyph horiz-adv-x="512" />
<glyph unicode="&#xfb01;" horiz-adv-x="1323" d="M10 649v307h133v50q0 115 16 182t56 121q51 68 125.5 96.5t198.5 28.5q104 0 235 -29l-61 -283q-39 8 -62 8q-57 0 -83.5 -31.5t-26.5 -97.5v-45h172v-307h-172v-649h-398v649h-133zM805 1227q0 88 59.5 144t153.5 56q92 0 151.5 -56.5t59.5 -145.5t-59.5 -146 t-151.5 -57q-95 0 -154 57t-59 148zM825 0v956h396v-956h-396z" />
<glyph unicode="&#xfb02;" horiz-adv-x="1337" d="M10 649v307h133v50q0 115 16 182t56 121q51 68 125.5 96.5t198.5 28.5q104 0 235 -29l-61 -283q-39 8 -62 8q-57 0 -83.5 -31.5t-26.5 -97.5v-45h172v-307h-172v-649h-398v649h-133zM838 0v1434h395v-1434h-395z" />
<glyph unicode="&#xfb03;" horiz-adv-x="2017" d="M10 649v307h133v50q0 115 16 182t56 121q51 68 125.5 96.5t198.5 28.5q106 0 237 -29l-61 -283q-41 8 -62 8q-58 0 -85 -31.5t-27 -97.5v-45h297v50q0 116 15.5 182.5t55.5 120.5q51 68 125.5 96.5t198.5 28.5q106 0 237 -29l-61 -283q-41 8 -61 8q-58 0 -85.5 -31.5 t-27.5 -97.5v-45h174v-307h-174v-649h-397v649h-297v-649h-398v649h-133zM1499 1227q0 87 60 143.5t153 56.5q94 0 153.5 -56.5t59.5 -145.5t-59.5 -146t-153.5 -57q-95 0 -154 57t-59 148zM1520 0v956h395v-956h-395z" />
<glyph unicode="&#xfb04;" horiz-adv-x="2031" d="M10 649v307h133v50q0 115 16 182t56 121q51 68 125.5 96.5t198.5 28.5q106 0 237 -29l-61 -283q-41 8 -62 8q-58 0 -85 -31.5t-27 -97.5v-45h297v50q0 116 15.5 182.5t55.5 120.5q51 68 125.5 96.5t198.5 28.5q106 0 237 -29l-61 -283q-41 8 -61 8q-58 0 -85.5 -31.5 t-27.5 -97.5v-45h174v-307h-174v-649h-397v649h-297v-649h-398v649h-133zM1532 0v1434h395v-1434h-395z" />
<glyph horiz-adv-x="2048" />
<glyph horiz-adv-x="2048" />
<glyph unicode="&#xd;" horiz-adv-x="2048" />
<glyph unicode=" "  horiz-adv-x="512" />
<glyph unicode="&#x09;" horiz-adv-x="512" />
<glyph unicode="&#xa0;" horiz-adv-x="512" />
<glyph unicode="!" horiz-adv-x="665" d="M123 176q0 85 60 141t151 56t150 -56.5t59 -144.5q0 -86 -59 -142.5t-150 -56.5q-92 0 -151.5 57t-59.5 146zM127 956v410h410v-410l-78 -475h-254z" />
<glyph unicode="&#x22;" horiz-adv-x="845" d="M84 1366h295l-49 -549h-197zM467 1366h297l-51 -549h-197z" />
<glyph unicode="#" horiz-adv-x="1024" d="M31 207l39 223h188l84 508h-192l36 227h191l35 201h104l-35 -201h219l31 201h111l-35 -201h186l-37 -227h-184l-82 -508h189l-35 -223h-191l-32 -207h-107l33 207h-217l-33 -207h-109l35 207h-192zM365 430h217l82 508h-218z" />
<glyph unicode="$" horiz-adv-x="1366" d="M20 338l383 117q10 -82 58 -127t139 -60v232q-186 36 -262 62t-129 69q-127 109 -127 301q0 134 56.5 227t176.5 154q60 29 121.5 43.5t163.5 21.5v176h137v-176q137 -3 201 -18.5t143 -63.5q91 -60 132 -123t47 -155l-377 -74q-6 72 -40 104t-106 35v-245 q315 -44 442.5 -138t127.5 -282q0 -155 -88 -265t-246 -153q-100 -27 -236 -27v-245h-137v245q-503 -15 -580 365zM453 985q0 -47 37.5 -79t109.5 -44v223h-14q-65 -2 -99 -27.5t-34 -72.5zM737 256h41q57 0 88 26.5t31 77.5q0 53 -31 76t-129 45v-225z" />
<glyph unicode="%" horiz-adv-x="1540" d="M86 1030q0 72 23 140t61 112q78 84 223 84q149 0 230.5 -88.5t81.5 -251.5q0 -147 -80 -233q-78 -84 -234 -84q-146 0 -225.5 83.5t-79.5 237.5zM125 -197l1081 1649l135 -25l-1075 -1648zM285 1042q0 -82 29 -128t81 -46q51 0 81 46t30 124q0 79 -30 125.5t-81 46.5 t-80.5 -45.5t-29.5 -122.5zM838 322q0 72 22.5 139t61.5 112q78 84 223 84q149 0 230 -88.5t81 -251.5q0 -147 -80 -233q-78 -84 -233 -84q-146 0 -225.5 84t-79.5 238zM1036 334q0 -83 29 -128.5t82 -45.5q52 0 81 45.5t29 124.5q0 80 -29 126t-81 46q-51 0 -81 -45.5 t-30 -122.5z" />
<glyph unicode="&#x26;" horiz-adv-x="1572" d="M47 408q0 160 107 258q39 38 84 60.5t131 49.5q-80 129 -80 256q0 137 86 232q60 66 145 96.5t209 30.5q418 0 418 -330q0 -121 -62.5 -202t-203.5 -146l28 -29l41 -39q3 -3 16.5 -14t24.5 -21q18 -14 33 -26q34 55 47.5 107t15.5 126h398q-4 -108 -40.5 -202 t-119.5 -216q60 -33 102 -49.5t132 -40.5l-222 -336q-96 32 -153 59.5t-154 88.5q-91 -76 -197 -112t-243 -36q-253 0 -398 116t-145 319zM455 432q0 -60 42.5 -98.5t108.5 -38.5q84 0 146 51q-70 52 -120 101t-100 114q-44 -32 -60.5 -60.5t-16.5 -68.5zM616 1065 q0 -72 74 -152q133 67 133 164q0 41 -27 65.5t-73 24.5q-50 0 -78.5 -27.5t-28.5 -74.5z" />
<glyph unicode="'" horiz-adv-x="460" d="M84 1366h295l-49 -549h-197z" />
<glyph unicode="(" horiz-adv-x="700" d="M68 516q0 343 114 619q64 150 180 313l261 -25q-117 -229 -162 -412.5t-45 -432.5q0 -334 71 -629q26 -108 57 -186t89 -183l-260 -31q-82 101 -125.5 178.5t-81.5 190.5q-98 270 -98 598z" />
<glyph unicode=")" horiz-adv-x="700" d="M68 1419l260 29q82 -101 125.5 -178.5t81.5 -190.5q98 -270 98 -598q0 -276 -68 -490t-227 -442l-260 25q117 231 162 414t45 432q0 330 -72 629q-26 109 -56.5 186t-88.5 184z" />
<glyph unicode="*" horiz-adv-x="860" d="M82 1163l20 58l252 -33l45 264h62l45 -264l250 33l22 -58l-225 -131l125 -225l-49 -39l-199 209l-201 -209l-47 39l125 225z" />
<glyph unicode="+" horiz-adv-x="1296" d="M98 389v174h461v461h186v-461h453v-174h-453v-457h-186v457h-461z" />
<glyph unicode="," horiz-adv-x="610" d="M35 -299l67 240q45 164 45 270v192h322v-286l-221 -387z" />
<glyph unicode="-" horiz-adv-x="557" d="M0 373v252h557v-252h-557z" />
<glyph unicode="." horiz-adv-x="610" d="M96 176q0 85 60 141t151 56t150 -56.5t59 -144.5q0 -86 -59 -142.5t-150 -56.5q-92 0 -151.5 57t-59.5 146z" />
<glyph unicode="/" horiz-adv-x="944" d="M41 -422l582 1870l200 -25l-579 -1874z" />
<glyph unicode="0" d="M74 688q0 188 31.5 311t103.5 215q75 95 173.5 137t248.5 42q137 0 235 -43.5t168 -135.5q72 -94 103.5 -215.5t31.5 -304.5q0 -199 -30.5 -322t-104.5 -220q-72 -93 -170.5 -136t-240.5 -43q-144 0 -243 43t-171 136q-73 97 -104 219t-31 317zM465 680q0 -200 40 -304 t116 -104q157 0 157 410q0 201 -39 306.5t-114 105.5q-160 0 -160 -414z" />
<glyph unicode="1" d="M156 848v280q204 11 308 65.5t144 172.5h344v-1366h-395v881z" />
<glyph unicode="2" d="M66 0v309q337 257 503 400q80 68 112 116.5t32 102.5t-35.5 86.5t-95.5 32.5t-92.5 -31t-49.5 -103q-6 -22 -14 -63l-346 168q23 96 49.5 149.5t73.5 100.5q121 127 393 127q251 0 383.5 -101t132.5 -293q0 -175 -104 -307q-58 -74 -132.5 -140t-267.5 -214h561v-340 h-1103z" />
<glyph unicode="3" d="M45 354l367 121q19 -104 55.5 -144t112.5 -40q75 0 119 35.5t44 95.5q0 51 -33 84t-96 43q-46 6 -159 6v260q113 0 170 16q50 13 78 48.5t28 83.5q0 53 -38.5 83.5t-104.5 30.5q-75 0 -115 -41.5t-55 -134.5l-350 119q19 108 47 167.5t82 104.5q113 101 376 101 q274 0 418 -96t144 -279q0 -108 -56 -197q-25 -42 -52.5 -67.5t-82.5 -55.5q68 -17 102.5 -39.5t63.5 -68.5q51 -74 51 -178q0 -102 -47.5 -194.5t-128.5 -147.5q-141 -97 -405 -97q-156 0 -256.5 33t-171.5 105q-48 50 -71.5 102.5t-35.5 140.5z" />
<glyph unicode="4" d="M66 272v299l555 795h421v-795h170v-299h-170v-272h-378v272h-598zM360 571h304v478z" />
<glyph unicode="5" d="M47 285l375 127q33 -119 156 -119q70 0 116.5 49.5t46.5 124.5q0 77 -46 123.5t-122 46.5q-56 0 -91.5 -22.5t-69.5 -77.5l-334 98l78 731h946v-309h-627l-24 -209q66 54 125 74t147 20q191 0 315 -115q121 -118 121 -333q0 -254 -152 -387.5t-442 -133.5 q-244 0 -389 113q-50 37 -77 79.5t-52 119.5z" />
<glyph unicode="6" d="M72 635q0 387 149 572.5t461 185.5q167 0 265.5 -45.5t180.5 -161.5l-245 -201q-35 67 -74.5 95t-99.5 28q-111 0 -172 -92q-21 -30 -32 -71.5t-20 -129.5q67 57 134.5 82t152.5 25q83 0 163.5 -33.5t133.5 -89.5q102 -111 102 -314q0 -240 -139.5 -376t-386.5 -136 q-142 0 -256 48t-186 137q-69 86 -100 198.5t-31 278.5zM467 444q0 -78 42 -124t114 -46q73 0 119 53t46 138q0 82 -40.5 127t-112.5 45q-76 0 -122 -52.5t-46 -140.5z" />
<glyph unicode="7" d="M76 1055v311h1083v-274l-545 -1092h-456l542 1055h-624z" />
<glyph unicode="8" d="M61 393q0 121 58 203q27 39 58.5 63t90.5 50q-97 66 -133.5 129.5t-36.5 167.5q0 176 105 264q69 58 179 90.5t239 32.5t238.5 -32.5t178.5 -90.5q105 -88 105 -266q0 -102 -36 -165.5t-132 -129.5q59 -26 90.5 -50t58.5 -63q58 -82 58 -205q0 -94 -34 -172t-97 -131 q-139 -115 -428 -115q-291 0 -430 115q-63 53 -97.5 132t-34.5 173zM444 422q0 -68 50.5 -112t128.5 -44q76 0 126 44t50 112q0 66 -48 105.5t-126 39.5q-85 0 -133 -38.5t-48 -106.5zM477 971q0 -63 39 -102.5t102 -39.5q66 0 106 39t40 103q0 59 -38.5 94t-104.5 35 t-105 -35t-39 -94z" />
<glyph unicode="9" d="M68 883q0 120 38 220.5t109 166.5q132 123 371 123q148 0 263 -43t183 -123q129 -153 129 -490q0 -483 -229 -665q-128 -99 -387 -99q-177 0 -269.5 37t-189.5 146l250 217q40 -61 85 -88t107 -27q47 0 90 19t68 51q28 35 42 81.5t24 141.5q-64 -60 -124.5 -83.5 t-148.5 -23.5q-190 0 -300.5 118t-110.5 321zM446 905q0 -82 41 -127t115 -45q72 0 117 52t45 137q0 81 -39 126.5t-107 45.5q-78 0 -125 -52t-47 -137z" />
<glyph unicode=":" horiz-adv-x="610" d="M96 176q0 85 60 141t151 56t150 -56.5t59 -144.5q0 -86 -59 -142.5t-150 -56.5q-92 0 -151.5 57t-59.5 146zM96 758q0 86 60 142t151 56t150 -56t59 -144t-59 -144.5t-150 -56.5q-92 0 -151.5 57t-59.5 146z" />
<glyph unicode=";" horiz-adv-x="610" d="M35 -299l67 240q45 161 45 270v192h322v-286l-221 -387zM96 758q0 86 60 142t151 56t150 -56t59 -144t-59 -144.5t-150 -56.5q-94 0 -152.5 57t-58.5 146z" />
<glyph unicode="&#x3c;" horiz-adv-x="1161" d="M57 418v117l942 364l103 -145l-721 -281l721 -283l-127 -143z" />
<glyph unicode="=" horiz-adv-x="1308" d="M109 242v180h1089v-180h-1089zM109 539v174h1089v-174h-1089z" />
<glyph unicode="&#x3e;" horiz-adv-x="1161" d="M57 190l721 283l-721 281l103 145l942 -364v-117l-918 -371z" />
<glyph unicode="?" horiz-adv-x="1021" d="M41 1057q23 94 49.5 145t73.5 90q60 53 138 76t196 23q224 0 339 -91t115 -266q0 -145 -86 -248q-47 -56 -215 -159q-49 -29 -69.5 -55t-20.5 -60q0 -13 8 -37h-301q-12 53 -12 84q0 80 35.5 127.5t134.5 101.5q80 44 114.5 88.5t34.5 102.5q0 49 -29 78.5t-77 29.5 q-68 0 -94 -59q-16 -36 -25 -110zM219 176q0 85 60 141t149 56q92 0 151.5 -56.5t59.5 -144.5q0 -86 -59 -142.5t-150 -56.5q-92 0 -151.5 57t-59.5 146z" />
<glyph unicode="@" horiz-adv-x="1447" d="M47 590q0 158 56 296t154 235.5t236.5 153.5t297.5 56q269 0 432 -140t163 -370q0 -139 -58 -261t-156 -194.5t-209 -72.5q-63 0 -100.5 27.5t-57.5 89.5q-96 -111 -215 -111q-99 0 -156 72.5t-57 199.5q0 191 101 326t243 135q69 0 109 -25t69 -85l19 98h157l-84 -377 q-20 -87 -20 -123q0 -40 19.5 -64t51.5 -24q78 0 140.5 114.5t62.5 260.5q0 186 -117.5 299t-312.5 113q-162 0 -299.5 -87t-217 -236.5t-79.5 -326.5q0 -215 139.5 -347t368.5 -132q117 0 211.5 31t212.5 106l-25 -100q-117 -83 -221 -118.5t-229 -35.5q-281 0 -455 170 t-174 447zM551 559q0 -139 90 -139q87 0 147 119q58 123 58 258q0 137 -101 137q-80 0 -137 -119q-24 -52 -40.5 -126t-16.5 -130z" />
<glyph unicode="A" horiz-adv-x="1361" d="M-41 0l492 1366h487l420 -1366h-438l-54 203h-442l-68 -203h-397zM520 487h273l-121 426z" />
<glyph unicode="B" horiz-adv-x="1417" d="M137 0v1366h762q186 0 295 -90.5t109 -245.5q0 -94 -41 -168q-25 -44 -55.5 -72.5t-88.5 -62.5q64 -24 97 -44.5t59 -55.5q61 -82 61 -213q0 -113 -46.5 -201.5t-133.5 -140.5q-62 -38 -138 -55t-188 -17h-692zM547 313h102q85 0 114.5 3.5t53.5 15.5q60 29 60 100 q0 41 -24 68.5t-67 36.5q-20 4 -163 4h-76v-228zM547 819h86q115 0 153 12q74 25 74 113q0 63 -44.5 86t-168.5 23h-100v-234z" />
<glyph unicode="C" horiz-adv-x="1372" d="M72 678q0 192 48.5 319t160.5 230q101 92 224 133t300 41q281 0 414 -109q63 -52 95.5 -122.5t51.5 -192.5l-387 -141q-6 72 -18 111t-37 67q-56 59 -154 59q-54 0 -99.5 -23t-70.5 -61q-34 -53 -54 -139.5t-20 -183.5q0 -177 63.5 -276t176.5 -99q46 0 88 22t70 60 q35 50 55 157l389 -143q-28 -115 -71 -184.5t-121 -128.5q-146 -109 -394 -109q-359 0 -534.5 176t-175.5 537z" />
<glyph unicode="D" horiz-adv-x="1492" d="M137 0v1366h643q110 0 216.5 -29.5t185.5 -83.5q127 -83 184 -213.5t57 -337.5q0 -414 -258 -593q-72 -51 -182 -80t-231 -29h-615zM561 328h96q81 0 128 14t87 49q49 44 78 129.5t29 184.5q0 108 -33.5 186.5t-93.5 112.5q-64 34 -201 34h-90v-710z" />
<glyph unicode="E" d="M137 0v1366h944v-328h-520v-198h520v-308h-520v-204h602v-328h-1026z" />
<glyph unicode="F" horiz-adv-x="1128" d="M137 0v1366h944v-328h-520v-225h520v-307h-520v-506h-424z" />
<glyph unicode="G" horiz-adv-x="1490" d="M72 666q0 183 39 306.5t125 215.5q201 213 581 213q159 0 267 -32.5t184 -104.5q52 -49 75 -98.5t29 -123.5l-375 -141q-17 59 -35.5 88.5t-48.5 48.5q-58 33 -129 33q-120 0 -189 -112t-69 -306q0 -135 44 -226t124 -120q56 -22 174 -22q9 0 60 2l30 2v151h-196v322h612 v-762q-151 -7 -377 -23q-135 -12 -233 -12q-163 0 -298.5 50t-229.5 145q-86 89 -125 208.5t-39 297.5z" />
<glyph unicode="H" horiz-adv-x="1519" d="M137 0v1366h424v-514h397v514h424v-1366h-424v514h-397v-514h-424z" />
<glyph unicode="I" horiz-adv-x="696" d="M137 0v1366h424v-1366h-424z" />
<glyph unicode="J" horiz-adv-x="1132" d="M-51 344l403 117q1 -86 25.5 -121t81.5 -35q40 0 70 23t44 63q13 35 13 146v829h424v-829q0 -160 -28.5 -256.5t-94.5 -157.5q-80 -75 -213.5 -116.5t-300.5 -41.5q-206 0 -300.5 84.5t-123.5 294.5z" />
<glyph unicode="K" horiz-adv-x="1423" d="M137 0v1366h416v-571l367 571h475l-414 -635l483 -731h-540l-371 575v-575h-416z" />
<glyph unicode="L" horiz-adv-x="1062" d="M137 0v1366h424v-1038h488v-328h-912z" />
<glyph unicode="M" horiz-adv-x="1974" d="M137 0v1366h561l291 -717l299 717h549v-1366h-410v791l-274 -791h-324l-282 791v-791h-410z" />
<glyph unicode="N" horiz-adv-x="1632" d="M137 0v1366h404l532 -711v711h424v-1366h-424l-512 678v-678h-424z" />
<glyph unicode="O" horiz-adv-x="1595" d="M72 696q0 388 247 566q194 139 480 139q288 0 479 -139q129 -94 188.5 -233t59.5 -345q0 -207 -59.5 -346t-188.5 -234q-185 -139 -477 -139q-294 0 -482 139q-132 96 -189.5 235.5t-57.5 356.5zM528 686q0 -145 56 -260q31 -64 87 -98.5t128 -34.5t128 35t87 98 q55 117 55 258q0 63 -15 134t-40 122q-32 64 -87.5 98.5t-127.5 34.5t-127.5 -34.5t-87.5 -98.5q-25 -51 -40.5 -122t-15.5 -132z" />
<glyph unicode="P" horiz-adv-x="1318" d="M137 0v1366h647q120 0 189.5 -17.5t136.5 -64.5q168 -117 168 -352q0 -155 -75.5 -268t-213.5 -166q-75 -29 -149.5 -39t-216.5 -10h-64v-449h-422zM559 784h55q122 0 168 21q28 14 44 41.5t16 62.5q0 129 -174 129l-64 -2h-45v-252z" />
<glyph unicode="Q" horiz-adv-x="1601" d="M70 698q0 324 172 496q98 98 247.5 152.5t321.5 54.5q314 0 512 -170q109 -94 159 -223t50 -318q0 -312 -152 -495q-42 -50 -85 -81t-126 -71l795 -213l-324 -262l-1083 426q-111 34 -181.5 74t-131.5 104q-174 186 -174 526zM530 688q0 -184 72.5 -288.5t198.5 -104.5 q124 0 196 104.5t72 284.5t-72 284.5t-196 104.5q-125 0 -198 -104t-73 -281z" />
<glyph unicode="R" horiz-adv-x="1388" d="M137 0v1366h584q162 0 229 -11.5t131 -51.5q189 -112 189 -359q0 -120 -56 -221q-26 -50 -57 -81t-92 -71l285 -571h-486l-198 489h-111v-489h-418zM555 799h76q67 0 110 6q42 8 67.5 38.5t25.5 74.5q0 65 -44.5 90.5t-158.5 25.5h-31l-45 -4v-231z" />
<glyph unicode="S" horiz-adv-x="1302" d="M-2 334l399 117q21 -59 52 -95q29 -29 77.5 -47t100.5 -18q66 0 103.5 25t37.5 69q0 69 -84 100q-43 14 -207 47q-82 17 -163 60.5t-128 95.5q-47 54 -74.5 128t-27.5 149q0 93 42 178.5t116 142.5q147 115 424 115q293 0 424 -111q54 -45 83.5 -88t49.5 -110l-365 -140 q-22 78 -72 119t-122 41q-63 0 -105.5 -31t-42.5 -77q0 -48 49 -78q33 -19 73 -30.5t183 -41.5q176 -36 275 -109q62 -47 98.5 -129t36.5 -174q0 -110 -49.5 -205.5t-143.5 -162.5q-82 -59 -181 -84t-249 -25q-134 0 -232 25t-179 80q-77 51 -119 106.5t-80 157.5z" />
<glyph unicode="T" horiz-adv-x="1026" d="M-55 1042v324h1136v-324h-356v-1042h-424v1042h-356z" />
<glyph unicode="U" horiz-adv-x="1490" d="M123 569v797h424v-791q0 -151 31 -204q44 -78 167 -78q135 0 177 94q22 58 22 188v791h424v-797q0 -151 -24 -243t-84 -168q-78 -101 -200.5 -147t-314.5 -46q-211 0 -340 55.5t-202 178.5q-44 72 -62 154t-18 216z" />
<glyph unicode="V" horiz-adv-x="1333" d="M-16 1366h454l240 -864l299 864h414l-517 -1366h-450z" />
<glyph unicode="W" horiz-adv-x="2054" d="M27 1366h446l164 -678l229 678h367l184 -692l244 692h422l-455 -1366h-385l-217 707l-264 -707h-391z" />
<glyph unicode="X" horiz-adv-x="1304" d="M-72 0l484 715l-383 651h501l152 -256l172 256h461l-410 -629l443 -737h-514l-193 326l-213 -326h-500z" />
<glyph unicode="Y" horiz-adv-x="1267" d="M-82 1366h469l279 -465l245 465h432l-497 -819v-547h-424v528z" />
<glyph unicode="Z" horiz-adv-x="1189" d="M12 0v297l584 741h-524v328h1046v-313l-549 -725h615v-328h-1172z" />
<glyph unicode="[" horiz-adv-x="667" d="M104 -436v1870h486v-119l-203 -33v-1575l203 -22v-121h-486z" />
<glyph unicode="\" horiz-adv-x="944" d="M121 1423l201 25l581 -1870l-203 -29z" />
<glyph unicode="]" horiz-adv-x="667" d="M78 -317l201 32v1575l-201 23v121h483v-1870h-483v119z" />
<glyph unicode="^" horiz-adv-x="927" d="M117 922l264 512h143l289 -512l-170 -48l-186 330l-176 -330z" />
<glyph unicode="_" d="M0 -94h1243v-170h-1243v170z" />
<glyph unicode="`" horiz-adv-x="1024" d="M70 1364l297 100l315 -374l-137 -27z" />
<glyph unicode="a" horiz-adv-x="1296" d="M68 469q0 281 147 410q119 104 315 104q104 0 162 -29.5t105 -107.5v110h395v-956h-395v94q-37 -42 -62 -60t-61 -30q-76 -31 -180 -31q-202 0 -314 130.5t-112 365.5zM487 481q0 -112 38 -170.5t112 -58.5q160 0 160 225q0 109 -40.5 167t-115.5 58q-72 0 -113 -58.5 t-41 -162.5z" />
<glyph unicode="b" horiz-adv-x="1300" d="M102 0v1434h396v-566q77 63 144.5 89t156.5 26q81 0 156.5 -26t129.5 -72q148 -126 148 -398q0 -238 -121 -376t-330 -138q-84 0 -144 23.5t-140 87.5l-52 -84h-344zM498 477q0 -106 42 -165.5t117 -59.5q73 0 114.5 59t41.5 162q0 110 -40 169.5t-114 59.5 q-75 0 -118 -60.5t-43 -164.5z" />
<glyph unicode="c" horiz-adv-x="1126" d="M68 473q0 127 41.5 230t119.5 171q66 57 158.5 83t230.5 26q229 0 345.5 -73.5t154.5 -243.5l-364 -105q0 189 -115 189q-74 0 -113 -78t-39 -226q0 -235 131 -235q57 0 88 47.5t42 147.5l376 -97q-26 -99 -64 -155.5t-104 -96.5q-144 -84 -374 -84q-227 0 -344 88 q-80 62 -125 171t-45 241z" />
<glyph unicode="d" horiz-adv-x="1296" d="M68 469q0 281 147 410q122 104 311 104q97 0 159 -25t112 -84v560h395v-1434h-395v82q-75 -62 -140 -85.5t-163 -23.5q-202 0 -314 130.5t-112 365.5zM487 481q0 -112 38 -170.5t112 -58.5q160 0 160 225q0 109 -40.5 167t-115.5 58q-74 0 -114 -57.5t-40 -163.5z" />
<glyph unicode="e" horiz-adv-x="1185" d="M68 471q0 512 538 512q240 0 359 -98q71 -60 112 -165t41 -226q0 -12 -4 -82h-649v-25q0 -98 32 -145t99 -47q53 0 83.5 27.5t47.5 90.5l348 -69q-51 -138 -171 -204.5t-318 -66.5q-518 0 -518 498zM471 600h266q-3 84 -34.5 123t-96.5 39q-62 0 -95 -39.5t-40 -122.5z " />
<glyph unicode="f" horiz-adv-x="735" d="M10 649v307h133v50q0 115 16 182t56 121q51 68 125.5 96.5t198.5 28.5q104 0 235 -29l-61 -283q-39 8 -62 8q-57 0 -83.5 -31.5t-26.5 -97.5v-45h172v-307h-172v-649h-398v649h-133z" />
<glyph unicode="g" horiz-adv-x="1294" d="M68 467q0 284 147 410q121 106 307 106q97 0 160 -28t115 -95v96h395v-942q0 -216 -139 -340q-72 -63 -199.5 -97t-294.5 -34q-249 0 -352 103q-35 33 -54 75.5t-34 118.5l383 88q10 -62 40.5 -90t86.5 -28q78 0 124 56.5t46 151.5v76q-76 -69 -143 -95t-167 -26 q-199 0 -310 130.5t-111 363.5zM487 481q0 -112 38 -170.5t112 -58.5q160 0 160 225q0 109 -40.5 167t-115.5 58q-74 0 -114 -57.5t-40 -163.5z" />
<glyph unicode="h" horiz-adv-x="1275" d="M102 0v1434h396v-605q79 86 151.5 120t175.5 34q94 0 170 -32t119 -89q32 -43 46 -100t14 -152v-610h-396v449q0 77 -4 106t-18 51q-29 51 -105 51q-88 0 -120.5 -49.5t-32.5 -183.5v-424h-396z" />
<glyph unicode="i" horiz-adv-x="600" d="M84 1227q0 88 59.5 144t153.5 56q92 0 151.5 -56.5t59.5 -145.5t-59.5 -146t-151.5 -57q-95 0 -154 57t-59 148zM102 0v956h396v-956h-396z" />
<glyph unicode="j" horiz-adv-x="600" d="M-141 -135q83 0 107.5 2.5t51.5 11.5q84 34 84 135v942h396v-944q0 -106 -11.5 -163.5t-42.5 -108.5q-106 -176 -480 -176h-13zM90 1237q0 86 56.5 138t150.5 52t149.5 -52t55.5 -140t-55.5 -140.5t-149.5 -52.5q-95 0 -151 53t-56 142z" />
<glyph unicode="k" horiz-adv-x="1226" d="M102 0v1434h396v-879l272 401h416l-305 -403l362 -553h-500l-245 436v-436h-396z" />
<glyph unicode="l" horiz-adv-x="600" d="M102 0v1434h396v-1434h-396z" />
<glyph unicode="m" horiz-adv-x="1871" d="M102 0v956h396v-108q70 76 134.5 105.5t158.5 29.5q109 0 176 -32.5t127 -114.5q78 81 152 114t177 33q93 0 167.5 -31t117.5 -88q28 -37 44.5 -102t16.5 -137v-625h-395v475q0 95 -27.5 137.5t-89.5 42.5q-67 0 -94.5 -45.5t-27.5 -156.5v-453h-396v477q0 92 -28 136 t-88 44q-67 0 -96 -55t-29 -184v-418h-396z" />
<glyph unicode="n" horiz-adv-x="1275" d="M102 0v956h396v-127q82 87 153.5 120.5t173.5 33.5q94 0 170 -32t119 -89q32 -41 46 -99.5t14 -152.5v-610h-396v449q0 77 -4 106t-18 51q-29 51 -105 51q-88 0 -120.5 -49.5t-32.5 -183.5v-424h-396z" />
<glyph unicode="o" horiz-adv-x="1282" d="M68 475q0 275 151 395q75 60 176 86.5t256 26.5q151 0 247.5 -22.5t162.5 -73.5q73 -57 113 -161.5t40 -238.5q0 -130 -40 -234.5t-115 -170.5q-129 -111 -445 -111q-141 0 -230.5 19.5t-154.5 64.5q-161 115 -161 420zM487 481q0 -112 40 -171.5t114 -59.5 q73 0 113.5 59.5t40.5 167.5q0 109 -40.5 169.5t-113.5 60.5q-72 0 -113 -60t-41 -166z" />
<glyph unicode="p" horiz-adv-x="1300" d="M102 -436v1392h396v-102q66 72 130 100.5t163 28.5q210 0 326 -130.5t116 -365.5q0 -238 -121.5 -376t-331.5 -138q-85 0 -144.5 23.5t-137.5 87.5v-520h-396zM498 477q0 -106 42 -165.5t117 -59.5q73 0 114.5 59.5t41.5 163.5q0 110 -40 168.5t-114 58.5 q-75 0 -118 -60.5t-43 -164.5z" />
<glyph unicode="q" horiz-adv-x="1294" d="M68 471q0 279 147 408q122 104 311 104q97 0 159 -25t112 -84l71 82h324v-1392h-395v518q-75 -62 -140 -85.5t-163 -23.5q-203 0 -314.5 130.5t-111.5 367.5zM487 481q0 -112 38 -170.5t112 -58.5q160 0 160 225q0 109 -40.5 167t-115.5 58q-72 0 -113 -58.5t-41 -162.5z " />
<glyph unicode="r" horiz-adv-x="903" d="M102 0v956h383v-157q66 104 126 145t145 41q68 0 180 -43l-119 -377q-78 41 -141 41q-93 0 -135.5 -76.5t-42.5 -244.5v-285h-396z" />
<glyph unicode="s" horiz-adv-x="1085" d="M16 258l344 88q31 -65 70.5 -94t97.5 -29q41 0 65.5 18.5t24.5 47.5q0 25 -10.5 37t-40 22t-104.5 25q-126 27 -185 48t-98 54q-51 43 -73.5 86.5t-22.5 100.5q0 73 31 134.5t86 96.5q137 90 393 90q189 0 294 -55t142 -174l-338 -92q-23 56 -47.5 73t-81.5 17 q-44 0 -69 -16t-25 -44q0 -37 35 -56.5t114 -25.5q132 -12 197 -29.5t111 -54.5q104 -82 104 -200q0 -172 -145.5 -263.5t-415.5 -91.5q-200 0 -306.5 67.5t-146.5 219.5z" />
<glyph unicode="t" horiz-adv-x="798" d="M8 653v303h131v230l398 129v-359h198v-303h-198v-131q0 -72 10.5 -108.5t38.5 -59.5q53 -47 184 -47l-72 -307h-82h-110q-244 0 -318 145q-27 52 -38 117t-11 174v217h-131z" />
<glyph unicode="u" horiz-adv-x="1273" d="M102 352v68v536h396v-415q0 -105 14 -152q12 -42 45.5 -66t79.5 -24q38 0 70 18.5t51 49.5q12 25 15 53.5t3 116.5v419h395v-956h-395v127q-85 -88 -152 -121t-161 -33q-72 0 -141 22t-115 60q-105 89 -105 297z" />
<glyph unicode="v" horiz-adv-x="1026" d="M0 956h410l125 -421l178 421h366l-409 -956h-381z" />
<glyph unicode="w" horiz-adv-x="1685" d="M23 956h411l105 -464l143 464h371l129 -487l135 487h379l-322 -956h-413l-127 512l-154 -512h-412z" />
<glyph unicode="x" horiz-adv-x="1118" d="M-41 0l379 504l-301 452h446l97 -145l106 145h408l-314 -452l340 -504h-452l-121 195l-139 -195h-449z" />
<glyph unicode="y" horiz-adv-x="1056" d="M-47 -119q37 -2 74 -2q74 0 110 1.5t68 5t46.5 14.5t25 24t24.5 41l16 33l-335 958h440l131 -512l172 512h379l-373 -886q-41 -95 -69.5 -156t-61.5 -119t-56.5 -90.5t-58 -62t-64 -42t-76 -22t-91.5 -11.5q-31 -1 -72 -1h-43l-100 -2z" />
<glyph unicode="z" horiz-adv-x="1064" d="M27 0v252l426 401h-383v303h911v-284l-395 -369h444v-303h-1003z" />
<glyph unicode="{" horiz-adv-x="702" d="M16 590v78q84 8 121 45q31 29 40 68t9 139v182q0 111 15 165t55 93q38 37 94.5 51t161.5 14h117v-77q-48 -4 -77 -16.5t-54 -37.5q-31 -31 -42.5 -73t-11.5 -119v-182q0 -134 -34 -191t-138 -100q43 -7 68.5 -22t50.5 -46q34 -43 43.5 -86t9.5 -149v-189 q0 -120 38.5 -168t146.5 -63v-80q-45 -4 -105 -4q-95 0 -149 9t-90 32q-57 35 -78 80t-21 131v293q0 127 -35 172.5t-135 50.5z" />
<glyph unicode="|" d="M535 -342v1708h174v-1708h-174z" />
<glyph unicode="}" horiz-adv-x="702" d="M72 -94q107 15 145.5 63t38.5 168v189q0 106 9.5 149t43.5 86q25 31 50.5 46t68.5 22q-104 43 -138 100t-34 191v182q0 78 -11.5 120t-41.5 72q-25 25 -54 37.5t-77 16.5v77h116q105 0 161.5 -14t94.5 -51q40 -39 55 -93t15 -165v-182q0 -100 9 -139t40 -68 q37 -37 121 -45v-78q-100 -5 -135 -50.5t-35 -172.5v-293q0 -59 -6 -89t-25 -57q-38 -60 -105 -83t-204 -23q-57 0 -102 4v80z" />
<glyph unicode="~" horiz-adv-x="1161" d="M123 1315q77 61 139 86.5t129 25.5q71 0 246 -53q68 -22 133 -22q126 0 227 104l43 -180q-135 -111 -274 -111q-70 0 -182 35q-116 39 -187 39q-120 0 -202 -76z" />
<glyph unicode="&#xa1;" horiz-adv-x="665" d="M123 905q0 86 59 143.5t150 57.5q92 0 151.5 -57t59.5 -146q0 -86 -60 -142t-151 -56t-150 56t-59 144zM129 123l78 475h254l78 -475v-410h-410v410z" />
<glyph unicode="&#xa2;" horiz-adv-x="1146" d="M76 684q0 291 198 422q60 38 125 56.5t172 27.5v141h72v-141q384 -9 430 -285l-319 -74q-12 70 -38.5 103t-72.5 35v-576q44 19 64.5 44.5t46.5 97.5l317 -93q-46 -120 -160.5 -191.5t-267.5 -72.5v-184h-72v184q-83 0 -126.5 6.5t-96.5 28.5q-133 51 -202.5 171 t-69.5 300zM436 678q0 -74 14 -137t37 -95q17 -22 34 -31.5t50 -17.5v574q-38 -7 -59.5 -25t-38.5 -57q-37 -81 -37 -211z" />
<glyph unicode="&#xa3;" d="M43 0v307q129 -1 186 64.5t68 226.5h-156v274h191l8 72q19 137 40 193.5t73 111.5q134 137 368 137q108 0 182.5 -19.5t155.5 -70.5l-35 -278q-80 48 -119.5 64t-82.5 16q-80 0 -130 -47t-65 -136l-6 -43h309v-274h-342q-19 -78 -71 -158.5t-113 -122.5h694v-317h-1155z " />
<glyph unicode="&#xa4;" horiz-adv-x="1161" d="M55 117l232 231q-49 98 -49 180t49 174l-232 228l123 127l230 -232q53 28 90 38.5t86 10.5q94 0 176 -51l225 226l119 -121l-223 -223q47 -89 47 -183q0 -92 -49 -172l227 -233l-127 -119l-221 229q-43 -26 -80 -36.5t-88 -10.5q-91 0 -182 47l-230 -229zM403 532 q0 -76 52.5 -131t126.5 -55q75 0 127.5 52t52.5 126q0 76 -52.5 129.5t-127.5 53.5q-74 0 -126.5 -51.5t-52.5 -123.5z" />
<glyph unicode="&#xa5;" horiz-adv-x="1366" d="M-41 1366h496l256 -487l256 487h391l-256 -453h215v-120h-285l-100 -179h385v-127h-426v-487h-412v487h-424v127h357l-109 179h-248v120h176z" />
<glyph unicode="&#xa6;" d="M424 313h395v-655h-395v655zM424 618v748h395v-748h-395z" />
<glyph unicode="&#xa7;" d="M53 -51l322 84q6 -68 41 -117q37 -47 81.5 -66.5t116.5 -19.5q69 0 108.5 29t39.5 80q0 57 -41.5 82t-171.5 47q-226 39 -326 110q-74 54 -120 146.5t-46 187.5q0 179 152 313q-21 57 -28 92t-7 82q0 187 134.5 294.5t369.5 107.5q225 0 352 -92q46 -32 72.5 -72 t46.5 -109l-299 -145q-23 107 -60.5 144.5t-119.5 37.5q-69 0 -109.5 -28.5t-40.5 -77.5q0 -62 60 -94q33 -18 61 -26.5t143 -35.5q118 -28 186.5 -55.5t114.5 -65.5q48 -42 75.5 -105t27.5 -134q0 -156 -127 -310q92 -102 92 -245q0 -198 -151.5 -321.5t-395.5 -123.5 q-473 0 -553 406zM369 573q0 -91 120 -145q40 -17 78.5 -27t182.5 -41q2 -1 11 -2.5t21.5 -4.5t26.5 -7q29 42 29 84q0 62 -56 96.5t-235 81.5q-99 28 -107 31q-15 5 -45 14q-26 -44 -26 -80z" />
<glyph unicode="&#xa8;" horiz-adv-x="1024" d="M115 1255q0 71 50 117.5t126 46.5q78 0 127 -47t49 -119q0 -73 -49.5 -120.5t-126.5 -47.5q-78 0 -127 47.5t-49 122.5zM555 1255q0 72 49 118t127 46t127 -46t49 -120q0 -73 -49.5 -120.5t-126.5 -47.5q-79 0 -127.5 46.5t-48.5 123.5z" />
<glyph unicode="&#xa9;" horiz-adv-x="1562" d="M68 682q0 198 96 363.5t262.5 260.5t366.5 95q141 0 270.5 -57.5t223.5 -154t150 -229.5t56 -278t-56.5 -278t-152 -229t-227 -153t-275.5 -57q-193 0 -357.5 96.5t-260.5 262t-96 358.5zM211 682q0 -119 45.5 -227.5t122 -187.5t182.5 -126t221 -47q153 0 284 79 t207.5 214.5t76.5 294.5q0 119 -45 228t-120 188t-178.5 126.5t-215.5 47.5q-160 0 -293.5 -78t-210 -213.5t-76.5 -298.5zM403 688q0 103 27 172.5t90 124.5q57 50 126 72t167 22q152 0 223.5 -53t91.5 -182l-225 -80q-5 69 -29.5 99t-78.5 30q-62 0 -94.5 -54t-32.5 -157 q0 -91 33 -142t92 -51q46 0 72 30t38 99l227 -79q-29 -121 -109.5 -178.5t-221.5 -57.5q-396 0 -396 385z" />
<glyph unicode="&#xaa;" horiz-adv-x="747" d="M0 578v129h748v-129h-748zM20 1087q0 142 70.5 217.5t204.5 75.5q55 0 87.5 -13.5t57.5 -47.5v47h242v-547h-242v43q-32 -31 -71 -44t-97 -13q-120 0 -186 74t-66 208zM274 1096q0 -121 80 -121q86 0 86 119q0 116 -84 116q-39 0 -60.5 -29.5t-21.5 -84.5z" />
<glyph unicode="&#xab;" horiz-adv-x="993" d="M61 477l256 479h205l-143 -479l143 -477h-205zM457 477l256 479h205l-144 -479l146 -477h-205z" />
<glyph unicode="&#xac;" horiz-adv-x="1366" d="M119 389v174h1100v-631h-177v457h-923z" />
<glyph unicode="&#xad;" horiz-adv-x="557" d="M0 373v252h557v-252h-557z" />
<glyph unicode="&#xae;" horiz-adv-x="1562" d="M68 682q0 198 96 363.5t262.5 260.5t366.5 95q141 0 270.5 -57.5t223.5 -154t150 -229.5t56 -278t-56.5 -278t-152 -229t-227 -153t-275.5 -57q-193 0 -357.5 96.5t-260.5 262t-96 358.5zM211 682q0 -119 45.5 -227.5t122 -187.5t182.5 -126t221 -47q153 0 284 79 t207.5 214.5t76.5 294.5q0 119 -45 228t-120 188t-178.5 126.5t-215.5 47.5q-160 0 -293.5 -78t-210 -213.5t-76.5 -298.5zM473 313v740h326q92 0 133 -6.5t78 -26.5q112 -62 112 -197q0 -67 -30 -115t-95 -85l160 -310h-283l-108 262h-51v-262h-242zM715 725h35 q75 0 101 17.5t26 68.5q0 72 -76 78q-20 2 -68 2h-18v-166z" />
<glyph unicode="&#xaf;" horiz-adv-x="1024" d="M188 1167v160h650v-160h-650z" />
<glyph unicode="&#xb0;" horiz-adv-x="741" d="M55 1047q0 125 93.5 215t222.5 90q132 0 224.5 -90.5t92.5 -219.5t-92 -220t-223 -91q-133 0 -225.5 92t-92.5 224zM213 1044q0 -66 46.5 -111.5t113.5 -45.5q65 0 111 45.5t46 109.5q0 63 -46.5 108.5t-112.5 45.5q-64 0 -111 -45t-47 -107z" />
<glyph unicode="&#xb1;" horiz-adv-x="1296" d="M98 0v174h1102v-174h-1102zM98 715v170h461v461h180v-461h461v-170h-461v-459h-180v459h-461z" />
<glyph unicode="&#xb2;" horiz-adv-x="784" d="M39 547v192q208 152 307 236q48 40 67 67.5t19 57.5q0 29 -19.5 46t-52.5 17q-34 0 -52 -16.5t-27 -56.5q-5 -14 -11 -46l-225 107q34 128 106 179.5t218 51.5q157 0 239 -61t82 -178q0 -107 -65 -185q-35 -44 -78 -81.5t-150 -116.5h301v-213h-659z" />
<glyph unicode="&#xb3;" horiz-adv-x="784" d="M37 768l235 76q10 -65 31.5 -89t67.5 -24q43 0 67.5 19t24.5 51q0 57 -74 69q-32 4 -102 4v166h28q140 0 140 82q0 28 -21.5 45t-58.5 17q-45 0 -68.5 -25.5t-30.5 -83.5l-227 76q22 128 92.5 179.5t225.5 51.5q169 0 258.5 -58.5t89.5 -170.5q0 -120 -105 -186 q121 -36 121 -170q0 -63 -29.5 -119t-80.5 -90q-88 -58 -252 -58q-157 0 -237 57.5t-95 180.5z" />
<glyph unicode="&#xb4;" horiz-adv-x="1024" d="M330 1085l319 377l293 -100l-471 -303z" />
<glyph unicode="&#xb5;" horiz-adv-x="1056" d="M104 -397q21 438 21 592v755h281v-422q0 -151 26 -210.5t92 -59.5q35 0 69.5 17.5t49.5 43.5q14 25 18.5 63t4.5 138v430h292v-950h-284v72q-50 -46 -91 -64t-96 -18q-60 0 -133 33l17 -420h-267z" />
<glyph unicode="&#xb6;" horiz-adv-x="1073" d="M37 1022q0 87 38 165t103 124q78 55 258 55h611v-74l-189 -24v-1444h-125v1427l-131 -20v-1407h-125v784q-100 15 -158.5 35t-113.5 57q-81 57 -124.5 140t-43.5 182z" />
<glyph unicode="&#xb7;" horiz-adv-x="630" d="M96 535q0 97 63 162t158 65t157.5 -65.5t62.5 -164.5t-63 -165t-157 -66q-97 0 -159 65.5t-62 168.5z" />
<glyph unicode="&#xb8;" horiz-adv-x="1024" d="M324 -385q76 2 114 33q47 41 47 92q0 43 -59 110l203 123q43 -60 58 -96.5t15 -77.5q0 -113 -127 -186q-44 -26 -91.5 -38.5t-129.5 -20.5z" />
<glyph unicode="&#xb9;" horiz-adv-x="784" d="M86 1047v180q127 4 190 35.5t89 103.5h221v-819h-256v518z" />
<glyph unicode="&#xba;" horiz-adv-x="747" d="M0 578v129h748v-129h-748zM39 1092q0 151 82 219.5t262 68.5q166 0 238 -55q92 -67 92 -225q0 -156 -92 -232q-71 -63 -261 -63q-174 0 -247.5 65.5t-73.5 221.5zM293 1094q0 -121 84 -121q39 0 60.5 31t21.5 88q0 58 -21.5 89t-60.5 31q-40 0 -62 -30.5t-22 -87.5z" />
<glyph unicode="&#xbb;" horiz-adv-x="993" d="M76 956h205l256 -477l-254 -479h-205l141 479zM471 956h205l258 -477l-256 -479h-205l141 479z" />
<glyph unicode="&#xbc;" horiz-adv-x="1816" d="M86 1047v180q127 4 190 35.5t89 103.5h221v-819h-256v518zM367 -47l962 1485l144 -23l-961 -1483zM1079 162v186l342 471h267v-467h104v-190h-104v-162h-244v162h-365zM1278 352h166v250z" />
<glyph unicode="&#xbd;" horiz-adv-x="1816" d="M86 1047v180q127 4 190 35.5t89 103.5h221v-819h-256v518zM367 -47l962 1485l144 -23l-961 -1483zM1071 0v193q216 158 307 235q48 40 67 67.5t19 57.5q0 29 -19.5 46t-51.5 17q-34 0 -52.5 -16.5t-27.5 -56.5q-3 -7 -10 -45l-226 104q34 129 106 181.5t218 52.5 q157 0 239 -61.5t82 -178.5q0 -106 -65 -184q-36 -45 -79 -83t-148 -116h301v-213h-660z" />
<glyph unicode="&#xbe;" horiz-adv-x="1816" d="M37 768l235 76q10 -65 31.5 -89t67.5 -24q43 0 67.5 19t24.5 51q0 57 -74 69q-32 4 -102 4v166h28q140 0 140 82q0 28 -21.5 45t-58.5 17q-45 0 -68.5 -25.5t-30.5 -83.5l-227 76q22 128 92.5 179.5t225.5 51.5q169 0 258.5 -58.5t89.5 -170.5q0 -120 -105 -186 q121 -36 121 -170q0 -63 -29.5 -119t-80.5 -90q-88 -58 -252 -58q-157 0 -237 57.5t-95 180.5zM367 -47l962 1485l144 -23l-961 -1483zM1079 162v186l342 471h267v-467h104v-190h-104v-162h-244v162h-365zM1278 352h166v250z" />
<glyph unicode="&#xbf;" horiz-adv-x="1060" d="M68 68q0 181 106 284q31 30 55 45.5t105 57.5q80 48 80 153h374q3 -18 3 -28q0 -107 -45 -171.5t-171 -136.5q-68 -40 -94 -76.5t-26 -91.5q0 -51 28.5 -81.5t75.5 -30.5q46 0 76 29t37 83q4 16 4 93l344 -136q-13 -93 -41 -151t-82 -109q-64 -60 -148.5 -86t-209.5 -26 q-248 0 -361 104q-52 45 -81 118.5t-29 156.5zM389 905q0 86 59 143.5t150 57.5q92 0 150.5 -57t58.5 -146q0 -85 -60 -141.5t-149 -56.5q-91 0 -150 56t-59 144z" />
<glyph unicode="&#xc0;" horiz-adv-x="1361" d="M-41 0l492 1366h487l420 -1366h-438l-54 203h-442l-68 -203h-397zM252 1772l293 100l319 -377l-141 -27zM520 487h273l-121 426z" />
<glyph unicode="&#xc1;" horiz-adv-x="1361" d="M-41 0l492 1366h487l420 -1366h-438l-54 203h-442l-68 -203h-397zM512 1495l319 377l293 -100l-471 -304zM520 487h273l-121 426z" />
<glyph unicode="&#xc2;" horiz-adv-x="1361" d="M-41 0l492 1366h487l420 -1366h-438l-54 203h-442l-68 -203h-397zM270 1516l324 327h184l336 -327l-110 -37l-318 192l-303 -192zM520 487h273l-121 426z" />
<glyph unicode="&#xc3;" horiz-adv-x="1361" d="M-41 0l492 1366h487l420 -1366h-438l-54 203h-442l-68 -203h-397zM283 1548q23 64 43.5 98.5t52.5 65.5q76 76 166 76q33 0 72.5 -13t115.5 -49q90 -43 158 -43q46 0 93.5 28.5t76.5 72.5l55 -31q-114 -231 -295 -231q-32 0 -52 5t-62 25q-175 84 -232 84 q-43 0 -71 -23.5t-66 -92.5zM520 487h273l-121 426z" />
<glyph unicode="&#xc4;" horiz-adv-x="1361" d="M-41 0l492 1366h487l420 -1366h-438l-54 203h-442l-68 -203h-397zM276 1657q0 75 51.5 123.5t131.5 48.5t131 -49t51 -125t-51 -125t-131 -49q-82 0 -132.5 49t-50.5 127zM520 487h273l-121 426zM731 1657q0 77 50 124.5t132 47.5q80 0 131.5 -49t51.5 -125t-51.5 -125 t-131.5 -49q-83 0 -132.5 48t-49.5 128z" />
<glyph unicode="&#xc5;" horiz-adv-x="1361" d="M-41 0l492 1366h487l420 -1366h-438l-54 203h-442l-68 -203h-397zM412 1659q0 94 73 147.5t201 53.5q129 0 202 -54t73 -149t-72.5 -149t-200.5 -54q-132 0 -204 54t-72 151zM520 487h273l-121 426zM571 1659q0 -51 31.5 -82t83.5 -31t83.5 30.5t31.5 80.5q0 49 -32 79.5 t-83 30.5t-83 -30.5t-32 -77.5z" />
<glyph unicode="&#xc6;" horiz-adv-x="1818" d="M-96 0l704 1366h1051v-332h-459v-198h459v-310h-459v-198h539v-328h-922v221h-338l-94 -221h-481zM596 510h221v512z" />
<glyph unicode="&#xc7;" horiz-adv-x="1372" d="M72 678q0 192 48.5 319t160.5 230q101 92 224 133t300 41q281 0 414 -109q63 -52 95.5 -122.5t51.5 -192.5l-387 -141q-6 72 -18 111t-37 67q-56 59 -154 59q-54 0 -99.5 -23t-70.5 -61q-34 -53 -54 -139.5t-20 -183.5q0 -177 63.5 -276t176.5 -99q46 0 88 22t70 60 q35 50 55 157l389 -143q-28 -115 -71 -184.5t-121 -128.5q-146 -109 -394 -109q-359 0 -534.5 176t-175.5 537zM477 -391q45 2 69 8t44 23q47 41 47 92q0 26 -12.5 49.5t-46.5 60.5l204 123q42 -59 57 -95t15 -77q0 -113 -127 -186q-44 -26 -92 -39.5t-127 -20.5z" />
<glyph unicode="&#xc8;" d="M137 0v1366h944v-328h-520v-198h520v-308h-520v-204h602v-328h-1026zM193 1772l292 100l320 -377l-141 -27z" />
<glyph unicode="&#xc9;" d="M137 0v1366h944v-328h-520v-198h520v-308h-520v-204h602v-328h-1026zM426 1495l319 377l291 -100l-469 -304z" />
<glyph unicode="&#xca;" d="M137 0v1366h944v-328h-520v-198h520v-308h-520v-204h602v-328h-1026zM195 1516l323 327h184l336 -327l-112 -37l-316 192l-303 -192z" />
<glyph unicode="&#xcb;" d="M137 0v1366h944v-328h-520v-198h520v-308h-520v-204h602v-328h-1026zM207 1657q0 75 51.5 123.5t130.5 48.5q80 0 131 -49t51 -125t-51 -125t-131 -49q-81 0 -131.5 49t-50.5 127zM662 1657q0 77 50 124.5t132 47.5q80 0 131 -49t51 -125t-51 -125t-131 -49 q-83 0 -132.5 48t-49.5 128z" />
<glyph unicode="&#xcc;" horiz-adv-x="696" d="M-53 1772l291 100l280 -377l-141 -27zM137 0v1366h424v-1366h-424z" />
<glyph unicode="&#xcd;" horiz-adv-x="696" d="M137 0v1366h424v-1366h-424zM180 1495l279 377l291 -100l-428 -304z" />
<glyph unicode="&#xce;" horiz-adv-x="696" d="M-39 1516l289 327h184l303 -327l-112 -37l-283 192l-268 -192zM137 0v1366h424v-1366h-424z" />
<glyph unicode="&#xcf;" horiz-adv-x="696" d="M-14 1618q0 69 46 112.5t118 43.5t117.5 -43.5t45.5 -112.5t-45.5 -113.5t-117.5 -44.5t-118 44t-46 114zM137 0v1366h424v-1366h-424zM385 1618q0 68 46 112t118 44q71 0 116.5 -43.5t45.5 -112.5t-45.5 -113.5t-116.5 -44.5q-72 0 -118 44.5t-46 113.5z" />
<glyph unicode="&#xd0;" horiz-adv-x="1492" d="M0 655v129h137v582h641q111 0 218 -29.5t186 -83.5q127 -83 184 -214t57 -337q0 -414 -258 -593q-72 -51 -182 -80t-231 -29h-615v655h-137zM561 328h96q81 0 128 14t87 49q49 42 78 128t29 186q0 108 -33.5 186.5t-93.5 112.5q-64 34 -203 34h-88v-254h232v-129h-232 v-327z" />
<glyph unicode="&#xd1;" horiz-adv-x="1632" d="M137 0v1366h404l532 -711v711h424v-1366h-424l-512 678v-678h-424zM414 1548q23 64 43.5 98.5t52.5 65.5q76 76 166 76q33 0 72.5 -13t115.5 -49q90 -43 158 -43q44 0 92.5 28.5t77.5 72.5l55 -31q-114 -231 -295 -231q-32 0 -52 5t-62 25q-175 84 -232 84 q-43 0 -71 -23.5t-66 -92.5z" />
<glyph unicode="&#xd2;" horiz-adv-x="1595" d="M72 696q0 388 247 566q194 139 480 139q288 0 479 -139q129 -94 188.5 -233t59.5 -345q0 -207 -59.5 -346t-188.5 -234q-185 -139 -477 -139q-294 0 -482 139q-132 96 -189.5 235.5t-57.5 356.5zM371 1772l291 100l319 -377l-141 -27zM528 686q0 -145 56 -260 q31 -64 87 -98.5t128 -34.5t128 35t87 98q55 117 55 258q0 63 -15 134t-40 122q-32 64 -87.5 98.5t-127.5 34.5t-127.5 -34.5t-87.5 -98.5q-25 -51 -40.5 -122t-15.5 -132z" />
<glyph unicode="&#xd3;" horiz-adv-x="1595" d="M72 696q0 388 247 566q194 139 480 139q288 0 479 -139q129 -94 188.5 -233t59.5 -345q0 -207 -59.5 -346t-188.5 -234q-185 -139 -477 -139q-294 0 -482 139q-132 96 -189.5 235.5t-57.5 356.5zM528 686q0 -145 56 -260q31 -64 87 -98.5t128 -34.5t128 35t87 98 q55 117 55 258q0 63 -15 134t-40 122q-32 64 -87.5 98.5t-127.5 34.5t-127.5 -34.5t-87.5 -98.5q-25 -51 -40.5 -122t-15.5 -132zM616 1495l320 377l291 -100l-469 -304z" />
<glyph unicode="&#xd4;" horiz-adv-x="1595" d="M72 696q0 388 247 566q194 139 480 139q288 0 479 -139q129 -94 188.5 -233t59.5 -345q0 -207 -59.5 -346t-188.5 -234q-185 -139 -477 -139q-294 0 -482 139q-132 96 -189.5 235.5t-57.5 356.5zM377 1516l323 327h185l336 -327l-113 -37l-315 192l-304 -192zM528 686 q0 -145 56 -260q31 -64 87 -98.5t128 -34.5t128 35t87 98q55 117 55 258q0 63 -15 134t-40 122q-32 64 -87.5 98.5t-127.5 34.5t-127.5 -34.5t-87.5 -98.5q-25 -51 -40.5 -122t-15.5 -132z" />
<glyph unicode="&#xd5;" horiz-adv-x="1595" d="M72 696q0 388 247 566q194 139 480 139q288 0 479 -139q129 -94 188.5 -233t59.5 -345q0 -207 -59.5 -346t-188.5 -234q-185 -139 -477 -139q-294 0 -482 139q-132 96 -189.5 235.5t-57.5 356.5zM395 1548q23 64 43.5 98.5t53.5 65.5q76 76 165 76q33 0 73 -13t116 -49 q90 -43 158 -43q46 0 93.5 28.5t76.5 72.5l55 -31q-114 -231 -295 -231q-32 0 -53 5t-62 25q-175 84 -231 84q-43 0 -71 -23.5t-66 -92.5zM528 686q0 -145 56 -260q31 -64 87 -98.5t128 -34.5t128 35t87 98q55 117 55 258q0 63 -15 134t-40 122q-32 64 -87.5 98.5 t-127.5 34.5t-127.5 -34.5t-87.5 -98.5q-25 -51 -40.5 -122t-15.5 -132z" />
<glyph unicode="&#xd6;" horiz-adv-x="1595" d="M72 696q0 388 247 566q194 139 480 139q288 0 479 -139q129 -94 188.5 -233t59.5 -345q0 -207 -59.5 -346t-188.5 -234q-185 -139 -477 -139q-294 0 -482 139q-132 96 -189.5 235.5t-57.5 356.5zM389 1657q0 75 51.5 123.5t130.5 48.5q80 0 131.5 -49t51.5 -125 t-51.5 -125t-131.5 -49q-81 0 -131.5 49t-50.5 127zM528 686q0 -145 56 -260q31 -64 87 -98.5t128 -34.5t128 35t87 98q55 117 55 258q0 63 -15 134t-40 122q-32 64 -87.5 98.5t-127.5 34.5t-127.5 -34.5t-87.5 -98.5q-25 -51 -40.5 -122t-15.5 -132zM844 1657 q0 77 50 124.5t132 47.5q80 0 131 -49t51 -125t-51 -125t-131 -49q-83 0 -132.5 48t-49.5 128z" />
<glyph unicode="&#xd7;" horiz-adv-x="1257" d="M68 33l464 444l-464 451l94 100l469 -455l461 447l96 -98l-459 -445l465 -452l-98 -97l-465 453l-465 -447z" />
<glyph unicode="&#xd8;" horiz-adv-x="1595" d="M72 680q0 210 58.5 347.5t188.5 232.5q189 141 490 141q126 0 205 -20t217 -85l131 142l98 -80l-125 -137q99 -103 145 -223.5t46 -276.5q0 -224 -59.5 -373t-186.5 -244q-186 -139 -485 -139q-128 0 -226.5 25t-218.5 88l-123 -148l-102 76l127 152q-86 101 -119 176 q-61 135 -61 346zM530 690q0 -73 27 -192l408 508q-44 37 -82.5 52t-87.5 15q-120 0 -192.5 -105t-72.5 -278zM616 373q45 -42 87.5 -60t97.5 -18q128 0 197 103.5t69 293.5q0 56 -6.5 95.5t-26.5 103.5z" />
<glyph unicode="&#xd9;" horiz-adv-x="1490" d="M123 569v797h424v-791q0 -151 31 -204q44 -78 167 -78q135 0 177 94q22 58 22 188v791h424v-797q0 -151 -24 -243t-84 -168q-78 -101 -200.5 -147t-314.5 -46q-211 0 -340 55.5t-202 178.5q-44 72 -62 154t-18 216zM324 1772l290 100l322 -377l-141 -27z" />
<glyph unicode="&#xda;" horiz-adv-x="1490" d="M123 569v797h424v-791q0 -151 31 -204q44 -78 167 -78q135 0 177 94q22 58 22 188v791h424v-797q0 -151 -24 -243t-84 -168q-78 -101 -200.5 -147t-314.5 -46q-211 0 -340 55.5t-202 178.5q-44 72 -62 154t-18 216zM555 1495l322 377l290 -100l-471 -304z" />
<glyph unicode="&#xdb;" horiz-adv-x="1490" d="M123 569v797h424v-791q0 -151 31 -204q44 -78 167 -78q135 0 177 94q22 58 22 188v791h424v-797q0 -151 -24 -243t-84 -168q-78 -101 -200.5 -147t-314.5 -46q-211 0 -340 55.5t-202 178.5q-44 72 -62 154t-18 216zM324 1516l323 327h184l336 -327l-112 -37l-316 192 l-303 -192z" />
<glyph unicode="&#xdc;" horiz-adv-x="1490" d="M123 569v797h424v-791q0 -151 31 -204q44 -78 167 -78q135 0 177 94q22 58 22 188v791h424v-797q0 -151 -24 -243t-84 -168q-78 -101 -200.5 -147t-314.5 -46q-211 0 -340 55.5t-202 178.5q-44 72 -62 154t-18 216zM336 1657q0 75 51.5 123.5t130.5 48.5q80 0 131 -49 t51 -125t-51 -125t-131 -49q-81 0 -131.5 49t-50.5 127zM791 1657q0 77 50 124.5t132 47.5q80 0 131 -49t51 -125t-51 -125t-131 -49q-83 0 -132.5 48t-49.5 128z" />
<glyph unicode="&#xdd;" horiz-adv-x="1267" d="M-82 1366h469l279 -465l245 465h432l-497 -819v-547h-424v528zM465 1495l319 377l293 -100l-471 -304z" />
<glyph unicode="&#xde;" horiz-adv-x="1310" d="M137 0v1366h420v-154h55q13 -1 35 -1.5t61 -1t70 -1.5q123 -1 174.5 -10.5t118.5 -42.5q213 -107 213 -375q0 -109 -29.5 -187.5t-93.5 -141.5q-72 -72 -160 -108t-210 -44q-108 -6 -166 -6h-68v-293h-420zM557 631h27q104 0 126.5 1.5t47.5 8.5q86 27 86 119 q0 100 -113 121q-25 4 -147 4h-27v-254z" />
<glyph unicode="&#xdf;" horiz-adv-x="1300" d="M-16 653v303h131v29q0 217 141.5 340t390.5 123q214 0 339.5 -91.5t125.5 -248.5q0 -75 -45 -205q-23 -70 -23 -100q0 -44 17.5 -74.5t103.5 -132.5q54 -63 77.5 -118.5t23.5 -119.5q0 -79 -34.5 -157.5t-90.5 -128.5q-113 -99 -310 -99q-91 0 -215 27l43 317 q35 -12 66 -12q35 0 60.5 23t25.5 57q0 26 -15 52t-75 104q-72 99 -72 170q0 39 13.5 73.5t50.5 92.5q65 101 65 165q0 50 -33.5 81.5t-85.5 31.5q-41 0 -74 -23t-48 -61q-21 -55 -21 -158v-913h-401v653h-131z" />
<glyph unicode="&#xe0;" horiz-adv-x="1296" d="M68 469q0 281 147 410q119 104 315 104q104 0 162 -29.5t105 -107.5v110h395v-956h-395v94q-37 -42 -62 -60t-61 -30q-76 -31 -180 -31q-202 0 -314 130.5t-112 365.5zM238 1364l299 100l315 -374l-139 -27zM487 481q0 -112 38 -170.5t112 -58.5q160 0 160 225 q0 109 -40.5 167t-115.5 58q-72 0 -113 -58.5t-41 -162.5z" />
<glyph unicode="&#xe1;" horiz-adv-x="1296" d="M68 469q0 281 147 410q119 104 315 104q104 0 162 -29.5t105 -107.5v110h395v-956h-395v94q-37 -42 -62 -60t-61 -30q-76 -31 -180 -31q-202 0 -314 130.5t-112 365.5zM485 1085l320 377l291 -100l-469 -303zM487 481q0 -112 38 -170.5t112 -58.5q160 0 160 225 q0 109 -40.5 167t-115.5 58q-72 0 -113 -58.5t-41 -162.5z" />
<glyph unicode="&#xe2;" horiz-adv-x="1296" d="M68 469q0 281 147 410q119 104 315 104q104 0 162 -29.5t105 -107.5v110h395v-956h-395v94q-37 -42 -62 -60t-61 -30q-76 -31 -180 -31q-202 0 -314 130.5t-112 365.5zM270 1106l301 328h185l317 -328l-112 -37l-297 193l-283 -193zM487 481q0 -112 38 -170.5t112 -58.5 q160 0 160 225q0 109 -40.5 167t-115.5 58q-72 0 -113 -58.5t-41 -162.5z" />
<glyph unicode="&#xe3;" horiz-adv-x="1296" d="M68 469q0 281 147 410q119 104 315 104q104 0 162 -29.5t105 -107.5v110h395v-956h-395v94q-37 -42 -62 -60t-61 -30q-76 -31 -180 -31q-202 0 -314 130.5t-112 365.5zM270 1141q41 113 109 175t151 62q65 0 175 -63q75 -45 139 -45q45 0 91 27.5t81 76.5l55 -28 q-55 -115 -126.5 -174.5t-151.5 -59.5q-43 0 -75 11t-97 48q-107 60 -158 60q-41 0 -69 -24.5t-66 -94.5zM487 481q0 -112 38 -170.5t112 -58.5q160 0 160 225q0 109 -40.5 167t-115.5 58q-72 0 -113 -58.5t-41 -162.5z" />
<glyph unicode="&#xe4;" horiz-adv-x="1296" d="M68 469q0 281 147 410q119 104 315 104q104 0 162 -29.5t105 -107.5v110h395v-956h-395v94q-37 -42 -62 -60t-61 -30q-76 -31 -180 -31q-202 0 -314 130.5t-112 365.5zM274 1255q0 71 50.5 117.5t126.5 46.5q78 0 127 -47t49 -119q0 -73 -49.5 -120.5t-126.5 -47.5 q-78 0 -127.5 47.5t-49.5 122.5zM487 481q0 -112 38 -170.5t112 -58.5q160 0 160 225q0 109 -40.5 167t-115.5 58q-72 0 -113 -58.5t-41 -162.5zM715 1255q0 72 49 118t127 46t127 -46t49 -120q0 -73 -49.5 -120.5t-126.5 -47.5q-79 0 -127.5 46.5t-48.5 123.5z" />
<glyph unicode="&#xe5;" horiz-adv-x="1296" d="M68 469q0 281 147 410q119 104 315 104q104 0 162 -29.5t105 -107.5v110h395v-956h-395v94q-37 -42 -62 -60t-61 -30q-76 -31 -180 -31q-202 0 -314 130.5t-112 365.5zM401 1257q0 92 71 144.5t196 52.5t195.5 -52.5t70.5 -146.5q0 -93 -70.5 -145.5t-193.5 -52.5 q-128 0 -198.5 52.5t-70.5 147.5zM487 481q0 -112 38 -170.5t112 -58.5q160 0 160 225q0 109 -40.5 167t-115.5 58q-72 0 -113 -58.5t-41 -162.5zM553 1257q0 -51 31.5 -81.5t83.5 -30.5t83 30t31 80t-31.5 80.5t-82.5 30.5t-83 -30.5t-32 -78.5z" />
<glyph unicode="&#xe6;" horiz-adv-x="1755" d="M47 266q0 66 20 110t76 81.5t144 66.5t235 62q73 17 104 38.5t31 55.5q0 31 -24 49.5t-64 18.5q-58 0 -93 -37t-52 -115l-320 94q25 86 59.5 135t94.5 84q127 74 326 74q174 0 295 -59q64 34 128.5 47.5t155.5 13.5q197 0 312 -59q93 -47 153 -167t60 -259q0 -17 -7 -82 h-649v-25q0 -90 19 -129q19 -37 45 -53t69 -16q55 0 85 26.5t53 95.5l342 -88q-33 -81 -74 -124t-111 -74q-128 -58 -315 -58q-150 0 -243.5 39t-168.5 133q-46 -53 -80.5 -79t-87.5 -50q-106 -45 -213 -45q-138 0 -221.5 81t-83.5 214zM449 313q0 -37 24 -59.5t62 -22.5 q62 0 97.5 48t35.5 131v34q-130 -31 -174.5 -57.5t-44.5 -73.5zM1038 598h267q-3 86 -34 126t-95 40q-63 0 -97 -40t-41 -126z" />
<glyph unicode="&#xe7;" horiz-adv-x="1126" d="M68 473q0 127 41.5 230t119.5 171q66 57 158.5 83t230.5 26q229 0 345.5 -73.5t154.5 -243.5l-364 -105q0 189 -115 189q-74 0 -113 -78t-39 -226q0 -235 131 -235q57 0 88 47.5t42 147.5l376 -97q-26 -99 -64 -155.5t-104 -96.5q-144 -84 -374 -84q-227 0 -344 88 q-80 62 -125 171t-45 241zM326 -385q76 2 114 33q47 41 47 92q0 44 -61 110l205 123q43 -58 58.5 -95.5t15.5 -78.5q0 -113 -127 -186q-44 -26 -92 -38.5t-130 -20.5z" />
<glyph unicode="&#xe8;" horiz-adv-x="1185" d="M68 471q0 512 538 512q240 0 359 -98q71 -60 112 -165t41 -226q0 -12 -4 -82h-649v-25q0 -98 32 -145t99 -47q53 0 83.5 27.5t47.5 90.5l348 -69q-51 -138 -171 -204.5t-318 -66.5q-518 0 -518 498zM170 1364l297 100l315 -374l-137 -27zM471 600h266q-3 84 -34.5 123 t-96.5 39q-62 0 -95 -39.5t-40 -122.5z" />
<glyph unicode="&#xe9;" horiz-adv-x="1185" d="M68 471q0 512 538 512q240 0 359 -98q71 -60 112 -165t41 -226q0 -12 -4 -82h-649v-25q0 -98 32 -145t99 -47q53 0 83.5 27.5t47.5 90.5l348 -69q-51 -138 -171 -204.5t-318 -66.5q-518 0 -518 498zM422 1085l321 377l291 -100l-471 -303zM471 600h266q-3 84 -34.5 123 t-96.5 39q-62 0 -95 -39.5t-40 -122.5z" />
<glyph unicode="&#xea;" horiz-adv-x="1185" d="M68 471q0 512 538 512q240 0 359 -98q71 -60 112 -165t41 -226q0 -12 -4 -82h-649v-25q0 -98 32 -145t99 -47q53 0 83.5 27.5t47.5 90.5l348 -69q-51 -138 -171 -204.5t-318 -66.5q-518 0 -518 498zM205 1106l303 328h184l316 -328l-113 -37l-295 193l-283 -193zM471 600 h266q-3 84 -34.5 123t-96.5 39q-62 0 -95 -39.5t-40 -122.5z" />
<glyph unicode="&#xeb;" horiz-adv-x="1185" d="M68 471q0 512 538 512q240 0 359 -98q71 -60 112 -165t41 -226q0 -12 -4 -82h-649v-25q0 -98 32 -145t99 -47q53 0 83.5 27.5t47.5 90.5l348 -69q-51 -138 -171 -204.5t-318 -66.5q-518 0 -518 498zM203 1255q0 71 50 117.5t126 46.5q78 0 127 -47t49 -119 q0 -73 -49.5 -120.5t-126.5 -47.5q-78 0 -127 47.5t-49 122.5zM471 600h266q-3 84 -34.5 123t-96.5 39q-62 0 -95 -39.5t-40 -122.5zM643 1255q0 72 49 118t127 46t127 -46t49 -120q0 -73 -49.5 -120.5t-126.5 -47.5q-79 0 -127.5 46.5t-48.5 123.5z" />
<glyph unicode="&#xec;" horiz-adv-x="600" d="M-96 1364l291 100l274 -374l-137 -27zM102 0v956h396v-956h-396z" />
<glyph unicode="&#xed;" horiz-adv-x="600" d="M102 0v956h396v-956h-396zM131 1085l275 377l290 -100l-430 -303z" />
<glyph unicode="&#xee;" horiz-adv-x="600" d="M-82 1090l285 344h184l295 -328l-113 -37l-270 193l-266 -205zM102 0v956h396v-956h-396z" />
<glyph unicode="&#xef;" horiz-adv-x="600" d="M-70 1251q0 68 46 111t118 43t118 -43.5t46 -112.5q0 -68 -46 -111.5t-118 -43.5t-118 43.5t-46 113.5zM102 0v956h396v-956h-396zM342 1251q0 68 46 111t118 43t118 -43.5t46 -112.5q0 -68 -46 -111.5t-118 -43.5t-118 43.5t-46 113.5z" />
<glyph unicode="&#xf0;" horiz-adv-x="1218" d="M-123 1309l299 118l313 -172l336 82l45 -100l-241 -61l94 -58q230 -141 340 -297q90 -131 90 -325q0 -141 -45.5 -253t-128.5 -175q-132 -95 -389 -95q-256 0 -390 123.5t-134 358.5q0 237 141 366q39 35 77.5 53.5t114.5 38.5l-204 152l-258 -64l-35 103l186 47z M469 467q0 -103 38.5 -161t106.5 -58q74 0 116 61.5t42 171.5q0 104 -40 165t-109 61q-72 0 -113 -63t-41 -177z" />
<glyph unicode="&#xf1;" horiz-adv-x="1275" d="M102 0v956h396v-127q82 87 153.5 120.5t173.5 33.5q94 0 170 -32t119 -89q32 -41 46 -99.5t14 -152.5v-610h-396v449q0 77 -4 106t-18 51q-29 51 -105 51q-88 0 -120.5 -49.5t-32.5 -183.5v-424h-396zM244 1141q41 113 109 175t151 62q37 0 74.5 -14t99.5 -49 q75 -45 139 -45q45 0 91 27.5t81 76.5l55 -28q-55 -115 -126.5 -174.5t-151.5 -59.5q-43 0 -75 11t-97 48q-107 60 -158 60q-41 0 -69 -24.5t-66 -94.5z" />
<glyph unicode="&#xf2;" horiz-adv-x="1282" d="M68 475q0 275 151 395q75 60 176 86.5t256 26.5q151 0 247.5 -22.5t162.5 -73.5q73 -57 113 -161.5t40 -238.5q0 -130 -40 -234.5t-115 -170.5q-129 -111 -445 -111q-141 0 -230.5 19.5t-154.5 64.5q-161 115 -161 420zM205 1364l297 100l315 -374l-137 -27zM487 481 q0 -112 40 -171.5t114 -59.5q73 0 113.5 59.5t40.5 167.5q0 109 -40.5 169.5t-113.5 60.5q-72 0 -113 -60t-41 -166z" />
<glyph unicode="&#xf3;" horiz-adv-x="1282" d="M68 475q0 275 151 395q75 60 176 86.5t256 26.5q151 0 247.5 -22.5t162.5 -73.5q73 -57 113 -161.5t40 -238.5q0 -130 -40 -234.5t-115 -170.5q-129 -111 -445 -111q-141 0 -230.5 19.5t-154.5 64.5q-161 115 -161 420zM457 1085l321 377l291 -100l-471 -303zM487 481 q0 -112 40 -171.5t114 -59.5q73 0 113.5 59.5t40.5 167.5q0 109 -40.5 169.5t-113.5 60.5q-72 0 -113 -60t-41 -166z" />
<glyph unicode="&#xf4;" horiz-adv-x="1282" d="M68 475q0 275 151 395q75 60 176 86.5t256 26.5q151 0 247.5 -22.5t162.5 -73.5q73 -57 113 -161.5t40 -238.5q0 -130 -40 -234.5t-115 -170.5q-129 -111 -445 -111q-141 0 -230.5 19.5t-154.5 64.5q-161 115 -161 420zM240 1106l301 328h184l317 -328l-112 -37l-297 193 l-283 -193zM487 481q0 -112 40 -171.5t114 -59.5q73 0 113.5 59.5t40.5 167.5q0 109 -40.5 169.5t-113.5 60.5q-72 0 -113 -60t-41 -166z" />
<glyph unicode="&#xf5;" horiz-adv-x="1282" d="M68 475q0 275 151 395q75 60 176 86.5t256 26.5q151 0 247.5 -22.5t162.5 -73.5q73 -57 113 -161.5t40 -238.5q0 -130 -40 -234.5t-115 -170.5q-129 -111 -445 -111q-141 0 -230.5 19.5t-154.5 64.5q-161 115 -161 420zM252 1141q40 113 107.5 175t150.5 62q38 0 76 -14 t98 -49q75 -45 139 -45q45 0 91 27.5t81 76.5l56 -28q-112 -234 -279 -234q-43 0 -75 11t-97 48q-102 60 -158 60q-41 0 -69 -24.5t-66 -94.5zM487 481q0 -112 40 -171.5t114 -59.5q73 0 113.5 59.5t40.5 167.5q0 109 -40.5 169.5t-113.5 60.5q-72 0 -113 -60t-41 -166z" />
<glyph unicode="&#xf6;" horiz-adv-x="1282" d="M68 475q0 275 151 395q75 60 176 86.5t256 26.5q151 0 247.5 -22.5t162.5 -73.5q73 -57 113 -161.5t40 -238.5q0 -130 -40 -234.5t-115 -170.5q-129 -111 -445 -111q-141 0 -230.5 19.5t-154.5 64.5q-161 115 -161 420zM244 1255q0 71 50 117.5t126 46.5q78 0 127 -47 t49 -119q0 -73 -49.5 -120.5t-126.5 -47.5q-78 0 -127 47.5t-49 122.5zM487 481q0 -112 40 -171.5t114 -59.5q73 0 113.5 59.5t40.5 167.5q0 109 -40.5 169.5t-113.5 60.5q-72 0 -113 -60t-41 -166zM686 1255q0 72 49 118t125 46q78 0 127 -46t49 -120t-49 -121t-125 -47 q-79 0 -127.5 46.5t-48.5 123.5z" />
<glyph unicode="&#xf7;" d="M72 391v174h1099v-174h-1099zM403 88q0 91 64 154t156 63q89 0 152 -64t63 -153t-64 -153t-153 -64q-91 0 -154.5 63t-63.5 154zM403 868q0 91 64 154t156 63q89 0 152 -64t63 -153t-64 -153t-153 -64q-91 0 -154.5 63t-63.5 154z" />
<glyph unicode="&#xf8;" horiz-adv-x="1220" d="M68 465q0 161 57 278t164 175q126 69 350 69q126 0 203 -13t151 -48l111 114l61 -53l-100 -102q61 -58 90 -113q59 -118 59 -289q0 -294 -180 -415q-134 -97 -416 -97q-121 0 -196 11.5t-148 42.5l-108 -115l-57 53l98 107q-36 36 -52.5 58t-31.5 54q-55 119 -55 283z M469 446q0 -37 12 -86l267 314q-31 25 -53 34t-54 9q-172 0 -172 -271zM524 297q39 -59 117 -59q80 0 124 64t44 179q0 57 -18 125z" />
<glyph unicode="&#xf9;" horiz-adv-x="1273" d="M102 352v68v536h396v-415q0 -105 14 -152q12 -42 45.5 -66t79.5 -24q38 0 70 18.5t51 49.5q12 25 15 53.5t3 116.5v419h395v-956h-395v127q-85 -88 -152 -121t-161 -33q-72 0 -141 22t-115 60q-105 89 -105 297zM195 1364l297 100l315 -374l-137 -27z" />
<glyph unicode="&#xfa;" horiz-adv-x="1273" d="M102 352v68v536h396v-415q0 -105 14 -152q12 -42 45.5 -66t79.5 -24q38 0 70 18.5t51 49.5q12 25 15 53.5t3 116.5v419h395v-956h-395v127q-85 -88 -152 -121t-161 -33q-72 0 -141 22t-115 60q-105 89 -105 297zM455 1085l319 377l293 -100l-471 -303z" />
<glyph unicode="&#xfb;" horiz-adv-x="1273" d="M102 352v68v536h396v-415q0 -105 14 -152q12 -42 45.5 -66t79.5 -24q38 0 70 18.5t51 49.5q12 25 15 53.5t3 116.5v419h395v-956h-395v127q-85 -88 -152 -121t-161 -33q-72 0 -141 22t-115 60q-105 89 -105 297zM236 1106l303 328h184l315 -328l-110 -37l-297 193 l-283 -193z" />
<glyph unicode="&#xfc;" horiz-adv-x="1273" d="M102 352v68v536h396v-415q0 -105 14 -152q12 -42 45.5 -66t79.5 -24q38 0 70 18.5t51 49.5q12 25 15 53.5t3 116.5v419h395v-956h-395v127q-85 -88 -152 -121t-161 -33q-72 0 -141 22t-115 60q-105 89 -105 297zM242 1255q0 71 50 117.5t126 46.5q78 0 127 -47t49 -119 q0 -73 -49.5 -120.5t-126.5 -47.5q-78 0 -127 47.5t-49 122.5zM682 1255q0 72 49 118t127 46t127 -46t49 -120q0 -73 -49.5 -120.5t-126.5 -47.5q-79 0 -127.5 46.5t-48.5 123.5z" />
<glyph unicode="&#xfd;" horiz-adv-x="1056" d="M-47 -119q37 -2 74 -2q74 0 110 1.5t68 5t46.5 14.5t25 24t24.5 41l16 33l-335 958h440l131 -512l172 512h379l-373 -886q-41 -95 -69.5 -156t-61.5 -119t-56.5 -90.5t-58 -62t-64 -42t-76 -22t-92 -11.5t-114.5 -1l-100 -2zM373 1085l319 377l291 -100l-469 -303z" />
<glyph unicode="&#xfe;" horiz-adv-x="1300" d="M102 -436v1870h396v-580q65 72 129 100.5t164 28.5q210 0 326 -130.5t116 -365.5q0 -238 -121.5 -376t-331.5 -138q-85 0 -144.5 23.5t-137.5 87.5v-520h-396zM498 477q0 -106 42 -165.5t117 -59.5q73 0 114.5 59.5t41.5 163.5q0 110 -40 168.5t-114 58.5 q-75 0 -118 -60.5t-43 -164.5z" />
<glyph unicode="&#xff;" horiz-adv-x="1056" d="M-47 -119q37 -2 74 -2q74 0 110 1.5t68 5t46.5 14.5t25 24t24.5 41l16 33l-335 958h440l131 -512l172 512h379l-373 -886q-41 -95 -69.5 -156t-61.5 -119t-56.5 -90.5t-58 -62t-64 -42t-76 -22t-92 -11.5t-114.5 -1l-100 -2zM154 1255q0 71 50 117.5t126 46.5t125 -47 t49 -119q0 -74 -49 -121t-125 -47q-78 0 -127 47.5t-49 122.5zM594 1255q0 72 49 118t127 46t127 -46t49 -120q0 -73 -49.5 -120.5t-126.5 -47.5q-79 0 -127.5 46.5t-48.5 123.5z" />
<glyph unicode="&#x152;" horiz-adv-x="1945" d="M72 672q0 173 41.5 297t132.5 219q182 194 497 194q85 0 230 -16h815v-328h-455v-202h459v-308h-459v-200h535v-328h-944q-119 -25 -226 -25q-135 0 -254 47.5t-202 135.5q-170 182 -170 514zM535 653q0 -179 60.5 -265.5t186.5 -86.5q71 0 142 35v694q-62 23 -123 23 q-142 0 -204 -93t-62 -307z" />
<glyph unicode="&#x153;" horiz-adv-x="1806" d="M68 473q0 251 117.5 380.5t346.5 129.5q119 0 192.5 -25.5t145.5 -91.5q88 66 168.5 91.5t200.5 25.5q229 0 348 -98q72 -60 113 -160.5t41 -218.5q0 -32 -6 -90h-643q0 -107 16 -148q31 -75 113 -75q51 0 83 29.5t54 96.5l342 -92q-26 -69 -59 -108.5t-93 -71.5 q-131 -74 -352 -74q-119 0 -201 27t-157 90q-67 -61 -144 -89t-180 -28q-218 0 -332 128.5t-114 371.5zM467 477q0 -110 37 -169.5t106 -59.5q64 0 99.5 60.5t35.5 170.5q0 100 -36.5 156.5t-100.5 56.5q-66 0 -103.5 -57.5t-37.5 -157.5zM1096 598h266q-3 85 -34 124.5 t-97 39.5q-120 0 -135 -164z" />
<glyph unicode="&#x178;" horiz-adv-x="1267" d="M-82 1366h469l279 -465l245 465h432l-497 -819v-547h-424v528zM233 1657q0 75 52 123.5t133 48.5q80 0 131 -49t51 -125t-51 -125t-131 -49q-83 0 -134 49t-51 127zM688 1657q0 77 50 124.5t132 47.5t133.5 -48.5t51.5 -125.5q0 -76 -51.5 -125t-131.5 -49q-84 0 -134 48 t-50 128z" />
<glyph unicode="&#x2c6;" horiz-adv-x="1024" d="M111 1106l303 328h184l315 -328l-112 -37l-295 193l-283 -193z" />
<glyph unicode="&#x2dc;" horiz-adv-x="1024" d="M113 1141q40 112 108 174.5t150 62.5q38 0 76 -13.5t100 -49.5q72 -45 137 -45q46 0 91.5 27.5t80.5 76.5l57 -28q-115 -234 -280 -234q-43 0 -75 11t-95 48q-107 60 -158 60q-43 0 -71 -24.5t-66 -94.5z" />
<glyph unicode="&#x2000;" horiz-adv-x="936" />
<glyph unicode="&#x2001;" horiz-adv-x="1872" />
<glyph unicode="&#x2002;" horiz-adv-x="936" />
<glyph unicode="&#x2003;" horiz-adv-x="1872" />
<glyph unicode="&#x2004;" horiz-adv-x="624" />
<glyph unicode="&#x2005;" horiz-adv-x="468" />
<glyph unicode="&#x2006;" horiz-adv-x="312" />
<glyph unicode="&#x2007;" horiz-adv-x="312" />
<glyph unicode="&#x2008;" horiz-adv-x="234" />
<glyph unicode="&#x2009;" horiz-adv-x="374" />
<glyph unicode="&#x200a;" horiz-adv-x="104" />
<glyph unicode="&#x2010;" horiz-adv-x="557" d="M0 373v252h557v-252h-557z" />
<glyph unicode="&#x2011;" horiz-adv-x="557" d="M0 373v252h557v-252h-557z" />
<glyph unicode="&#x2012;" horiz-adv-x="557" d="M0 373v252h557v-252h-557z" />
<glyph unicode="&#x2013;" d="M86 424v149h1071v-149h-1071z" />
<glyph unicode="&#x2014;" horiz-adv-x="1665" d="M0 424v149h1665v-149h-1665z" />
<glyph unicode="&#x2018;" horiz-adv-x="651" d="M129 731v285l221 389l213 29l-67 -240q-45 -157 -45 -270v-193h-322z" />
<glyph unicode="&#x2019;" horiz-adv-x="665" d="M88 731l68 240q45 164 45 270v193h321v-287l-221 -387z" />
<glyph unicode="&#x201a;" horiz-adv-x="460" d="M14 -268l60 217q41 141 41 241v175h288v-259l-198 -348z" />
<glyph unicode="&#x201c;" horiz-adv-x="1087" d="M129 731v285l221 389l213 29l-67 -240q-45 -157 -45 -270v-193h-322zM565 731v285l221 389l213 29l-67 -240q-45 -154 -45 -270v-193h-322z" />
<glyph unicode="&#x201d;" horiz-adv-x="1087" d="M88 731l68 240q45 164 45 270v193h321v-287l-221 -387zM524 731l68 240q45 164 45 270v193h321v-287l-221 -387z" />
<glyph unicode="&#x201e;" horiz-adv-x="1087" d="M88 -299l68 240q45 164 45 270v192h321v-286l-221 -387zM524 -299l68 240q45 164 45 270v192h321v-286l-221 -387z" />
<glyph unicode="&#x2022;" horiz-adv-x="1366" d="M401 694q0 120 83.5 202.5t203.5 82.5q115 0 198 -83.5t83 -199.5q0 -118 -83 -201t-200 -83q-118 0 -201.5 82.5t-83.5 199.5z" />
<glyph unicode="&#x2026;" horiz-adv-x="1806" d="M94 176q0 85 60 141t151 56t150 -56.5t59 -142.5q0 -88 -59 -144.5t-150 -56.5q-92 0 -151.5 57t-59.5 146zM696 176q0 85 60 141t151 56t150 -56.5t59 -142.5q0 -88 -59 -144.5t-150 -56.5q-92 0 -151.5 57t-59.5 146zM1298 176q0 85 60 141t151 56t150 -56.5t59 -142.5 q0 -88 -59 -144.5t-150 -56.5q-92 0 -151.5 57t-59.5 146z" />
<glyph unicode="&#x202f;" horiz-adv-x="374" />
<glyph unicode="&#x2039;" horiz-adv-x="598" d="M61 477l256 479h205l-143 -479l143 -477h-205z" />
<glyph unicode="&#x203a;" horiz-adv-x="598" d="M76 956h205l256 -477l-254 -479h-205l141 479z" />
<glyph unicode="&#x205f;" horiz-adv-x="468" />
<glyph unicode="&#x20ac;" horiz-adv-x="1413" d="M0 434v160h115q-4 29 -4 80q0 53 4 84h-115v160h135q26 114 103 217q104 138 249.5 202t356.5 64q280 0 413 -109q63 -53 96 -123.5t52 -191.5l-387 -141q-6 72 -18 111t-37 67q-56 59 -152 59q-150 0 -205 -155h246v-160h-281q-4 -66 -4 -94q0 -39 2 -70h283v-160h-246 q29 -67 81.5 -105t117.5 -38q47 0 88.5 21.5t69.5 60.5q35 50 55 157l389 -141q-27 -116 -70.5 -186t-122.5 -129q-76 -57 -170 -83t-223 -26q-290 0 -463 118.5t-223 350.5h-135z" />
<glyph unicode="&#x2122;" horiz-adv-x="1925" d="M-14 1161v205h706v-205h-217v-614h-272v614h-217zM756 547v819h354l172 -412l178 412h346v-819h-264v434l-156 -434h-206l-160 434v-434h-264z" />
<glyph unicode="&#xe000;" horiz-adv-x="952" d="M0 0v952h952v-952h-952z" />
</font>
</defs>
</svg>
