<?xml version="1.0"?>
<!DOCTYPE svg PUBLIC "-//W3C//DTD SVG 1.1//EN" "http://www.w3.org/Graphics/SVG/1.1/DTD/svg11.dtd">
<svg xmlns="http://www.w3.org/2000/svg" xmlns:xl="http://www.w3.org/1999/xlink" version="1.1" viewBox="424 286 288 364" width="24pc" height="364pt"><metadata xmlns:dc="http://purl.org/dc/elements/1.1/"><dc:date>2012-06-24 15:52Z</dc:date><!-- Produced by OmniGraffle Professional 5.4 --></metadata><defs></defs><g stroke="none" stroke-opacity="1" stroke-dasharray="none" fill="none" fill-opacity="1"><title>Canvas 1</title><g><title>Layer 1</title><circle cx="630.18018" cy="418.21475" r="78.795837" fill="#c0ff82"/><circle cx="522.1969" cy="581.3997" r="65.479736" fill="#c0ff82"/><circle cx="472.5604" cy="334.56076" r="45.560642" fill="#c0ff82"/><circle cx="542.78013" cy="321.13519" r="12.325577" fill="white"/><circle cx="542.78013" cy="321.13519" r="12.325577" stroke="#86b6c3" stroke-linecap="round" stroke-linejoin="round" stroke-width="3"/><circle cx="574.46827" cy="331.69914" r="12.325577" fill="white"/><circle cx="574.46827" cy="331.69914" r="12.325577" stroke="#86b6c3" stroke-linecap="round" stroke-linejoin="round" stroke-width="3"/><circle cx="455.62" cy="402.13315" r="12.325577" fill="white"/><circle cx="455.62" cy="402.13315" r="12.325577" stroke="#86b6c3" stroke-linecap="round" stroke-linejoin="round" stroke-width="3"/><circle cx="455.62" cy="436.46145" r="12.325577" fill="white"/><circle cx="455.62" cy="436.46145" r="12.325577" stroke="#86b6c3" stroke-linecap="round" stroke-linejoin="round" stroke-width="3"/><circle cx="462.66154" cy="474.31946" r="12.325577" fill="white"/><circle cx="462.66154" cy="474.31946" r="12.325577" stroke="#86b6c3" stroke-linecap="round" stroke-linejoin="round" stroke-width="3"/><circle cx="480.266" cy="506.01443" r="12.325577" fill="white"/><circle cx="480.266" cy="506.01443" r="12.325577" stroke="#86b6c3" stroke-linecap="round" stroke-linejoin="round" stroke-width="3"/><circle cx="608.80403" cy="547.39447" r="12.325577" fill="white"/><circle cx="608.80403" cy="547.39447" r="12.325577" stroke="#86b6c3" stroke-linecap="round" stroke-linejoin="round" stroke-width="3"/><circle cx="629.9373" cy="520.978" r="12.325577" fill="white"/><circle cx="629.9373" cy="520.978" r="12.325577" stroke="#86b6c3" stroke-linecap="round" stroke-linejoin="round" stroke-width="3"/><path d="M 690.9531 368.05246 C 689.3718 366.14124 687.6864 364.28715 685.897 362.49772 C 655.12545 331.72586 605.23497 331.72586 574.46344 362.49772 C 543.69175 393.26942 543.69175 443.16016 574.46344 473.93186 C 575.67244 475.14088 576.91096 476.3024 578.17667 477.4164 C 552.56516 446.46162 554.25054 400.51927 583.2328 371.537 C 612.79532 341.97417 660.00396 340.81265 690.9531 368.05246 Z" fill="#a2e946"/><path d="M 573.52975 539.8849 C 572.20626 538.2853 570.79568 536.73352 569.298 535.23585 C 543.54366 509.48123 501.78765 509.48123 476.0333 535.23585 C 450.27882 560.99034 450.27882 602.74658 476.0333 628.50106 C 477.04518 629.51295 478.08176 630.4851 479.1411 631.41747 C 457.70545 605.50974 459.11604 567.05813 483.37284 542.8013 C 508.1153 518.0586 547.62674 517.08645 573.52975 539.8849 Z" fill="#a2e946"/><path d="M 508.8002 305.782 C 507.8734 304.66184 506.8856 303.57517 505.83683 302.5264 C 487.80183 284.4912 458.56133 284.4912 440.52632 302.5264 C 422.49123 320.5615 422.49123 349.80216 440.52632 367.83726 C 441.2349 368.54586 441.9608 369.22662 442.70263 369.87953 C 427.69188 351.73712 428.67967 324.8106 445.666 307.82427 C 462.9924 290.49767 490.6611 289.81691 508.8002 305.782 Z" fill="#a2e946"/><circle cx="522.1969" cy="581.3997" r="65.47975" stroke="#86b6c3" stroke-linecap="round" stroke-linejoin="round" stroke-width="3"/><circle cx="630.18018" cy="418.21475" r="78.795837" stroke="#86b6c3" stroke-linecap="round" stroke-linejoin="round" stroke-width="3"/><circle cx="472.5604" cy="334.56076" r="45.560642" stroke="#86b6c3" stroke-linecap="round" stroke-linejoin="round" stroke-width="3"/></g></g></svg>
