<?xml version="1.0" encoding="utf-8"?>
<!-- Generator: Adobe Illustrator 15.1.0, SVG Export Plug-In . SVG Version: 6.00 Build 0)  -->
<!DOCTYPE svg PUBLIC "-//W3C//DTD SVG 1.1//EN" "http://www.w3.org/Graphics/SVG/1.1/DTD/svg11.dtd">
<svg version="1.1" xmlns="http://www.w3.org/2000/svg" xmlns:xlink="http://www.w3.org/1999/xlink" x="0px" y="0px"
	 width="221.509px" height="269.987px" viewBox="0 0 221.509 269.987" enable-background="new 0 0 221.509 269.987"
	 xml:space="preserve">
<g id="Layer_3" display="none">
	<rect display="inline" fill="#2B788C" width="625.596" height="269.122"/>
</g>
<g id="Layer_1">
	<g>
		<g>
			<circle fill="#999999" cx="80.991" cy="212.48" r="43.733"/>
			<g>
				<circle fill="#999999" cx="80.991" cy="212.48" r="40.923"/>
				<path fill="#999999" d="M41.671,214.184c0-22.601,18.321-40.923,40.923-40.923c11.291,0,21.514,4.572,28.918,11.967
					c-7.495-8.386-18.389-13.671-30.521-13.671c-22.601,0-40.923,18.323-40.923,40.923c0,11.308,4.587,21.541,12.001,28.948
					C45.604,234.193,41.671,224.65,41.671,214.184z"/>
			</g>
		</g>
		<g>
			<path fill="#999999" d="M202.3,105.327c0,28.981-23.497,52.49-52.479,52.49c-28.984,0-52.479-23.509-52.479-52.49
				c0-28.982,23.494-52.479,52.479-52.479C178.803,52.848,202.3,76.345,202.3,105.327z"/>
			<g>
				<path fill="#999999" d="M198.929,105.327c0,27.12-21.989,49.117-49.108,49.117c-27.121,0-49.108-21.997-49.108-49.117
					c0-27.12,21.987-49.106,49.108-49.106C176.94,56.221,198.929,78.207,198.929,105.327z"/>
				<path fill="#999999" d="M102.636,107.373c0-27.122,21.987-49.108,49.109-49.108c13.547,0,25.813,5.488,34.699,14.361
					c-8.994-10.063-22.065-16.405-36.623-16.405c-27.121,0-49.108,21.986-49.108,49.106c0,13.569,5.504,25.852,14.401,34.748
					C107.357,131.383,102.636,119.931,102.636,107.373z"/>
			</g>
		</g>
		<g>
			<circle fill="#999999" cx="48.915" cy="52.172" r="30.614"/>
			<g>
				<circle fill="#999999" cx="48.916" cy="52.172" r="28.646"/>
				<path fill="#999999" d="M21.392,53.365c0-15.82,12.824-28.646,28.645-28.646c7.905,0,15.06,3.202,20.242,8.377
					c-5.245-5.871-12.871-9.57-21.362-9.57c-15.822,0-28.646,12.826-28.646,28.646c0,7.915,3.211,15.08,8.398,20.264
					C24.145,67.371,21.392,60.692,21.392,53.365z"/>
			</g>
		</g>
		<path fill="#999999" d="M50.168,143.174c0,4.262-3.453,7.714-7.714,7.714c-4.259,0-7.713-3.452-7.713-7.714
			c0-4.261,3.454-7.722,7.713-7.722C46.715,135.452,50.168,138.914,50.168,143.174z"/>
		<circle fill="#999999" cx="53.642" cy="163.438" r="7.714"/>
		<circle fill="#999999" cx="38.216" cy="118.652" r="7.714"/>
		<circle fill="#999999" cx="37.357" cy="96.375" r="7.714"/>
		<circle fill="#999999" cx="94.416" cy="43.549" r="7.714"/>
		<circle fill="#999999" cx="114.675" cy="50.67" r="7.714"/>
		<circle fill="#999999" cx="137.154" cy="190.519" r="7.714"/>
		<circle fill="#999999" cx="150.886" cy="173.986" r="7.713"/>
	</g>
</g>
</svg>
